solid OpenSCAD_Model
  facet normal 1 0 -2.22045e-16
    outer loop
      vertex -3.28696e-15 -12.1486 -14.8032
      vertex -2.66916e-16 -1.06066 -1.20208
      vertex -3.02166e-15 -13.4669 -13.6083
    endloop
  endfacet
  facet normal 1 0 -2.22045e-16
    outer loop
      vertex -3.28696e-15 -12.1486 -14.8032
      vertex -5.0243e-16 7.6442e-16 -2.26274
      vertex -2.66916e-16 -1.06066 -1.20208
    endloop
  endfacet
  facet normal 1 0 -2.22045e-16
    outer loop
      vertex -3.53554e-15 -10.6392 -15.9226
      vertex -5.0243e-16 7.6442e-16 -2.26274
      vertex -3.28696e-15 -12.1486 -14.8032
    endloop
  endfacet
  facet normal 1 0 -2.22045e-16
    outer loop
      vertex -3.65957e-15 -9.70724 -16.4812
      vertex -3.65957e-15 -9.575 -16.4812
      vertex -3.53554e-15 -10.6392 -15.9226
    endloop
  endfacet
  facet normal 1 0 -2.22045e-16
    outer loop
      vertex -3.65957e-15 -9.575 -16.4812
      vertex -5.0243e-16 7.6442e-16 -2.26274
      vertex -3.53554e-15 -10.6392 -15.9226
    endloop
  endfacet
  facet normal 1 0 -2.22045e-16
    outer loop
      vertex -3.28696e-15 12.1486 -14.8032
      vertex -2.51215e-16 1.13137 -1.13137
      vertex -5.0243e-16 7.6442e-16 -2.26274
    endloop
  endfacet
  facet normal 1 0 -2.22045e-16
    outer loop
      vertex -3.53554e-15 10.6392 -15.9226
      vertex -5.0243e-16 7.6442e-16 -2.26274
      vertex -3.65957e-15 9.70724 -16.4812
    endloop
  endfacet
  facet normal 1 0 -2.22045e-16
    outer loop
      vertex -3.28696e-15 12.1486 -14.8032
      vertex -5.0243e-16 7.6442e-16 -2.26274
      vertex -3.53554e-15 10.6392 -15.9226
    endloop
  endfacet
  facet normal 1 0 -2.22045e-16
    outer loop
      vertex -3.00673e-15 13.5411 -13.5411
      vertex -2.51215e-16 1.13137 -1.13137
      vertex -3.28696e-15 12.1486 -14.8032
    endloop
  endfacet
  facet normal 1 0 -2.22045e-16
    outer loop
      vertex -3.65957e-15 9.70724 -16.4812
      vertex -5.0243e-16 7.6442e-16 -2.26274
      vertex -3.65957e-15 -9.575 -16.4812
    endloop
  endfacet
  facet normal -1.37461e-16 -0.671559 -0.740951
    outer loop
      vertex -3.02166e-15 -13.4669 -13.6083
      vertex -19.15 -13.4669 -13.6083
      vertex -3.28696e-15 -12.1486 -14.8032
    endloop
  endfacet
  facet normal -1.37461e-16 -0.671559 -0.740951
    outer loop
      vertex -3.28696e-15 -12.1486 -14.8032
      vertex -19.15 -13.4669 -13.6083
      vertex -19.15 -12.1486 -14.8032
    endloop
  endfacet
  facet normal -1 0 0
    outer loop
      vertex -19.15 -13.4669 -13.6083
      vertex -19.15 -1.06066 -1.20208
      vertex -19.15 -12.1486 -14.8032
    endloop
  endfacet
  facet normal -1 0 0
    outer loop
      vertex -19.15 -12.1486 -14.8032
      vertex -19.15 -1.06066 -1.20208
      vertex -19.15 7.6442e-16 -2.26274
    endloop
  endfacet
  facet normal -1 0 0
    outer loop
      vertex -19.15 -12.1486 -14.8032
      vertex -19.15 7.6442e-16 -2.26274
      vertex -19.15 -10.6392 -15.9226
    endloop
  endfacet
  facet normal -1 0 0
    outer loop
      vertex -19.15 7.6442e-16 -2.26274
      vertex -19.15 1.13137 -1.13137
      vertex -19.15 12.1486 -14.8032
    endloop
  endfacet
  facet normal -1 0 0
    outer loop
      vertex -19.15 1.13137 -1.13137
      vertex -19.15 13.5411 -13.5411
      vertex -19.15 12.1486 -14.8032
    endloop
  endfacet
  facet normal -1 0 0
    outer loop
      vertex -19.15 7.6442e-16 -2.26274
      vertex -19.15 12.1486 -14.8032
      vertex -19.15 10.6392 -15.9226
    endloop
  endfacet
  facet normal -1 2.3697e-15 1.84567e-15
    outer loop
      vertex -19.15 7.6442e-16 -2.26274
      vertex -19.15 10.6392 -15.9226
      vertex -19.15 9.575 -16.4812
    endloop
  endfacet
  facet normal -1 0 6.36026e-15
    outer loop
      vertex -19.15 10.6392 -15.9226
      vertex -19.15 9.70724 -16.4812
      vertex -19.15 9.575 -16.4812
    endloop
  endfacet
  facet normal -1 0 2.49866e-16
    outer loop
      vertex -19.15 7.6442e-16 -2.26274
      vertex -19.15 9.575 -16.4812
      vertex -19.15 -9.70724 -16.4812
    endloop
  endfacet
  facet normal -1 -2.59893e-15 2.02421e-15
    outer loop
      vertex -19.15 7.6442e-16 -2.26274
      vertex -19.15 -9.70724 -16.4812
      vertex -19.15 -10.6392 -15.9226
    endloop
  endfacet
  facet normal -1.49011e-16 -0.595699 -0.803208
    outer loop
      vertex -3.28696e-15 -12.1486 -14.8032
      vertex -19.15 -12.1486 -14.8032
      vertex -3.53554e-15 -10.6392 -15.9226
    endloop
  endfacet
  facet normal -2.23517e-16 -0.595699 -0.803208
    outer loop
      vertex -3.53554e-15 -10.6392 -15.9226
      vertex -19.15 -12.1486 -14.8032
      vertex -19.15 -10.6392 -15.9226
    endloop
  endfacet
  facet normal -2.38689e-16 -0.514103 -0.857729
    outer loop
      vertex -3.53554e-15 -10.6392 -15.9226
      vertex -19.15 -10.6392 -15.9226
      vertex -3.65957e-15 -9.70724 -16.4812
    endloop
  endfacet
  facet normal -1.90753e-16 -0.514103 -0.857729
    outer loop
      vertex -3.65957e-15 -9.70724 -16.4812
      vertex -19.15 -10.6392 -15.9226
      vertex -19.15 -9.70724 -16.4812
    endloop
  endfacet
  facet normal -1.90753e-16 0.514103 -0.857729
    outer loop
      vertex -19.15 9.70724 -16.4812
      vertex -19.15 10.6392 -15.9226
      vertex -3.65957e-15 9.70724 -16.4812
    endloop
  endfacet
  facet normal -1.54741e-16 0.514103 -0.857729
    outer loop
      vertex -3.65957e-15 9.70724 -16.4812
      vertex -19.15 10.6392 -15.9226
      vertex -3.53554e-15 10.6392 -15.9226
    endloop
  endfacet
  facet normal -1.48077e-16 0.595699 -0.803208
    outer loop
      vertex -3.53554e-15 10.6392 -15.9226
      vertex -19.15 12.1486 -14.8032
      vertex -3.28696e-15 12.1486 -14.8032
    endloop
  endfacet
  facet normal -1.49011e-16 0.595699 -0.803208
    outer loop
      vertex -3.53554e-15 10.6392 -15.9226
      vertex -19.15 10.6392 -15.9226
      vertex -19.15 12.1486 -14.8032
    endloop
  endfacet
  facet normal -1.35737e-16 0.671559 -0.740951
    outer loop
      vertex -3.28696e-15 12.1486 -14.8032
      vertex -19.15 13.5411 -13.5411
      vertex -3.00673e-15 13.5411 -13.5411
    endloop
  endfacet
  facet normal -1.37461e-16 0.671559 -0.740951
    outer loop
      vertex -3.28696e-15 12.1486 -14.8032
      vertex -19.15 12.1486 -14.8032
      vertex -19.15 13.5411 -13.5411
    endloop
  endfacet
  facet normal 0 0.970031 0.24298
    outer loop
      vertex -1.65 18.7691 3.7876
      vertex -2.865 18.3254 5.55895
      vertex -1.65 18.3254 5.55895
    endloop
  endfacet
  facet normal 8.88104e-17 0.970031 0.24298
    outer loop
      vertex -1.65 18.7691 3.7876
      vertex -2.865 18.7691 3.7876
      vertex -2.865 18.3254 5.55895
    endloop
  endfacet
  facet normal 0 0.970031 0.24298
    outer loop
      vertex -16.285 18.7691 3.7876
      vertex -17.5 18.3254 5.55895
      vertex -16.285 18.3254 5.55895
    endloop
  endfacet
  facet normal 0 0.970031 0.24298
    outer loop
      vertex -16.285 18.7691 3.7876
      vertex -17.5 18.7691 3.7876
      vertex -17.5 18.3254 5.55895
    endloop
  endfacet
  facet normal 4.47046e-17 0.970031 0.24298
    outer loop
      vertex -4.81501 18.7691 3.7876
      vertex -14.335 18.3254 5.55895
      vertex -4.81501 18.3254 5.55895
    endloop
  endfacet
  facet normal 5.66728e-17 0.970031 0.24298
    outer loop
      vertex -4.81501 18.7691 3.7876
      vertex -14.335 18.7691 3.7876
      vertex -14.335 18.3254 5.55895
    endloop
  endfacet
  facet normal 2.91736e-16 0.941544 0.33689
    outer loop
      vertex -1.65 18.3254 5.55895
      vertex -2.865 17.6923 7.32839
      vertex -1.65 17.6923 7.32839
    endloop
  endfacet
  facet normal 0 0.941544 0.33689
    outer loop
      vertex -1.65 18.3254 5.55895
      vertex -2.865 18.3254 5.55895
      vertex -2.865 17.6923 7.32839
    endloop
  endfacet
  facet normal 0 0.941544 0.33689
    outer loop
      vertex -16.285 18.3254 5.55895
      vertex -17.5 17.6923 7.32839
      vertex -16.285 17.6923 7.32839
    endloop
  endfacet
  facet normal 0 0.941544 0.33689
    outer loop
      vertex -16.285 18.3254 5.55895
      vertex -17.5 18.3254 5.55895
      vertex -17.5 17.6923 7.32839
    endloop
  endfacet
  facet normal 6.20554e-17 0.941544 0.33689
    outer loop
      vertex -4.81501 18.3254 5.55895
      vertex -14.335 17.6923 7.32839
      vertex -4.81501 17.6923 7.32839
    endloop
  endfacet
  facet normal 6.28611e-17 0.941544 0.33689
    outer loop
      vertex -4.81501 18.3254 5.55895
      vertex -14.335 18.3254 5.55895
      vertex -14.335 17.6923 7.32839
    endloop
  endfacet
  facet normal 0 0.903989 0.427555
    outer loop
      vertex -1.65 17.6923 7.32839
      vertex -2.865 16.8888 9.02725
      vertex -1.65 16.8888 9.02725
    endloop
  endfacet
  facet normal 3.12547e-16 0.903989 0.427555
    outer loop
      vertex -1.65 17.6923 7.32839
      vertex -2.865 17.6923 7.32839
      vertex -2.865 16.8888 9.02725
    endloop
  endfacet
  facet normal 0 0.903989 0.427555
    outer loop
      vertex -16.285 17.6923 7.32839
      vertex -17.5 16.8888 9.02725
      vertex -16.285 16.8888 9.02725
    endloop
  endfacet
  facet normal 0 0.903989 0.427555
    outer loop
      vertex -16.285 17.6923 7.32839
      vertex -17.5 17.6923 7.32839
      vertex -17.5 16.8888 9.02725
    endloop
  endfacet
  facet normal 8.68776e-17 0.903989 0.427555
    outer loop
      vertex -4.81501 17.6923 7.32839
      vertex -14.335 16.8888 9.02725
      vertex -4.81501 16.8888 9.02725
    endloop
  endfacet
  facet normal 7.97785e-17 0.903989 0.427555
    outer loop
      vertex -4.81501 17.6923 7.32839
      vertex -14.335 17.6923 7.32839
      vertex -14.335 16.8888 9.02725
    endloop
  endfacet
  facet normal 0 0.857729 0.514103
    outer loop
      vertex -1.65 16.8888 9.02725
      vertex -2.865 15.9226 10.6392
      vertex -1.65 15.9226 10.6392
    endloop
  endfacet
  facet normal 0 0.857729 0.514103
    outer loop
      vertex -1.65 16.8888 9.02725
      vertex -2.865 16.8888 9.02725
      vertex -2.865 15.9226 10.6392
    endloop
  endfacet
  facet normal 6.80719e-16 0.857729 0.514103
    outer loop
      vertex -16.285 16.8888 9.02725
      vertex -17.5 15.9226 10.6392
      vertex -16.285 15.9226 10.6392
    endloop
  endfacet
  facet normal 0 0.857729 0.514103
    outer loop
      vertex -16.285 16.8888 9.02725
      vertex -17.5 16.8888 9.02725
      vertex -17.5 15.9226 10.6392
    endloop
  endfacet
  facet normal 9.92887e-17 0.857729 0.514103
    outer loop
      vertex -4.81501 16.8888 9.02725
      vertex -14.335 15.9226 10.6392
      vertex -4.81501 15.9226 10.6392
    endloop
  endfacet
  facet normal 9.59276e-17 0.857729 0.514103
    outer loop
      vertex -4.81501 16.8888 9.02725
      vertex -14.335 16.8888 9.02725
      vertex -14.335 15.9226 10.6392
    endloop
  endfacet
  facet normal 0 0.803208 0.595699
    outer loop
      vertex -1.65 15.9226 10.6392
      vertex -2.865 15.359 11.3992
      vertex -1.65 14.8032 12.1486
    endloop
  endfacet
  facet normal 0 0.803208 0.595699
    outer loop
      vertex -1.65 15.9226 10.6392
      vertex -2.865 15.9226 10.6392
      vertex -2.865 15.359 11.3992
    endloop
  endfacet
  facet normal 0 0.803208 0.595699
    outer loop
      vertex -2.865 15.359 11.3992
      vertex -4.81501 15.359 11.3992
      vertex -1.65 14.8032 12.1486
    endloop
  endfacet
  facet normal 1.11153e-16 0.803208 0.595699
    outer loop
      vertex -4.81501 15.359 11.3992
      vertex -4.81501 15.9226 10.6392
      vertex -14.335 15.359 11.3992
    endloop
  endfacet
  facet normal 1.31372e-16 0.803208 0.595699
    outer loop
      vertex -4.81501 15.359 11.3992
      vertex -17.5 14.8032 12.1486
      vertex -1.65 14.8032 12.1486
    endloop
  endfacet
  facet normal 1.11153e-16 0.803208 0.595699
    outer loop
      vertex -4.81501 15.9226 10.6392
      vertex -14.335 15.9226 10.6392
      vertex -14.335 15.359 11.3992
    endloop
  endfacet
  facet normal 1.11153e-16 0.803208 0.595699
    outer loop
      vertex -14.335 15.359 11.3992
      vertex -17.5 14.8032 12.1486
      vertex -4.81501 15.359 11.3992
    endloop
  endfacet
  facet normal 8.69134e-16 0.803208 0.595699
    outer loop
      vertex -16.285 15.359 11.3992
      vertex -16.285 15.9226 10.6392
      vertex -17.5 15.9226 10.6392
    endloop
  endfacet
  facet normal 8.7521e-16 0.803208 0.595699
    outer loop
      vertex -16.285 15.359 11.3992
      vertex -17.5 15.9226 10.6392
      vertex -17.5 14.8032 12.1486
    endloop
  endfacet
  facet normal -0 0.803208 0.595699
    outer loop
      vertex -16.285 15.359 11.3992
      vertex -17.5 14.8032 12.1486
      vertex -14.335 15.359 11.3992
    endloop
  endfacet
  facet normal 1.49947e-16 0.740951 0.671559
    outer loop
      vertex -1.65 14.8032 12.1486
      vertex -17.5 14.6169 12.3541
      vertex -1.65 14.6169 12.3541
    endloop
  endfacet
  facet normal 1.50527e-16 0.740951 0.671559
    outer loop
      vertex -1.65 14.8032 12.1486
      vertex -17.5 14.8032 12.1486
      vertex -17.5 14.6169 12.3541
    endloop
  endfacet
  facet normal 1.49947e-16 -0.740951 0.671559
    outer loop
      vertex -1.65 -14.6169 12.3541
      vertex -17.5 -14.8032 12.1486
      vertex -1.65 -14.8032 12.1486
    endloop
  endfacet
  facet normal 1.50527e-16 -0.740951 0.671559
    outer loop
      vertex -1.65 -14.6169 12.3541
      vertex -17.5 -14.6169 12.3541
      vertex -17.5 -14.8032 12.1486
    endloop
  endfacet
  facet normal 0 -0.803208 0.595699
    outer loop
      vertex -2.865 -15.359 11.3992
      vertex -2.865 -15.9226 10.6392
      vertex -1.65 -15.9226 10.6392
    endloop
  endfacet
  facet normal 0 -0.803208 0.595699
    outer loop
      vertex -17.5 -14.8032 12.1486
      vertex -16.285 -15.359 11.3992
      vertex -14.335 -15.359 11.3992
    endloop
  endfacet
  facet normal 0 -0.803208 0.595699
    outer loop
      vertex -17.5 -14.8032 12.1486
      vertex -17.5 -15.9226 10.6392
      vertex -16.285 -15.359 11.3992
    endloop
  endfacet
  facet normal 0 -0.803208 0.595699
    outer loop
      vertex -17.5 -15.9226 10.6392
      vertex -16.285 -15.9226 10.6392
      vertex -16.285 -15.359 11.3992
    endloop
  endfacet
  facet normal 1.33524e-16 -0.803208 0.595699
    outer loop
      vertex -17.5 -14.8032 12.1486
      vertex -4.81501 -15.359 11.3992
      vertex -1.65 -14.8032 12.1486
    endloop
  endfacet
  facet normal 2.21848e-16 -0.803208 0.595699
    outer loop
      vertex -14.335 -15.359 11.3992
      vertex -14.335 -15.9226 10.6392
      vertex -4.81501 -15.9226 10.6392
    endloop
  endfacet
  facet normal 1.83586e-16 -0.803208 0.595699
    outer loop
      vertex -14.335 -15.359 11.3992
      vertex -4.81501 -15.9226 10.6392
      vertex -4.81501 -15.359 11.3992
    endloop
  endfacet
  facet normal 1.83586e-16 -0.803208 0.595699
    outer loop
      vertex -14.335 -15.359 11.3992
      vertex -4.81501 -15.359 11.3992
      vertex -17.5 -14.8032 12.1486
    endloop
  endfacet
  facet normal 0 -0.803208 0.595699
    outer loop
      vertex -4.81501 -15.359 11.3992
      vertex -2.865 -15.359 11.3992
      vertex -1.65 -14.8032 12.1486
    endloop
  endfacet
  facet normal 3.16047e-16 -0.803208 0.595699
    outer loop
      vertex -2.865 -15.359 11.3992
      vertex -1.65 -15.9226 10.6392
      vertex -1.65 -14.8032 12.1486
    endloop
  endfacet
  facet normal 0 -0.857729 0.514103
    outer loop
      vertex -2.865 -15.9226 10.6392
      vertex -2.865 -16.8888 9.02725
      vertex -1.65 -16.8888 9.02725
    endloop
  endfacet
  facet normal 0 -0.857729 0.514103
    outer loop
      vertex -1.65 -15.9226 10.6392
      vertex -2.865 -15.9226 10.6392
      vertex -1.65 -16.8888 9.02725
    endloop
  endfacet
  facet normal 0 -0.857729 0.514103
    outer loop
      vertex -17.5 -15.9226 10.6392
      vertex -17.5 -16.8888 9.02725
      vertex -16.285 -16.8888 9.02725
    endloop
  endfacet
  facet normal 0 -0.857729 0.514103
    outer loop
      vertex -16.285 -15.9226 10.6392
      vertex -17.5 -15.9226 10.6392
      vertex -16.285 -16.8888 9.02725
    endloop
  endfacet
  facet normal 9.92887e-17 -0.857729 0.514103
    outer loop
      vertex -14.335 -15.9226 10.6392
      vertex -14.335 -16.8888 9.02725
      vertex -4.81501 -16.8888 9.02725
    endloop
  endfacet
  facet normal 1.91855e-16 -0.857729 0.514103
    outer loop
      vertex -4.81501 -15.9226 10.6392
      vertex -14.335 -15.9226 10.6392
      vertex -4.81501 -16.8888 9.02725
    endloop
  endfacet
  facet normal 2.91736e-16 -0.903989 0.427555
    outer loop
      vertex -2.865 -16.8888 9.02725
      vertex -2.865 -17.6923 7.32839
      vertex -1.65 -17.6923 7.32839
    endloop
  endfacet
  facet normal 0 -0.903989 0.427555
    outer loop
      vertex -1.65 -16.8888 9.02725
      vertex -2.865 -16.8888 9.02725
      vertex -1.65 -17.6923 7.32839
    endloop
  endfacet
  facet normal 0 -0.903989 0.427555
    outer loop
      vertex -17.5 -16.8888 9.02725
      vertex -17.5 -17.6923 7.32839
      vertex -16.285 -17.6923 7.32839
    endloop
  endfacet
  facet normal 0 -0.903989 0.427555
    outer loop
      vertex -16.285 -16.8888 9.02725
      vertex -17.5 -16.8888 9.02725
      vertex -16.285 -17.6923 7.32839
    endloop
  endfacet
  facet normal 1.24111e-16 -0.903989 0.427555
    outer loop
      vertex -14.335 -16.8888 9.02725
      vertex -14.335 -17.6923 7.32839
      vertex -4.81501 -17.6923 7.32839
    endloop
  endfacet
  facet normal 7.97785e-17 -0.903989 0.427555
    outer loop
      vertex -4.81501 -16.8888 9.02725
      vertex -14.335 -16.8888 9.02725
      vertex -4.81501 -17.6923 7.32839
    endloop
  endfacet
  facet normal 2.91736e-16 -0.941544 0.33689
    outer loop
      vertex -2.865 -17.6923 7.32839
      vertex -2.865 -18.3254 5.55895
      vertex -1.65 -18.3254 5.55895
    endloop
  endfacet
  facet normal 2.4627e-16 -0.941544 0.33689
    outer loop
      vertex -1.65 -17.6923 7.32839
      vertex -2.865 -17.6923 7.32839
      vertex -1.65 -18.3254 5.55895
    endloop
  endfacet
  facet normal 0 -0.941544 0.33689
    outer loop
      vertex -17.5 -17.6923 7.32839
      vertex -17.5 -18.3254 5.55895
      vertex -16.285 -18.3254 5.55895
    endloop
  endfacet
  facet normal 0 -0.941544 0.33689
    outer loop
      vertex -16.285 -17.6923 7.32839
      vertex -17.5 -17.6923 7.32839
      vertex -16.285 -18.3254 5.55895
    endloop
  endfacet
  facet normal 6.20554e-17 -0.941544 0.33689
    outer loop
      vertex -14.335 -17.6923 7.32839
      vertex -14.335 -18.3254 5.55895
      vertex -4.81501 -18.3254 5.55895
    endloop
  endfacet
  facet normal 9.42916e-17 -0.941544 0.33689
    outer loop
      vertex -4.81501 -17.6923 7.32839
      vertex -14.335 -17.6923 7.32839
      vertex -4.81501 -18.3254 5.55895
    endloop
  endfacet
  facet normal 0 -0.970031 0.24298
    outer loop
      vertex -2.865 -18.3254 5.55895
      vertex -2.865 -18.7691 3.7876
      vertex -1.65 -18.7691 3.7876
    endloop
  endfacet
  facet normal 1.77621e-16 -0.970031 0.24298
    outer loop
      vertex -1.65 -18.3254 5.55895
      vertex -2.865 -18.3254 5.55895
      vertex -1.65 -18.7691 3.7876
    endloop
  endfacet
  facet normal 1.00079e-16 -0.970031 0.24298
    outer loop
      vertex -17.5 -18.3254 5.55895
      vertex -17.5 -18.7691 3.7876
      vertex -16.285 -18.7691 3.7876
    endloop
  endfacet
  facet normal 0 -0.970031 0.24298
    outer loop
      vertex -16.285 -18.3254 5.55895
      vertex -17.5 -18.3254 5.55895
      vertex -16.285 -18.7691 3.7876
    endloop
  endfacet
  facet normal 5.74774e-17 -0.970031 0.24298
    outer loop
      vertex -14.335 -18.3254 5.55895
      vertex -14.335 -18.7691 3.7876
      vertex -4.81501 -18.7691 3.7876
    endloop
  endfacet
  facet normal 4.53382e-17 -0.970031 0.24298
    outer loop
      vertex -4.81501 -18.3254 5.55895
      vertex -14.335 -18.3254 5.55895
      vertex -4.81501 -18.7691 3.7876
    endloop
  endfacet
  facet normal 8.08372e-17 -0.707107 0.707107
    outer loop
      vertex -16.285 -22.5567 -1.3487e-07
      vertex -17.5 -23.6881 -1.13137
      vertex -2.865 -22.5567 -1.3487e-07
    endloop
  endfacet
  facet normal 8.40667e-16 -0.707107 0.707107
    outer loop
      vertex -1.65 -18.7691 3.7876
      vertex -2.865 -22.5567 -1.3487e-07
      vertex -1.65 -23.6881 -1.13137
    endloop
  endfacet
  facet normal 0 -0.707107 0.707107
    outer loop
      vertex -2.865 -18.7691 3.7876
      vertex -2.865 -22.5567 -1.3487e-07
      vertex -1.65 -18.7691 3.7876
    endloop
  endfacet
  facet normal 1.57603e-16 -0.707107 0.707107
    outer loop
      vertex -2.865 -22.5567 -1.3487e-07
      vertex -17.5 -23.6881 -1.13137
      vertex -1.65 -23.6881 -1.13137
    endloop
  endfacet
  facet normal 4.20334e-16 -0.707107 0.707107
    outer loop
      vertex -17.5 -18.7691 3.7876
      vertex -17.5 -23.6881 -1.13137
      vertex -16.285 -22.5567 -1.3487e-07
    endloop
  endfacet
  facet normal 2.58451e-16 -0.707107 0.707107
    outer loop
      vertex -16.285 -18.7691 3.7876
      vertex -17.5 -18.7691 3.7876
      vertex -16.285 -22.5567 -1.3487e-07
    endloop
  endfacet
  facet normal 2.53945e-16 -0.707107 0.707107
    outer loop
      vertex -14.335 -18.7691 3.7876
      vertex -14.335 -21.1071 1.44956
      vertex -4.81501 -21.1071 1.44956
    endloop
  endfacet
  facet normal 1.64926e-16 -0.707107 0.707107
    outer loop
      vertex -4.81501 -18.7691 3.7876
      vertex -14.335 -18.7691 3.7876
      vertex -4.81501 -21.1071 1.44956
    endloop
  endfacet
  facet normal -1.68636e-16 0.707107 -0.707107
    outer loop
      vertex -1.65 12.4097 -12.4097
      vertex -17.5 23.6881 -1.13137
      vertex -1.65 23.6881 -1.13137
    endloop
  endfacet
  facet normal -1.58495e-16 0.707107 -0.707107
    outer loop
      vertex -1.65 12.4097 -12.4097
      vertex -17.5 12.4097 -12.4097
      vertex -17.5 23.6881 -1.13137
    endloop
  endfacet
  facet normal 2.72944e-16 0.707107 0.707107
    outer loop
      vertex -2.865 22.5567 -1.82525e-15
      vertex -2.865 18.7691 3.7876
      vertex -1.65 18.7691 3.7876
    endloop
  endfacet
  facet normal 1.55117e-16 0.707107 0.707107
    outer loop
      vertex -17.5 23.6881 -1.13137
      vertex -16.285 22.5567 1.15459e-15
      vertex -2.865 22.5567 -1.82525e-15
    endloop
  endfacet
  facet normal 5.25418e-16 0.707107 0.707107
    outer loop
      vertex -17.5 23.6881 -1.13137
      vertex -17.5 18.7691 3.7876
      vertex -16.285 22.5567 1.15459e-15
    endloop
  endfacet
  facet normal -0 0.707107 0.707107
    outer loop
      vertex -17.5 18.7691 3.7876
      vertex -16.285 18.7691 3.7876
      vertex -16.285 22.5567 1.15459e-15
    endloop
  endfacet
  facet normal 1.58495e-16 0.707107 0.707107
    outer loop
      vertex -17.5 23.6881 -1.13137
      vertex -2.865 22.5567 -1.82525e-15
      vertex -1.65 23.6881 -1.13137
    endloop
  endfacet
  facet normal -1.05083e-16 0.707107 0.707107
    outer loop
      vertex -1.65 23.6881 -1.13137
      vertex -2.865 22.5567 -1.82525e-15
      vertex -1.65 18.7691 3.7876
    endloop
  endfacet
  facet normal 1.69297e-16 0.707107 0.707107
    outer loop
      vertex -14.335 21.1071 1.44956
      vertex -14.335 18.7691 3.7876
      vertex -4.81501 18.7691 3.7876
    endloop
  endfacet
  facet normal 1.48433e-16 0.707107 0.707107
    outer loop
      vertex -4.81501 21.1071 1.44956
      vertex -14.335 21.1071 1.44956
      vertex -4.81501 18.7691 3.7876
    endloop
  endfacet
  facet normal 0 -0.707107 0.707107
    outer loop
      vertex -1.65 -12.339 -12.4804
      vertex -2.66916e-16 -1.06066 -1.20208
      vertex -1.65 -1.06066 -1.20208
    endloop
  endfacet
  facet normal 1.30846e-16 -0.707107 0.707107
    outer loop
      vertex -1.65 -12.339 -12.4804
      vertex -19.15 -13.4669 -13.6083
      vertex -3.02166e-15 -13.4669 -13.6083
    endloop
  endfacet
  facet normal 1.07996e-15 -0.707107 0.707107
    outer loop
      vertex -17.5 -12.339 -12.4804
      vertex -17.5 -1.06066 -1.20208
      vertex -19.15 -1.06066 -1.20208
    endloop
  endfacet
  facet normal 0 -0.707107 0.707107
    outer loop
      vertex -17.5 -12.339 -12.4804
      vertex -19.15 -1.06066 -1.20208
      vertex -19.15 -13.4669 -13.6083
    endloop
  endfacet
  facet normal 1.58495e-16 -0.707107 0.707107
    outer loop
      vertex -17.5 -12.339 -12.4804
      vertex -19.15 -13.4669 -13.6083
      vertex -1.65 -12.339 -12.4804
    endloop
  endfacet
  facet normal 1.22722e-16 -0.707107 0.707107
    outer loop
      vertex -1.65 -12.339 -12.4804
      vertex -3.02166e-15 -13.4669 -13.6083
      vertex -2.66916e-16 -1.06066 -1.20208
    endloop
  endfacet
  facet normal 1 1.30564e-18 -2.1787e-16
    outer loop
      vertex -1.65 -18.7691 3.7876
      vertex -1.65 -12.339 -12.4804
      vertex -1.65 -1.06066 -1.20208
    endloop
  endfacet
  facet normal 1 1.20289e-16 -1.09024e-16
    outer loop
      vertex -1.65 -14.6169 12.3541
      vertex -1.65 -14.8032 12.1486
      vertex -1.65 -1.06066 -1.20208
    endloop
  endfacet
  facet normal 1 -3.46474e-17 -2.68507e-16
    outer loop
      vertex -1.65 -14.8032 12.1486
      vertex -1.65 -15.9226 10.6392
      vertex -1.65 -1.06066 -1.20208
    endloop
  endfacet
  facet normal 1 4.7059e-17 -1.65958e-16
    outer loop
      vertex -1.65 -15.9226 10.6392
      vertex -1.65 -16.8888 9.02725
      vertex -1.65 -1.06066 -1.20208
    endloop
  endfacet
  facet normal 1 -1.12019e-17 -2.56106e-16
    outer loop
      vertex -1.65 -16.8888 9.02725
      vertex -1.65 -17.6923 7.32839
      vertex -1.65 -1.06066 -1.20208
    endloop
  endfacet
  facet normal 1 -7.2423e-18 -2.48386e-16
    outer loop
      vertex -1.65 -17.6923 7.32839
      vertex -1.65 -18.3254 5.55895
      vertex -1.65 -1.06066 -1.20208
    endloop
  endfacet
  facet normal 1 -7.42265e-18 -2.48847e-16
    outer loop
      vertex -1.65 -18.3254 5.55895
      vertex -1.65 -18.7691 3.7876
      vertex -1.65 -1.06066 -1.20208
    endloop
  endfacet
  facet normal 1 -5.2436e-18 -2.20459e-16
    outer loop
      vertex -1.65 -18.7691 3.7876
      vertex -1.65 -23.6881 -1.13137
      vertex -1.65 -12.339 -12.4804
    endloop
  endfacet
  facet normal 1 4.56894e-18 -2.21133e-16
    outer loop
      vertex -1.65 18.7691 3.7876
      vertex -1.65 12.4097 -12.4097
      vertex -1.65 23.6881 -1.13137
    endloop
  endfacet
  facet normal 1 -1.99271e-18 -2.18557e-16
    outer loop
      vertex -1.65 18.7691 3.7876
      vertex -1.65 1.13137 -1.13137
      vertex -1.65 12.4097 -12.4097
    endloop
  endfacet
  facet normal 1 6.51796e-18 -2.49074e-16
    outer loop
      vertex -1.65 1.13137 -1.13137
      vertex -1.65 18.7691 3.7876
      vertex -1.65 18.3254 5.55895
    endloop
  endfacet
  facet normal 1 6.37179e-18 -2.48698e-16
    outer loop
      vertex -1.65 17.6923 7.32839
      vertex -1.65 1.13137 -1.13137
      vertex -1.65 18.3254 5.55895
    endloop
  endfacet
  facet normal 1 1.03597e-17 -2.56505e-16
    outer loop
      vertex -1.65 16.8888 9.02725
      vertex -1.65 1.13137 -1.13137
      vertex -1.65 17.6923 7.32839
    endloop
  endfacet
  facet normal 1 -4.77485e-17 -1.66371e-16
    outer loop
      vertex -1.65 15.9226 10.6392
      vertex -1.65 1.13137 -1.13137
      vertex -1.65 16.8888 9.02725
    endloop
  endfacet
  facet normal 1 3.39443e-17 -2.69029e-16
    outer loop
      vertex -1.65 14.8032 12.1486
      vertex -1.65 1.13137 -1.13137
      vertex -1.65 15.9226 10.6392
    endloop
  endfacet
  facet normal 1 -1.2092e-16 -1.09596e-16
    outer loop
      vertex -1.65 14.6169 12.3541
      vertex -1.65 1.13137 -1.13137
      vertex -1.65 14.8032 12.1486
    endloop
  endfacet
  facet normal -1 -1.87396e-16 4.69403e-17
    outer loop
      vertex -17.5 -18.3254 5.55895
      vertex -17.5 -1.06066 -1.20208
      vertex -17.5 -18.7691 3.7876
    endloop
  endfacet
  facet normal -1 -1.80488e-16 6.45798e-17
    outer loop
      vertex -17.5 -18.3254 5.55895
      vertex -17.5 -17.6923 7.32839
      vertex -17.5 -1.06066 -1.20208
    endloop
  endfacet
  facet normal -1 -1.71909e-16 8.13069e-17
    outer loop
      vertex -17.5 -17.6923 7.32839
      vertex -17.5 -16.8888 9.02725
      vertex -17.5 -1.06066 -1.20208
    endloop
  endfacet
  facet normal -1 -1.61786e-16 9.69707e-17
    outer loop
      vertex -17.5 -16.8888 9.02725
      vertex -17.5 -15.9226 10.6392
      vertex -17.5 -1.06066 -1.20208
    endloop
  endfacet
  facet normal -1 -1.50258e-16 1.11439e-16
    outer loop
      vertex -17.5 -15.9226 10.6392
      vertex -17.5 -14.8032 12.1486
      vertex -17.5 -1.06066 -1.20208
    endloop
  endfacet
  facet normal -1 -1.37474e-16 1.24599e-16
    outer loop
      vertex -17.5 -14.8032 12.1486
      vertex -17.5 -14.6169 12.3541
      vertex -17.5 -1.06066 -1.20208
    endloop
  endfacet
  facet normal -1 -1.5652e-16 1.5652e-16
    outer loop
      vertex -17.5 -18.7691 3.7876
      vertex -17.5 -1.06066 -1.20208
      vertex -17.5 -12.339 -12.4804
    endloop
  endfacet
  facet normal -1 3.61124e-16 3.61124e-16
    outer loop
      vertex -17.5 -18.7691 3.7876
      vertex -17.5 -12.339 -12.4804
      vertex -17.5 -23.6881 -1.13137
    endloop
  endfacet
  facet normal -1 1.38194e-16 1.25252e-16
    outer loop
      vertex -17.5 14.8032 12.1486
      vertex -17.5 1.13137 -1.13137
      vertex -17.5 14.6169 12.3541
    endloop
  endfacet
  facet normal -1 1.51045e-16 1.12023e-16
    outer loop
      vertex -17.5 14.8032 12.1486
      vertex -17.5 15.9226 10.6392
      vertex -17.5 1.13137 -1.13137
    endloop
  endfacet
  facet normal -1 1.62623e-16 9.74727e-17
    outer loop
      vertex -17.5 15.9226 10.6392
      vertex -17.5 16.8888 9.02725
      vertex -17.5 1.13137 -1.13137
    endloop
  endfacet
  facet normal -1 1.7278e-16 8.17188e-17
    outer loop
      vertex -17.5 16.8888 9.02725
      vertex -17.5 17.6923 7.32839
      vertex -17.5 1.13137 -1.13137
    endloop
  endfacet
  facet normal -1 1.81373e-16 6.48963e-17
    outer loop
      vertex -17.5 17.6923 7.32839
      vertex -17.5 18.3254 5.55895
      vertex -17.5 1.13137 -1.13137
    endloop
  endfacet
  facet normal -1 -3.61124e-16 3.61124e-16
    outer loop
      vertex -17.5 18.7691 3.7876
      vertex -17.5 23.6881 -1.13137
      vertex -17.5 12.4097 -12.4097
    endloop
  endfacet
  facet normal -1 1.88274e-16 4.71602e-17
    outer loop
      vertex -17.5 18.7691 3.7876
      vertex -17.5 1.13137 -1.13137
      vertex -17.5 18.3254 5.55895
    endloop
  endfacet
  facet normal -1 1.57501e-16 1.57501e-16
    outer loop
      vertex -17.5 18.7691 3.7876
      vertex -17.5 12.4097 -12.4097
      vertex -17.5 1.13137 -1.13137
    endloop
  endfacet
  facet normal -6.13436e-17 0.707107 0.707107
    outer loop
      vertex -1.65 12.4097 -12.4097
      vertex -2.51215e-16 1.13137 -1.13137
      vertex -3.00673e-15 13.5411 -13.5411
    endloop
  endfacet
  facet normal 1.84031e-16 0.707107 0.707107
    outer loop
      vertex -19.15 13.5411 -13.5411
      vertex -19.15 1.13137 -1.13137
      vertex -17.5 12.4097 -12.4097
    endloop
  endfacet
  facet normal 1.90314e-16 0.707107 0.707107
    outer loop
      vertex -19.15 1.13137 -1.13137
      vertex -17.5 1.13137 -1.13137
      vertex -17.5 12.4097 -12.4097
    endloop
  endfacet
  facet normal 1.30444e-16 0.707107 0.707107
    outer loop
      vertex -1.65 12.4097 -12.4097
      vertex -3.00673e-15 13.5411 -13.5411
      vertex -19.15 13.5411 -13.5411
    endloop
  endfacet
  facet normal 1.58495e-16 0.707107 0.707107
    outer loop
      vertex -17.5 12.4097 -12.4097
      vertex -1.65 12.4097 -12.4097
      vertex -19.15 13.5411 -13.5411
    endloop
  endfacet
  facet normal 0 0.707107 0.707107
    outer loop
      vertex -1.65 12.4097 -12.4097
      vertex -1.65 1.13137 -1.13137
      vertex -2.51215e-16 1.13137 -1.13137
    endloop
  endfacet
  facet normal 2.61544e-16 0.707107 0.707107
    outer loop
      vertex -4.81501 -10.0586 -14.0184
      vertex -2.865 -7.59576 -16.4812
      vertex -4.81501 -7.59576 -16.4812
    endloop
  endfacet
  facet normal -0 0.707107 0.707107
    outer loop
      vertex -4.81501 -10.0586 -14.0184
      vertex -2.865 -10.0586 -14.0184
      vertex -2.865 -7.59576 -16.4812
    endloop
  endfacet
  facet normal 6.53864e-16 0.707107 0.707107
    outer loop
      vertex -16.285 -10.0586 -14.0184
      vertex -14.335 -7.59576 -16.4812
      vertex -16.285 -7.59576 -16.4812
    endloop
  endfacet
  facet normal 6.44142e-16 0.707107 0.707107
    outer loop
      vertex -16.285 -10.0586 -14.0184
      vertex -14.335 -10.0586 -14.0184
      vertex -14.335 -7.59576 -16.4812
    endloop
  endfacet
  facet normal 0 0.707107 -0.707107
    outer loop
      vertex -4.81501 15.359 11.3992
      vertex -2.865 -1.3487e-07 -3.95981
      vertex -4.81501 -1.3487e-07 -3.95981
    endloop
  endfacet
  facet normal 0 0.707107 -0.707107
    outer loop
      vertex -4.81501 15.359 11.3992
      vertex -2.865 15.359 11.3992
      vertex -2.865 -1.3487e-07 -3.95981
    endloop
  endfacet
  facet normal 0 0.707107 -0.707107
    outer loop
      vertex -4.81501 -9.29845 -13.2583
      vertex -2.865 -10.0586 -14.0184
      vertex -4.81501 -10.0586 -14.0184
    endloop
  endfacet
  facet normal -6.44136e-16 0.707107 -0.707107
    outer loop
      vertex -4.81501 -9.29845 -13.2583
      vertex -2.865 -9.29845 -13.2583
      vertex -2.865 -10.0586 -14.0184
    endloop
  endfacet
  facet normal 1 -1.80317e-16 -1.80317e-16
    outer loop
      vertex -4.81501 9.29845 -13.2583
      vertex -4.81501 7.59576 -16.4812
      vertex -4.81501 10.0586 -14.0184
    endloop
  endfacet
  facet normal 1 0 -2.75578e-16
    outer loop
      vertex -4.81501 9.29845 -13.2583
      vertex -4.81501 6.07548 -16.4812
      vertex -4.81501 7.59576 -16.4812
    endloop
  endfacet
  facet normal 1 -1.5172e-16 -3.93151e-16
    outer loop
      vertex -4.81501 -1.3487e-07 -3.95981
      vertex -4.81501 3.17636 -16.4812
      vertex -4.81501 21.1071 1.44956
    endloop
  endfacet
  facet normal 1 -2.00972e-16 -2.00972e-16
    outer loop
      vertex -4.81501 18.7691 3.7876
      vertex -4.81501 -1.3487e-07 -3.95981
      vertex -4.81501 21.1071 1.44956
    endloop
  endfacet
  facet normal 1 -6.97462e-17 -5.18883e-16
    outer loop
      vertex -4.81501 -1.3487e-07 -3.95981
      vertex -4.81501 18.7691 3.7876
      vertex -4.81501 18.3254 5.55895
    endloop
  endfacet
  facet normal 1 -6.62297e-17 -5.25653e-16
    outer loop
      vertex -4.81501 17.6923 7.32839
      vertex -4.81501 -1.3487e-07 -3.95981
      vertex -4.81501 18.3254 5.55895
    endloop
  endfacet
  facet normal 1 -3.08513e-16 -1.45916e-16
    outer loop
      vertex -4.81501 16.8888 9.02725
      vertex -4.81501 -1.3487e-07 -3.95981
      vertex -4.81501 17.6923 7.32839
    endloop
  endfacet
  facet normal 1 2.04738e-18 -5.49779e-16
    outer loop
      vertex -4.81501 15.9226 10.6392
      vertex -4.81501 -1.3487e-07 -3.95981
      vertex -4.81501 16.8888 9.02725
    endloop
  endfacet
  facet normal 1 -2.98827e-16 -2.21625e-16
    outer loop
      vertex -4.81501 15.359 11.3992
      vertex -4.81501 -1.3487e-07 -3.95981
      vertex -4.81501 15.9226 10.6392
    endloop
  endfacet
  facet normal 1 -1.39811e-16 -3.9013e-16
    outer loop
      vertex -4.81501 -3.17636 -16.4812
      vertex -4.81501 3.17636 -16.4812
      vertex -4.81501 -1.3487e-07 -3.95981
    endloop
  endfacet
  facet normal 1 -5.38187e-16 -7.69498e-16
    outer loop
      vertex -4.81501 -15.359 11.3992
      vertex -4.81501 -15.9226 10.6392
      vertex -4.81501 -1.3487e-07 -3.95981
    endloop
  endfacet
  facet normal 1 -2.18036e-16 -4.2032e-16
    outer loop
      vertex -4.81501 -15.9226 10.6392
      vertex -4.81501 -16.8888 9.02725
      vertex -4.81501 -1.3487e-07 -3.95981
    endloop
  endfacet
  facet normal 1 7.71282e-17 -3.6479e-17
    outer loop
      vertex -4.81501 -16.8888 9.02725
      vertex -4.81501 -17.6923 7.32839
      vertex -4.81501 -1.3487e-07 -3.95981
    endloop
  endfacet
  facet normal 1 -1.78996e-16 -4.3791e-16
    outer loop
      vertex -4.81501 -17.6923 7.32839
      vertex -4.81501 -18.3254 5.55895
      vertex -4.81501 -1.3487e-07 -3.95981
    endloop
  endfacet
  facet normal 1 -1.87576e-16 -4.54427e-16
    outer loop
      vertex -4.81501 -18.3254 5.55895
      vertex -4.81501 -18.7691 3.7876
      vertex -4.81501 -1.3487e-07 -3.95981
    endloop
  endfacet
  facet normal 1 -2.21982e-16 -5.37781e-16
    outer loop
      vertex -4.81501 -18.7691 3.7876
      vertex -4.81501 -21.1071 1.44956
      vertex -4.81501 -1.3487e-07 -3.95981
    endloop
  endfacet
  facet normal 1 -1.81436e-16 -3.79571e-16
    outer loop
      vertex -4.81501 -21.1071 1.44956
      vertex -4.81501 -3.17636 -16.4812
      vertex -4.81501 -1.3487e-07 -3.95981
    endloop
  endfacet
  facet normal 1 0 -2.75578e-16
    outer loop
      vertex -4.81501 -7.59576 -16.4812
      vertex -4.81501 -6.07548 -16.4812
      vertex -4.81501 -9.29845 -13.2583
    endloop
  endfacet
  facet normal 1 1.80317e-16 -1.80317e-16
    outer loop
      vertex -4.81501 -10.0586 -14.0184
      vertex -4.81501 -7.59576 -16.4812
      vertex -4.81501 -9.29845 -13.2583
    endloop
  endfacet
  facet normal -1.48433e-16 0.707107 -0.707107
    outer loop
      vertex -4.81501 21.1071 1.44956
      vertex -12.7514 3.17636 -16.4812
      vertex -14.335 21.1071 1.44956
    endloop
  endfacet
  facet normal 0 0.707107 -0.707107
    outer loop
      vertex -4.81501 21.1071 1.44956
      vertex -4.81501 3.17636 -16.4812
      vertex -12.7514 3.17636 -16.4812
    endloop
  endfacet
  facet normal 0 0.707107 -0.707107
    outer loop
      vertex -14.335 21.1071 1.44956
      vertex -12.7514 3.17636 -16.4812
      vertex -14.335 3.17636 -16.4812
    endloop
  endfacet
  facet normal -1 -0 0
    outer loop
      vertex -14.335 10.0586 -14.0184
      vertex -14.335 7.59576 -16.4812
      vertex -14.335 9.29845 -13.2583
    endloop
  endfacet
  facet normal -1 0 0
    outer loop
      vertex -14.335 9.29845 -13.2583
      vertex -14.335 7.59576 -16.4812
      vertex -14.335 6.07548 -16.4812
    endloop
  endfacet
  facet normal -1 0 0
    outer loop
      vertex -14.335 -18.7691 3.7876
      vertex -14.335 -18.3254 5.55895
      vertex -14.335 -1.3487e-07 -3.95981
    endloop
  endfacet
  facet normal -1 4.39734e-16 8.46572e-16
    outer loop
      vertex -14.335 -17.6923 7.32839
      vertex -14.335 -1.3487e-07 -3.95981
      vertex -14.335 -18.3254 5.55895
    endloop
  endfacet
  facet normal -1 -7.71282e-17 3.6479e-17
    outer loop
      vertex -14.335 -17.6923 7.32839
      vertex -14.335 -16.8888 9.02725
      vertex -14.335 -1.3487e-07 -3.95981
    endloop
  endfacet
  facet normal -1 -7.19962e-17 4.31528e-17
    outer loop
      vertex -14.335 -16.8888 9.02725
      vertex -14.335 -15.9226 10.6392
      vertex -14.335 -1.3487e-07 -3.95981
    endloop
  endfacet
  facet normal -1 1.20919e-15 1.4405e-15
    outer loop
      vertex -14.335 -15.9226 10.6392
      vertex -14.335 -15.359 11.3992
      vertex -14.335 -1.3487e-07 -3.95981
    endloop
  endfacet
  facet normal -1 2.21982e-16 5.37781e-16
    outer loop
      vertex -14.335 -18.7691 3.7876
      vertex -14.335 -1.3487e-07 -3.95981
      vertex -14.335 -21.1071 1.44956
    endloop
  endfacet
  facet normal -1 2.65624e-16 1.97e-16
    outer loop
      vertex -14.335 -1.3487e-07 -3.95981
      vertex -14.335 15.359 11.3992
      vertex -14.335 15.9226 10.6392
    endloop
  endfacet
  facet normal -1 2.87985e-16 1.72611e-16
    outer loop
      vertex -14.335 -1.3487e-07 -3.95981
      vertex -14.335 15.9226 10.6392
      vertex -14.335 16.8888 9.02725
    endloop
  endfacet
  facet normal -1 3.08513e-16 1.45916e-16
    outer loop
      vertex -14.335 -1.3487e-07 -3.95981
      vertex -14.335 16.8888 9.02725
      vertex -14.335 17.6923 7.32839
    endloop
  endfacet
  facet normal -1 -1.94508e-16 9.34315e-16
    outer loop
      vertex -14.335 -1.3487e-07 -3.95981
      vertex -14.335 17.6923 7.32839
      vertex -14.335 18.3254 5.55895
    endloop
  endfacet
  facet normal -1 2.57322e-16 6.44558e-17
    outer loop
      vertex -14.335 -1.3487e-07 -3.95981
      vertex -14.335 18.3254 5.55895
      vertex -14.335 18.7691 3.7876
    endloop
  endfacet
  facet normal -1 2.00972e-16 2.00972e-16
    outer loop
      vertex -14.335 -1.3487e-07 -3.95981
      vertex -14.335 18.7691 3.7876
      vertex -14.335 21.1071 1.44956
    endloop
  endfacet
  facet normal -1 1.34651e-16 4.59754e-16
    outer loop
      vertex -14.335 -1.3487e-07 -3.95981
      vertex -14.335 21.1071 1.44956
      vertex -14.335 3.17636 -16.4812
    endloop
  endfacet
  facet normal -1 1.81436e-16 3.79571e-16
    outer loop
      vertex -14.335 -1.3487e-07 -3.95981
      vertex -14.335 -3.17636 -16.4812
      vertex -14.335 -21.1071 1.44956
    endloop
  endfacet
  facet normal -1 0 4.25596e-16
    outer loop
      vertex -14.335 3.17636 -16.4812
      vertex -14.335 -3.17636 -16.4812
      vertex -14.335 -1.3487e-07 -3.95981
    endloop
  endfacet
  facet normal -1 -3.60634e-16 3.60634e-16
    outer loop
      vertex -14.335 -9.29845 -13.2583
      vertex -14.335 -7.59576 -16.4812
      vertex -14.335 -10.0586 -14.0184
    endloop
  endfacet
  facet normal -1 0 5.51156e-16
    outer loop
      vertex -14.335 -9.29845 -13.2583
      vertex -14.335 -6.07548 -16.4812
      vertex -14.335 -7.59576 -16.4812
    endloop
  endfacet
  facet normal 6.71025e-16 0.707107 -0.707107
    outer loop
      vertex -16.285 15.359 11.3992
      vertex -14.335 -1.3487e-07 -3.95981
      vertex -16.285 -1.3487e-07 -3.95981
    endloop
  endfacet
  facet normal 0 0.707107 -0.707107
    outer loop
      vertex -16.285 15.359 11.3992
      vertex -14.335 15.359 11.3992
      vertex -14.335 -1.3487e-07 -3.95981
    endloop
  endfacet
  facet normal -6.35549e-16 0.707107 -0.707107
    outer loop
      vertex -16.285 -9.29845 -13.2583
      vertex -14.335 -10.0586 -14.0184
      vertex -16.285 -10.0586 -14.0184
    endloop
  endfacet
  facet normal 0 0.707107 -0.707107
    outer loop
      vertex -16.285 -9.29845 -13.2583
      vertex -14.335 -9.29845 -13.2583
      vertex -14.335 -10.0586 -14.0184
    endloop
  endfacet
  facet normal 1 0 0
    outer loop
      vertex -16.285 9.29845 -13.2583
      vertex -16.285 6.71 -16.4812
      vertex -16.285 7.59576 -16.4812
    endloop
  endfacet
  facet normal 1 0 0
    outer loop
      vertex -16.285 10.0586 -14.0184
      vertex -16.285 9.29845 -13.2583
      vertex -16.285 7.59576 -16.4812
    endloop
  endfacet
  facet normal 1 -2.67962e-16 -2.67962e-16
    outer loop
      vertex -16.285 22.5567 1.15459e-15
      vertex -16.285 18.7691 3.7876
      vertex -16.285 9.29845 -13.2583
    endloop
  endfacet
  facet normal 1 2.11896e-16 -1.7018e-16
    outer loop
      vertex -16.285 -1.3487e-07 -3.95981
      vertex -16.285 6.71 -16.4812
      vertex -16.285 9.29845 -13.2583
    endloop
  endfacet
  facet normal 1 -2.2349e-17 -4.04425e-16
    outer loop
      vertex -16.285 18.7691 3.7876
      vertex -16.285 -1.3487e-07 -3.95981
      vertex -16.285 9.29845 -13.2583
    endloop
  endfacet
  facet normal 1 -1.71548e-16 -4.29705e-17
    outer loop
      vertex -16.285 18.3254 5.55895
      vertex -16.285 -1.3487e-07 -3.95981
      vertex -16.285 18.7691 3.7876
    endloop
  endfacet
  facet normal 1 7.15985e-16 -1.75164e-15
    outer loop
      vertex -16.285 17.6923 7.32839
      vertex -16.285 -1.3487e-07 -3.95981
      vertex -16.285 18.3254 5.55895
    endloop
  endfacet
  facet normal 1 -3.08513e-16 -1.45916e-16
    outer loop
      vertex -16.285 16.8888 9.02725
      vertex -16.285 -1.3487e-07 -3.95981
      vertex -16.285 17.6923 7.32839
    endloop
  endfacet
  facet normal 1 -2.87985e-16 -1.72611e-16
    outer loop
      vertex -16.285 15.9226 10.6392
      vertex -16.285 -1.3487e-07 -3.95981
      vertex -16.285 16.8888 9.02725
    endloop
  endfacet
  facet normal 1 -2.65624e-16 -1.97e-16
    outer loop
      vertex -16.285 15.359 11.3992
      vertex -16.285 -1.3487e-07 -3.95981
      vertex -16.285 15.9226 10.6392
    endloop
  endfacet
  facet normal 1 -2.48341e-16 -4.16813e-16
    outer loop
      vertex -16.285 -7.59576 -16.4812
      vertex -16.285 6.71 -16.4812
      vertex -16.285 -1.3487e-07 -3.95981
    endloop
  endfacet
  facet normal 1 -2.55118e-15 -2.78249e-15
    outer loop
      vertex -16.285 -15.359 11.3992
      vertex -16.285 -15.9226 10.6392
      vertex -16.285 -1.3487e-07 -3.95981
    endloop
  endfacet
  facet normal 1 0 0
    outer loop
      vertex -16.285 -15.9226 10.6392
      vertex -16.285 -16.8888 9.02725
      vertex -16.285 -1.3487e-07 -3.95981
    endloop
  endfacet
  facet normal 1 0 0
    outer loop
      vertex -16.285 -16.8888 9.02725
      vertex -16.285 -17.6923 7.32839
      vertex -16.285 -1.3487e-07 -3.95981
    endloop
  endfacet
  facet normal 1 0 0
    outer loop
      vertex -16.285 -17.6923 7.32839
      vertex -16.285 -18.3254 5.55895
      vertex -16.285 -1.3487e-07 -3.95981
    endloop
  endfacet
  facet normal 1 0 0
    outer loop
      vertex -16.285 -18.3254 5.55895
      vertex -16.285 -18.7691 3.7876
      vertex -16.285 -1.3487e-07 -3.95981
    endloop
  endfacet
  facet normal 1 -2.23264e-16 -5.40887e-16
    outer loop
      vertex -16.285 -18.7691 3.7876
      vertex -16.285 -9.29845 -13.2583
      vertex -16.285 -1.3487e-07 -3.95981
    endloop
  endfacet
  facet normal 1 -3.35012e-16 -6.02974e-16
    outer loop
      vertex -16.285 -22.5567 -1.3487e-07
      vertex -16.285 -9.29845 -13.2583
      vertex -16.285 -18.7691 3.7876
    endloop
  endfacet
  facet normal 1 -5.00002e-16 -2.6415e-16
    outer loop
      vertex -16.285 -7.59576 -16.4812
      vertex -16.285 -1.3487e-07 -3.95981
      vertex -16.285 -9.29845 -13.2583
    endloop
  endfacet
  facet normal 1 -0 0
    outer loop
      vertex -16.285 -10.0586 -14.0184
      vertex -16.285 -7.59576 -16.4812
      vertex -16.285 -9.29845 -13.2583
    endloop
  endfacet
  facet normal 6.44136e-16 -0.707107 0.707107
    outer loop
      vertex -2.865 9.29845 -13.2583
      vertex -2.865 22.5567 -1.82525e-15
      vertex -4.81501 9.29845 -13.2583
    endloop
  endfacet
  facet normal 1.57009e-16 -0.707107 0.707107
    outer loop
      vertex -2.865 22.5567 -1.82525e-15
      vertex -16.285 22.5567 1.15459e-15
      vertex -4.81501 9.29845 -13.2583
    endloop
  endfacet
  facet normal 1.31941e-16 -0.707107 0.707107
    outer loop
      vertex -14.335 6.07548 -16.4812
      vertex -4.81501 6.07548 -16.4812
      vertex -14.335 9.29845 -13.2583
    endloop
  endfacet
  facet normal 1.31941e-16 -0.707107 0.707107
    outer loop
      vertex -14.335 9.29845 -13.2583
      vertex -4.81501 9.29845 -13.2583
      vertex -16.285 22.5567 1.15459e-15
    endloop
  endfacet
  facet normal 0 -0.707107 0.707107
    outer loop
      vertex -16.285 9.29845 -13.2583
      vertex -14.335 9.29845 -13.2583
      vertex -16.285 22.5567 1.15459e-15
    endloop
  endfacet
  facet normal 1.31941e-16 -0.707107 0.707107
    outer loop
      vertex -14.335 9.29845 -13.2583
      vertex -4.81501 6.07548 -16.4812
      vertex -4.81501 9.29845 -13.2583
    endloop
  endfacet
  facet normal -1 1.17263e-16 3.5173e-16
    outer loop
      vertex -2.865 -9.29845 -13.2583
      vertex -2.865 -22.5567 -1.3487e-07
      vertex -2.865 -18.7691 3.7876
    endloop
  endfacet
  facet normal -1 1.53494e-16 3.7186e-16
    outer loop
      vertex -2.865 -9.29845 -13.2583
      vertex -2.865 -18.7691 3.7876
      vertex -2.865 -1.3487e-07 -3.95981
    endloop
  endfacet
  facet normal -1 1.87576e-16 4.54427e-16
    outer loop
      vertex -2.865 -18.7691 3.7876
      vertex -2.865 -18.3254 5.55895
      vertex -2.865 -1.3487e-07 -3.95981
    endloop
  endfacet
  facet normal -1 1.78996e-16 4.3791e-16
    outer loop
      vertex -2.865 -18.3254 5.55895
      vertex -2.865 -17.6923 7.32839
      vertex -2.865 -1.3487e-07 -3.95981
    endloop
  endfacet
  facet normal -1 5.09928e-17 2.37287e-16
    outer loop
      vertex -2.865 -17.6923 7.32839
      vertex -2.865 -16.8888 9.02725
      vertex -2.865 -1.3487e-07 -3.95981
    endloop
  endfacet
  facet normal -1 2.00037e-16 4.31108e-16
    outer loop
      vertex -2.865 -16.8888 9.02725
      vertex -2.865 -15.9226 10.6392
      vertex -2.865 -1.3487e-07 -3.95981
    endloop
  endfacet
  facet normal -1 2.02687e-16 4.33999e-16
    outer loop
      vertex -2.865 -15.9226 10.6392
      vertex -2.865 -15.359 11.3992
      vertex -2.865 -1.3487e-07 -3.95981
    endloop
  endfacet
  facet normal -1 2.01952e-16 3.82269e-16
    outer loop
      vertex -2.865 -9.29845 -13.2583
      vertex -2.865 -7.59576 -16.4812
      vertex -2.865 -10.0586 -14.0184
    endloop
  endfacet
  facet normal -1 -2.0071e-17 5.69436e-16
    outer loop
      vertex -2.865 -1.3487e-07 -3.95981
      vertex -2.865 15.359 11.3992
      vertex -2.865 15.9226 10.6392
    endloop
  endfacet
  facet normal -1 1.38524e-16 3.8683e-16
    outer loop
      vertex -2.865 -1.3487e-07 -3.95981
      vertex -2.865 -6.71 -16.4812
      vertex -2.865 -9.29845 -13.2583
    endloop
  endfacet
  facet normal -1 1.60968e-16 3.71983e-16
    outer loop
      vertex -2.865 15.9226 10.6392
      vertex -2.865 16.8888 9.02725
      vertex -2.865 -1.3487e-07 -3.95981
    endloop
  endfacet
  facet normal -1 1.80392e-16 3.46723e-16
    outer loop
      vertex -2.865 16.8888 9.02725
      vertex -2.865 17.6923 7.32839
      vertex -2.865 -1.3487e-07 -3.95981
    endloop
  endfacet
  facet normal -1 1.96599e-16 3.21322e-16
    outer loop
      vertex -2.865 17.6923 7.32839
      vertex -2.865 18.3254 5.55895
      vertex -2.865 -1.3487e-07 -3.95981
    endloop
  endfacet
  facet normal -1 9.11897e-17 5.24254e-16
    outer loop
      vertex -2.865 18.3254 5.55895
      vertex -2.865 18.7691 3.7876
      vertex -2.865 -1.3487e-07 -3.95981
    endloop
  endfacet
  facet normal -1 1.47949e-16 3.86747e-16
    outer loop
      vertex -2.865 18.7691 3.7876
      vertex -2.865 9.29845 -13.2583
      vertex -2.865 -1.3487e-07 -3.95981
    endloop
  endfacet
  facet normal -1 1.50714e-16 3.85211e-16
    outer loop
      vertex -2.865 22.5567 -1.82525e-15
      vertex -2.865 9.29845 -13.2583
      vertex -2.865 18.7691 3.7876
    endloop
  endfacet
  facet normal -1 1.14225e-16 3.53022e-16
    outer loop
      vertex -2.865 9.29845 -13.2583
      vertex -2.865 7.59576 -16.4812
      vertex -2.865 -1.3487e-07 -3.95981
    endloop
  endfacet
  facet normal -1 2.70475e-16 2.70475e-16
    outer loop
      vertex -2.865 10.0586 -14.0184
      vertex -2.865 7.59576 -16.4812
      vertex -2.865 9.29845 -13.2583
    endloop
  endfacet
  facet normal -1 1.55213e-16 3.77887e-16
    outer loop
      vertex -2.865 7.59576 -16.4812
      vertex -2.865 -6.71 -16.4812
      vertex -2.865 -1.3487e-07 -3.95981
    endloop
  endfacet
  facet normal -1 0 2.75578e-16
    outer loop
      vertex -2.865 -6.71 -16.4812
      vertex -2.865 -7.59576 -16.4812
      vertex -2.865 -9.29845 -13.2583
    endloop
  endfacet
  facet normal 6.44136e-16 -0.707107 0.707107
    outer loop
      vertex -4.81501 10.0586 -14.0184
      vertex -2.865 7.59576 -16.4812
      vertex -2.865 10.0586 -14.0184
    endloop
  endfacet
  facet normal 0 -0.707107 0.707107
    outer loop
      vertex -4.81501 10.0586 -14.0184
      vertex -4.81501 7.59576 -16.4812
      vertex -2.865 7.59576 -16.4812
    endloop
  endfacet
  facet normal 0 -0.707107 0.707107
    outer loop
      vertex -16.285 10.0586 -14.0184
      vertex -14.335 7.59576 -16.4812
      vertex -14.335 10.0586 -14.0184
    endloop
  endfacet
  facet normal 2.61546e-16 -0.707107 0.707107
    outer loop
      vertex -16.285 10.0586 -14.0184
      vertex -16.285 7.59576 -16.4812
      vertex -14.335 7.59576 -16.4812
    endloop
  endfacet
  facet normal -6.44136e-16 -0.707107 -0.707107
    outer loop
      vertex -4.81501 9.29845 -13.2583
      vertex -4.81501 10.0586 -14.0184
      vertex -2.865 9.29845 -13.2583
    endloop
  endfacet
  facet normal -6.35544e-16 -0.707107 -0.707107
    outer loop
      vertex -2.865 9.29845 -13.2583
      vertex -4.81501 10.0586 -14.0184
      vertex -2.865 10.0586 -14.0184
    endloop
  endfacet
  facet normal 0 -0.707107 -0.707107
    outer loop
      vertex -4.81501 -1.3487e-07 -3.95981
      vertex -2.865 -15.359 11.3992
      vertex -4.81501 -15.359 11.3992
    endloop
  endfacet
  facet normal -4.33091e-16 -0.707107 -0.707107
    outer loop
      vertex -4.81501 -1.3487e-07 -3.95981
      vertex -2.865 -1.3487e-07 -3.95981
      vertex -2.865 -15.359 11.3992
    endloop
  endfacet
  facet normal -2.35467e-16 -0.707107 -0.707107
    outer loop
      vertex -6.39864 -3.17636 -16.4812
      vertex -4.81501 -21.1071 1.44956
      vertex -14.335 -21.1071 1.44956
    endloop
  endfacet
  facet normal -3.9567e-16 -0.707107 -0.707107
    outer loop
      vertex -14.335 -3.17636 -16.4812
      vertex -6.39864 -3.17636 -16.4812
      vertex -14.335 -21.1071 1.44956
    endloop
  endfacet
  facet normal -3.96582e-16 -0.707107 -0.707107
    outer loop
      vertex -6.39864 -3.17636 -16.4812
      vertex -4.81501 -3.17636 -16.4812
      vertex -4.81501 -21.1071 1.44956
    endloop
  endfacet
  facet normal 0 -0.707107 -0.707107
    outer loop
      vertex -16.285 9.29845 -13.2583
      vertex -16.285 10.0586 -14.0184
      vertex -14.335 9.29845 -13.2583
    endloop
  endfacet
  facet normal 0 -0.707107 -0.707107
    outer loop
      vertex -14.335 9.29845 -13.2583
      vertex -16.285 10.0586 -14.0184
      vertex -14.335 10.0586 -14.0184
    endloop
  endfacet
  facet normal 0 -0.707107 -0.707107
    outer loop
      vertex -16.285 -1.3487e-07 -3.95981
      vertex -14.335 -15.359 11.3992
      vertex -16.285 -15.359 11.3992
    endloop
  endfacet
  facet normal -4.33093e-16 -0.707107 -0.707107
    outer loop
      vertex -16.285 -1.3487e-07 -3.95981
      vertex -14.335 -1.3487e-07 -3.95981
      vertex -14.335 -15.359 11.3992
    endloop
  endfacet
  facet normal 0 0.707107 0.707107
    outer loop
      vertex -14.335 -9.29845 -13.2583
      vertex -16.285 -9.29845 -13.2583
      vertex -16.285 -22.5567 -1.3487e-07
    endloop
  endfacet
  facet normal 3.95822e-16 0.707107 0.707107
    outer loop
      vertex -14.335 -9.29845 -13.2583
      vertex -16.285 -22.5567 -1.3487e-07
      vertex -4.81501 -9.29845 -13.2583
    endloop
  endfacet
  facet normal 3.95822e-16 0.707107 0.707107
    outer loop
      vertex -4.81501 -9.29845 -13.2583
      vertex -4.81501 -6.07548 -16.4812
      vertex -14.335 -9.29845 -13.2583
    endloop
  endfacet
  facet normal 4.55226e-16 0.707107 0.707107
    outer loop
      vertex -2.865 -22.5567 -1.3487e-07
      vertex -4.81501 -9.29845 -13.2583
      vertex -16.285 -22.5567 -1.3487e-07
    endloop
  endfacet
  facet normal 7.77341e-16 0.707107 0.707107
    outer loop
      vertex -2.865 -22.5567 -1.3487e-07
      vertex -2.865 -9.29845 -13.2583
      vertex -4.81501 -9.29845 -13.2583
    endloop
  endfacet
  facet normal 3.68439e-16 0.707107 0.707107
    outer loop
      vertex -14.335 -9.29845 -13.2583
      vertex -4.81501 -6.07548 -16.4812
      vertex -14.335 -6.07548 -16.4812
    endloop
  endfacet
  facet normal 1.90314e-16 0.707107 0.707107
    outer loop
      vertex -2.66916e-16 -1.06066 -1.20208
      vertex -5.0243e-16 7.6442e-16 -2.26274
      vertex -1.65 -1.06066 -1.20208
    endloop
  endfacet
  facet normal 1.6233e-16 0.707107 0.707107
    outer loop
      vertex -1.65 -1.06066 -1.20208
      vertex -5.0243e-16 7.6442e-16 -2.26274
      vertex -19.15 7.6442e-16 -2.26274
    endloop
  endfacet
  facet normal 1.90314e-16 0.707107 0.707107
    outer loop
      vertex -17.5 -1.06066 -1.20208
      vertex -19.15 7.6442e-16 -2.26274
      vertex -19.15 -1.06066 -1.20208
    endloop
  endfacet
  facet normal 1.58495e-16 0.707107 0.707107
    outer loop
      vertex -1.65 -1.06066 -1.20208
      vertex -19.15 7.6442e-16 -2.26274
      vertex -17.5 -1.06066 -1.20208
    endloop
  endfacet
  facet normal 1.58495e-16 0.707107 0.707107
    outer loop
      vertex -17.5 -1.06066 -1.20208
      vertex -17.5 -14.6169 12.3541
      vertex -1.65 -1.06066 -1.20208
    endloop
  endfacet
  facet normal 1.58495e-16 0.707107 0.707107
    outer loop
      vertex -17.5 -14.6169 12.3541
      vertex -1.65 -14.6169 12.3541
      vertex -1.65 -1.06066 -1.20208
    endloop
  endfacet
  facet normal 1.58495e-16 -0.707107 0.707107
    outer loop
      vertex -1.65 14.6169 12.3541
      vertex -17.5 14.6169 12.3541
      vertex -1.65 1.13137 -1.13137
    endloop
  endfacet
  facet normal 1.88048e-16 -0.707107 0.707107
    outer loop
      vertex -17.5 14.6169 12.3541
      vertex -17.5 1.13137 -1.13137
      vertex -1.65 1.13137 -1.13137
    endloop
  endfacet
  facet normal 8.41078e-17 -0.707107 0.707107
    outer loop
      vertex -5.0243e-16 7.6442e-16 -2.26274
      vertex -2.51215e-16 1.13137 -1.13137
      vertex -1.65 1.13137 -1.13137
    endloop
  endfacet
  facet normal 1.90314e-16 -0.707107 0.707107
    outer loop
      vertex -19.15 1.13137 -1.13137
      vertex -19.15 7.6442e-16 -2.26274
      vertex -17.5 1.13137 -1.13137
    endloop
  endfacet
  facet normal 1.66358e-16 -0.707107 0.707107
    outer loop
      vertex -19.15 7.6442e-16 -2.26274
      vertex -1.65 1.13137 -1.13137
      vertex -17.5 1.13137 -1.13137
    endloop
  endfacet
  facet normal 1.63978e-16 -0.707107 0.707107
    outer loop
      vertex -5.0243e-16 7.6442e-16 -2.26274
      vertex -1.65 1.13137 -1.13137
      vertex -19.15 7.6442e-16 -2.26274
    endloop
  endfacet
  facet normal -1.58495e-16 -0.707107 -0.707107
    outer loop
      vertex -1.65 -23.6881 -1.13137
      vertex -17.5 -23.6881 -1.13137
      vertex -17.5 -12.339 -12.4804
    endloop
  endfacet
  facet normal -1.58495e-16 -0.707107 -0.707107
    outer loop
      vertex -1.65 -12.339 -12.4804
      vertex -1.65 -23.6881 -1.13137
      vertex -17.5 -12.339 -12.4804
    endloop
  endfacet
  facet normal 0 0 -1
    outer loop
      vertex -12.7514 3.17636 -16.4812
      vertex -4.81501 3.17636 -16.4812
      vertex -6.39864 -3.17636 -16.4812
    endloop
  endfacet
  facet normal 0 0 -1
    outer loop
      vertex -6.39864 -3.17636 -16.4812
      vertex -4.81501 3.17636 -16.4812
      vertex -4.81501 -3.17636 -16.4812
    endloop
  endfacet
  facet normal 0 0 -1
    outer loop
      vertex -14.335 7.59576 -16.4812
      vertex -4.81501 7.59576 -16.4812
      vertex -4.81501 6.07548 -16.4812
    endloop
  endfacet
  facet normal 0 0 -1
    outer loop
      vertex -14.335 7.59576 -16.4812
      vertex -4.81501 6.07548 -16.4812
      vertex -14.335 6.07548 -16.4812
    endloop
  endfacet
  facet normal 0 0 -1
    outer loop
      vertex -2.865 7.59576 -16.4812
      vertex -4.81501 7.59576 -16.4812
      vertex -3.65957e-15 9.70724 -16.4812
    endloop
  endfacet
  facet normal -0 0 -1
    outer loop
      vertex -4.81501 7.59576 -16.4812
      vertex -14.335 7.59576 -16.4812
      vertex -19.15 9.70724 -16.4812
    endloop
  endfacet
  facet normal 0 0 -1
    outer loop
      vertex -19.15 9.575 -16.4812
      vertex -16.285 7.59576 -16.4812
      vertex -16.285 6.71 -16.4812
    endloop
  endfacet
  facet normal -0 0 -1
    outer loop
      vertex -14.335 7.59576 -16.4812
      vertex -16.285 7.59576 -16.4812
      vertex -19.15 9.70724 -16.4812
    endloop
  endfacet
  facet normal 0 0 -1
    outer loop
      vertex -16.285 7.59576 -16.4812
      vertex -19.15 9.575 -16.4812
      vertex -19.15 9.70724 -16.4812
    endloop
  endfacet
  facet normal 0 0 -1
    outer loop
      vertex -4.81501 7.59576 -16.4812
      vertex -19.15 9.70724 -16.4812
      vertex -3.65957e-15 9.70724 -16.4812
    endloop
  endfacet
  facet normal 0 -0 -1
    outer loop
      vertex -2.865 7.59576 -16.4812
      vertex -3.65957e-15 9.70724 -16.4812
      vertex -2.865 -6.71 -16.4812
    endloop
  endfacet
  facet normal 0 -0 -1
    outer loop
      vertex -3.65957e-15 9.70724 -16.4812
      vertex -3.65957e-15 -9.575 -16.4812
      vertex -2.865 -6.71 -16.4812
    endloop
  endfacet
  facet normal 0 0 -1
    outer loop
      vertex -19.15 9.575 -16.4812
      vertex -16.285 6.71 -16.4812
      vertex -19.15 -9.70724 -16.4812
    endloop
  endfacet
  facet normal 0 0 -1
    outer loop
      vertex -19.15 -9.70724 -16.4812
      vertex -16.285 6.71 -16.4812
      vertex -16.285 -7.59576 -16.4812
    endloop
  endfacet
  facet normal 0 0 -1
    outer loop
      vertex -19.15 -9.70724 -16.4812
      vertex -16.285 -7.59576 -16.4812
      vertex -14.335 -7.59576 -16.4812
    endloop
  endfacet
  facet normal 0 0 -1
    outer loop
      vertex -14.335 -7.59576 -16.4812
      vertex -14.335 -6.07548 -16.4812
      vertex -4.81501 -6.07548 -16.4812
    endloop
  endfacet
  facet normal 0 -0 -1
    outer loop
      vertex -14.335 -7.59576 -16.4812
      vertex -4.81501 -7.59576 -16.4812
      vertex -19.15 -9.70724 -16.4812
    endloop
  endfacet
  facet normal 0 0 -1
    outer loop
      vertex -14.335 -7.59576 -16.4812
      vertex -4.81501 -6.07548 -16.4812
      vertex -4.81501 -7.59576 -16.4812
    endloop
  endfacet
  facet normal 0 -0 -1
    outer loop
      vertex -4.81501 -7.59576 -16.4812
      vertex -3.65957e-15 -9.70724 -16.4812
      vertex -19.15 -9.70724 -16.4812
    endloop
  endfacet
  facet normal 0 0 -1
    outer loop
      vertex -2.865 -7.59576 -16.4812
      vertex -2.865 -6.71 -16.4812
      vertex -3.65957e-15 -9.575 -16.4812
    endloop
  endfacet
  facet normal -0 -0 -1
    outer loop
      vertex -2.865 -7.59576 -16.4812
      vertex -3.65957e-15 -9.70724 -16.4812
      vertex -4.81501 -7.59576 -16.4812
    endloop
  endfacet
  facet normal 0 0 -1
    outer loop
      vertex -2.865 -7.59576 -16.4812
      vertex -3.65957e-15 -9.575 -16.4812
      vertex -3.65957e-15 -9.70724 -16.4812
    endloop
  endfacet
  facet normal 0 0 -1
    outer loop
      vertex -14.335 3.17636 -16.4812
      vertex -12.7514 3.17636 -16.4812
      vertex -14.335 -3.17636 -16.4812
    endloop
  endfacet
  facet normal 0 0 -1
    outer loop
      vertex -14.335 -3.17636 -16.4812
      vertex -12.7514 3.17636 -16.4812
      vertex -6.39864 -3.17636 -16.4812
    endloop
  endfacet
endsolid OpenSCAD_Model
