solid OpenSCAD_Model
  facet normal -0.991445 -0.130526 0
    outer loop
      vertex -14 -10 -5.05
      vertex -13.8637 -11.0353 -5.05
      vertex -14 -10 5.05
    endloop
  endfacet
  facet normal -0.991445 -0.130526 0
    outer loop
      vertex -14 -10 5.05
      vertex -13.8637 -11.0353 -5.05
      vertex -13.8637 -11.0353 5.05
    endloop
  endfacet
  facet normal 0 0 -1
    outer loop
      vertex -14 -10 -5.05
      vertex -14 10 -5.05
      vertex -13.8637 -11.0353 -5.05
    endloop
  endfacet
  facet normal 0 0 -1
    outer loop
      vertex -13.8637 -11.0353 -5.05
      vertex -14 10 -5.05
      vertex -13.8637 11.0353 -5.05
    endloop
  endfacet
  facet normal 0 0 -1
    outer loop
      vertex -13.8637 -11.0353 -5.05
      vertex -13.8637 11.0353 -5.05
      vertex -13.4641 12 -5.05
    endloop
  endfacet
  facet normal 0 0 -1
    outer loop
      vertex -13.8637 -11.0353 -5.05
      vertex -13.4641 12 -5.05
      vertex -12.8284 12.8284 -5.05
    endloop
  endfacet
  facet normal 0 0 -1
    outer loop
      vertex -13.8637 -11.0353 -5.05
      vertex -12.8284 12.8284 -5.05
      vertex -12 13.4641 -5.05
    endloop
  endfacet
  facet normal 0 0 -1
    outer loop
      vertex -13.8637 -11.0353 -5.05
      vertex -12 13.4641 -5.05
      vertex -11.0353 13.8637 -5.05
    endloop
  endfacet
  facet normal 0 0 -1
    outer loop
      vertex -12.1 4 -5.05
      vertex -11.0353 13.8637 -5.05
      vertex -10 14 -5.05
    endloop
  endfacet
  facet normal 0 0 -1
    outer loop
      vertex -10.3 4 -5.05
      vertex -10 14 -5.05
      vertex -4.08459 14 -5.05
    endloop
  endfacet
  facet normal 0 0 -1
    outer loop
      vertex 4.08459 6.5 -5.05
      vertex -3.70001 4 -5.05
      vertex -4.08459 6.5 -5.05
    endloop
  endfacet
  facet normal 0 0 -1
    outer loop
      vertex 4.08459 7 -5.05
      vertex 10 14 -5.05
      vertex 11.0353 13.8637 -5.05
    endloop
  endfacet
  facet normal 0 0 -1
    outer loop
      vertex 4.08459 6.5 -5.05
      vertex 11.0353 13.8637 -5.05
      vertex 12 13.4641 -5.05
    endloop
  endfacet
  facet normal 0 0 -1
    outer loop
      vertex 4 5.1 -5.05
      vertex 12 13.4641 -5.05
      vertex 12.8284 12.8284 -5.05
    endloop
  endfacet
  facet normal 0 0 -1
    outer loop
      vertex -10.3 4 -5.05
      vertex -4.08459 7 -5.05
      vertex -4.08459 6.5 -5.05
    endloop
  endfacet
  facet normal 0 0 -1
    outer loop
      vertex -4.08459 7 -5.05
      vertex 4.08459 14 -5.05
      vertex 10 14 -5.05
    endloop
  endfacet
  facet normal 0 0 -1
    outer loop
      vertex -4.08459 7 -5.05
      vertex -4.08459 14 -5.05
      vertex 4.08459 14 -5.05
    endloop
  endfacet
  facet normal 0 0 -1
    outer loop
      vertex -1.9 4 -5.05
      vertex 4 3.29999 -5.05
      vertex 4 -3.30001 -5.05
    endloop
  endfacet
  facet normal 0 0 -1
    outer loop
      vertex -1.9 4 -5.05
      vertex 4 5.1 -5.05
      vertex 4 3.29999 -5.05
    endloop
  endfacet
  facet normal 0 0 -1
    outer loop
      vertex -10.3 4 -5.05
      vertex -4.08459 14 -5.05
      vertex -4.08459 7 -5.05
    endloop
  endfacet
  facet normal 0 0 -1
    outer loop
      vertex -10.3 4 -5.05
      vertex -4.08459 6.5 -5.05
      vertex -3.70001 4 -5.05
    endloop
  endfacet
  facet normal 0 0 -1
    outer loop
      vertex 4.08459 7 -5.05
      vertex 11.0353 13.8637 -5.05
      vertex 4.08459 6.5 -5.05
    endloop
  endfacet
  facet normal 0 0 -1
    outer loop
      vertex 4 -3.30001 -5.05
      vertex 14 3.29999 -5.05
      vertex 14 -3.30001 -5.05
    endloop
  endfacet
  facet normal 0 0 -1
    outer loop
      vertex -1.9 4 -5.05
      vertex 4.08459 6.5 -5.05
      vertex 4 5.1 -5.05
    endloop
  endfacet
  facet normal 0 0 -1
    outer loop
      vertex -12.1 4 -5.05
      vertex -10 14 -5.05
      vertex -10.3 4 -5.05
    endloop
  endfacet
  facet normal 0 0 -1
    outer loop
      vertex -1.9 -9 -5.05
      vertex 14 -5.1 -5.05
      vertex 14 -10 -5.05
    endloop
  endfacet
  facet normal 0 0 -1
    outer loop
      vertex -13.8637 -11.0353 -5.05
      vertex 14 -10 -5.05
      vertex 13.8637 -11.0353 -5.05
    endloop
  endfacet
  facet normal 0 0 -1
    outer loop
      vertex -13.8637 -11.0353 -5.05
      vertex 13.8637 -11.0353 -5.05
      vertex 13.4641 -12 -5.05
    endloop
  endfacet
  facet normal 0 0 -1
    outer loop
      vertex -13.8637 -11.0353 -5.05
      vertex 13.4641 -12 -5.05
      vertex 12.8284 -12.8284 -5.05
    endloop
  endfacet
  facet normal 0 0 -1
    outer loop
      vertex -13.8637 -11.0353 -5.05
      vertex 12.8284 -12.8284 -5.05
      vertex 12 -13.4641 -5.05
    endloop
  endfacet
  facet normal 0 0 -1
    outer loop
      vertex -13.8637 -11.0353 -5.05
      vertex 12 -13.4641 -5.05
      vertex 11.0353 -13.8637 -5.05
    endloop
  endfacet
  facet normal 0 0 -1
    outer loop
      vertex -13.8637 -11.0353 -5.05
      vertex 11.0353 -13.8637 -5.05
      vertex 10 -14 -5.05
    endloop
  endfacet
  facet normal 0 0 -1
    outer loop
      vertex -13.8637 -11.0353 -5.05
      vertex 10 -14 -5.05
      vertex -10 -14 -5.05
    endloop
  endfacet
  facet normal 0 0 -1
    outer loop
      vertex -13.8637 -11.0353 -5.05
      vertex -10 -14 -5.05
      vertex -11.0353 -13.8637 -5.05
    endloop
  endfacet
  facet normal 0 0 -1
    outer loop
      vertex -13.8637 -11.0353 -5.05
      vertex -11.0353 -13.8637 -5.05
      vertex -12 -13.4641 -5.05
    endloop
  endfacet
  facet normal 0 0 -1
    outer loop
      vertex -13.8637 -11.0353 -5.05
      vertex -12 -13.4641 -5.05
      vertex -12.8284 -12.8284 -5.05
    endloop
  endfacet
  facet normal 0 0 -1
    outer loop
      vertex -13.8637 -11.0353 -5.05
      vertex -12.8284 -12.8284 -5.05
      vertex -13.4641 -12 -5.05
    endloop
  endfacet
  facet normal 0 0 -1
    outer loop
      vertex -13.8637 -11.0353 -5.05
      vertex -11.0353 13.8637 -5.05
      vertex -12.1 4 -5.05
    endloop
  endfacet
  facet normal 0 0 -1
    outer loop
      vertex -12.1 -9 -5.05
      vertex -13.8637 -11.0353 -5.05
      vertex -12.1 4 -5.05
    endloop
  endfacet
  facet normal 0 0 -1
    outer loop
      vertex -4.08459 7 -5.05
      vertex 10 14 -5.05
      vertex 4.08459 7 -5.05
    endloop
  endfacet
  facet normal 0 0 -1
    outer loop
      vertex -1.9 -9 -5.05
      vertex -13.8637 -11.0353 -5.05
      vertex -12.1 -9 -5.05
    endloop
  endfacet
  facet normal 0 0 -1
    outer loop
      vertex -13.8637 -11.0353 -5.05
      vertex -1.9 -9 -5.05
      vertex 14 -10 -5.05
    endloop
  endfacet
  facet normal 0 0 -1
    outer loop
      vertex -3.70001 -7.10001 -5.05
      vertex -10.3 -7.10001 -5.05
      vertex -3.70001 4 -5.05
    endloop
  endfacet
  facet normal 0 0 -1
    outer loop
      vertex 4.08459 6.5 -5.05
      vertex -1.9 4 -5.05
      vertex -3.70001 4 -5.05
    endloop
  endfacet
  facet normal 0 0 -1
    outer loop
      vertex 4.08459 6.5 -5.05
      vertex 12 13.4641 -5.05
      vertex 4 5.1 -5.05
    endloop
  endfacet
  facet normal 0 0 -1
    outer loop
      vertex 4 -5.1 -5.05
      vertex 14 -5.1 -5.05
      vertex -1.9 -9 -5.05
    endloop
  endfacet
  facet normal 0 0 -1
    outer loop
      vertex -1.9 4 -5.05
      vertex 4 -3.30001 -5.05
      vertex 4 -5.1 -5.05
    endloop
  endfacet
  facet normal 0 0 -1
    outer loop
      vertex -1.9 4 -5.05
      vertex 4 -5.1 -5.05
      vertex -1.9 -9 -5.05
    endloop
  endfacet
  facet normal 0 0 -1
    outer loop
      vertex 4 5.1 -5.05
      vertex 12.8284 12.8284 -5.05
      vertex 13.4641 12 -5.05
    endloop
  endfacet
  facet normal 0 0 -1
    outer loop
      vertex 4 5.1 -5.05
      vertex 13.4641 12 -5.05
      vertex 13.8637 11.0353 -5.05
    endloop
  endfacet
  facet normal 0 0 -1
    outer loop
      vertex 4 5.1 -5.05
      vertex 13.8637 11.0353 -5.05
      vertex 14 10 -5.05
    endloop
  endfacet
  facet normal 0 0 -1
    outer loop
      vertex 4 5.1 -5.05
      vertex 14 10 -5.05
      vertex 14 5.1 -5.05
    endloop
  endfacet
  facet normal 0 0 -1
    outer loop
      vertex 4 3.29999 -5.05
      vertex 14 3.29999 -5.05
      vertex 4 -3.30001 -5.05
    endloop
  endfacet
  facet normal 0 0 -1
    outer loop
      vertex -10.3 4 -5.05
      vertex -3.70001 4 -5.05
      vertex -10.3 -7.10001 -5.05
    endloop
  endfacet
  facet normal -1 0 0
    outer loop
      vertex -14 -10 -5.05
      vertex -14 -10 5.05
      vertex -14 10 -5.05
    endloop
  endfacet
  facet normal -1 0 0
    outer loop
      vertex -14 10 -5.05
      vertex -14 -10 5.05
      vertex -14 10 5.05
    endloop
  endfacet
  facet normal 0 0 1
    outer loop
      vertex -14 10 5.05
      vertex -14 -10 5.05
      vertex -13.8637 -11.0353 5.05
    endloop
  endfacet
  facet normal 0 0 1
    outer loop
      vertex -12.8284 -12.8284 5.05
      vertex -14 10 5.05
      vertex -13.4641 -12 5.05
    endloop
  endfacet
  facet normal 0 0 1
    outer loop
      vertex -13.4641 -12 5.05
      vertex -14 10 5.05
      vertex -13.8637 -11.0353 5.05
    endloop
  endfacet
  facet normal 0 0 1
    outer loop
      vertex -12 -13.4641 5.05
      vertex -14 10 5.05
      vertex -12.8284 -12.8284 5.05
    endloop
  endfacet
  facet normal 0 0 1
    outer loop
      vertex -12.1 -9 5.05
      vertex -14 10 5.05
      vertex -12 -13.4641 5.05
    endloop
  endfacet
  facet normal 0 0 1
    outer loop
      vertex -10.3 4 5.05
      vertex -10.3 -7.10001 5.05
      vertex -3.70001 -7.10001 5.05
    endloop
  endfacet
  facet normal 0 0 1
    outer loop
      vertex -1.9 4 5.05
      vertex -1.9 -9 5.05
      vertex 4 -5.1 5.05
    endloop
  endfacet
  facet normal 0 0 1
    outer loop
      vertex 4 -5.1 5.05
      vertex -1.9 -9 5.05
      vertex 10 -14 5.05
    endloop
  endfacet
  facet normal 0 0 1
    outer loop
      vertex 4 -5.1 5.05
      vertex 10 -14 5.05
      vertex 11.0353 -13.8637 5.05
    endloop
  endfacet
  facet normal 0 0 1
    outer loop
      vertex -1.9 4 5.05
      vertex 4 -5.1 5.05
      vertex 4 -3.30001 5.05
    endloop
  endfacet
  facet normal 0 0 1
    outer loop
      vertex -3.70001 4 5.05
      vertex -1.9 4 5.05
      vertex -14 10 5.05
    endloop
  endfacet
  facet normal 0 0 1
    outer loop
      vertex -1.9 -9 5.05
      vertex -12.1 -9 5.05
      vertex -11.0353 -13.8637 5.05
    endloop
  endfacet
  facet normal 0 0 1
    outer loop
      vertex -4.08459 7 5.05
      vertex 4.08459 7 5.05
      vertex -14 10 5.05
    endloop
  endfacet
  facet normal 0 0 1
    outer loop
      vertex 13.4641 -12 5.05
      vertex 4 -5.1 5.05
      vertex 12.8284 -12.8284 5.05
    endloop
  endfacet
  facet normal 0 0 1
    outer loop
      vertex 4 -3.30001 5.05
      vertex 14 -3.30001 5.05
      vertex -1.9 4 5.05
    endloop
  endfacet
  facet normal 0 0 1
    outer loop
      vertex -1.9 -9 5.05
      vertex -11.0353 -13.8637 5.05
      vertex -10 -14 5.05
    endloop
  endfacet
  facet normal 0 0 1
    outer loop
      vertex 4 3.29999 5.05
      vertex -14 10 5.05
      vertex 14 -3.30001 5.05
    endloop
  endfacet
  facet normal 0 0 1
    outer loop
      vertex 14 3.29999 5.05
      vertex 4 3.29999 5.05
      vertex 14 -3.30001 5.05
    endloop
  endfacet
  facet normal 0 0 1
    outer loop
      vertex -4.08459 6.5 5.05
      vertex -14 10 5.05
      vertex 4 3.29999 5.05
    endloop
  endfacet
  facet normal 0 0 1
    outer loop
      vertex 13.8637 11.0353 5.05
      vertex -14 10 5.05
      vertex 14 10 5.05
    endloop
  endfacet
  facet normal 0 0 1
    outer loop
      vertex 13.4641 12 5.05
      vertex -14 10 5.05
      vertex 13.8637 11.0353 5.05
    endloop
  endfacet
  facet normal 0 0 1
    outer loop
      vertex 12.8284 12.8284 5.05
      vertex -14 10 5.05
      vertex 13.4641 12 5.05
    endloop
  endfacet
  facet normal 0 0 1
    outer loop
      vertex 12 13.4641 5.05
      vertex -14 10 5.05
      vertex 12.8284 12.8284 5.05
    endloop
  endfacet
  facet normal 0 0 1
    outer loop
      vertex 11.0353 13.8637 5.05
      vertex -14 10 5.05
      vertex 12 13.4641 5.05
    endloop
  endfacet
  facet normal 0 0 1
    outer loop
      vertex 10 14 5.05
      vertex -14 10 5.05
      vertex 11.0353 13.8637 5.05
    endloop
  endfacet
  facet normal 0 0 1
    outer loop
      vertex -10 14 5.05
      vertex -14 10 5.05
      vertex 10 14 5.05
    endloop
  endfacet
  facet normal 0 0 1
    outer loop
      vertex -11.0353 13.8637 5.05
      vertex -14 10 5.05
      vertex -10 14 5.05
    endloop
  endfacet
  facet normal 0 0 1
    outer loop
      vertex -12 13.4641 5.05
      vertex -14 10 5.05
      vertex -11.0353 13.8637 5.05
    endloop
  endfacet
  facet normal 0 0 1
    outer loop
      vertex -12.8284 12.8284 5.05
      vertex -14 10 5.05
      vertex -12 13.4641 5.05
    endloop
  endfacet
  facet normal 0 0 1
    outer loop
      vertex -13.4641 12 5.05
      vertex -14 10 5.05
      vertex -12.8284 12.8284 5.05
    endloop
  endfacet
  facet normal 0 0 1
    outer loop
      vertex -13.8637 11.0353 5.05
      vertex -14 10 5.05
      vertex -13.4641 12 5.05
    endloop
  endfacet
  facet normal 0 0 1
    outer loop
      vertex -11.0353 -13.8637 5.05
      vertex -12.1 -9 5.05
      vertex -12 -13.4641 5.05
    endloop
  endfacet
  facet normal 0 0 1
    outer loop
      vertex -10.3 4 5.05
      vertex -14 10 5.05
      vertex -12.1 4 5.05
    endloop
  endfacet
  facet normal 0 0 1
    outer loop
      vertex 4 -5.1 5.05
      vertex 11.0353 -13.8637 5.05
      vertex 12 -13.4641 5.05
    endloop
  endfacet
  facet normal 0 0 1
    outer loop
      vertex 4.08459 6.5 5.05
      vertex -4.08459 6.5 5.05
      vertex 4 5.1 5.05
    endloop
  endfacet
  facet normal 0 0 1
    outer loop
      vertex 4 -5.1 5.05
      vertex 12 -13.4641 5.05
      vertex 12.8284 -12.8284 5.05
    endloop
  endfacet
  facet normal 0 0 1
    outer loop
      vertex -10.3 4 5.05
      vertex -3.70001 4 5.05
      vertex -14 10 5.05
    endloop
  endfacet
  facet normal 0 0 1
    outer loop
      vertex 4 5.1 5.05
      vertex 14 5.1 5.05
      vertex 4.08459 6.5 5.05
    endloop
  endfacet
  facet normal 0 0 1
    outer loop
      vertex 14 -3.30001 5.05
      vertex -14 10 5.05
      vertex -1.9 4 5.05
    endloop
  endfacet
  facet normal 0 0 1
    outer loop
      vertex 4 5.1 5.05
      vertex -4.08459 6.5 5.05
      vertex 4 3.29999 5.05
    endloop
  endfacet
  facet normal 0 0 1
    outer loop
      vertex -4.08459 7 5.05
      vertex -14 10 5.05
      vertex -4.08459 6.5 5.05
    endloop
  endfacet
  facet normal 0 0 1
    outer loop
      vertex 4.08459 7 5.05
      vertex 4.08459 6.5 5.05
      vertex 14 5.1 5.05
    endloop
  endfacet
  facet normal 0 0 1
    outer loop
      vertex 14 10 5.05
      vertex 4.08459 7 5.05
      vertex 14 5.1 5.05
    endloop
  endfacet
  facet normal 0 0 1
    outer loop
      vertex 14 10 5.05
      vertex -14 10 5.05
      vertex 4.08459 7 5.05
    endloop
  endfacet
  facet normal 0 0 1
    outer loop
      vertex -12.1 -9 5.05
      vertex -12.1 4 5.05
      vertex -14 10 5.05
    endloop
  endfacet
  facet normal 0 0 1
    outer loop
      vertex -1.9 -9 5.05
      vertex -10 -14 5.05
      vertex 10 -14 5.05
    endloop
  endfacet
  facet normal 0 0 1
    outer loop
      vertex 14 -5.1 5.05
      vertex 13.8637 -11.0353 5.05
      vertex 14 -10 5.05
    endloop
  endfacet
  facet normal 0 0 1
    outer loop
      vertex 14 -5.1 5.05
      vertex 13.4641 -12 5.05
      vertex 13.8637 -11.0353 5.05
    endloop
  endfacet
  facet normal 0 0 1
    outer loop
      vertex 14 -5.1 5.05
      vertex 4 -5.1 5.05
      vertex 13.4641 -12 5.05
    endloop
  endfacet
  facet normal 0 0 1
    outer loop
      vertex -3.70001 -7.10001 5.05
      vertex -3.70001 4 5.05
      vertex -10.3 4 5.05
    endloop
  endfacet
  facet normal -0.923879 -0.382684 0
    outer loop
      vertex -13.8637 -11.0353 -5.05
      vertex -13.4641 -12 -5.05
      vertex -13.8637 -11.0353 5.05
    endloop
  endfacet
  facet normal -0.923879 -0.382684 0
    outer loop
      vertex -13.8637 -11.0353 5.05
      vertex -13.4641 -12 -5.05
      vertex -13.4641 -12 5.05
    endloop
  endfacet
  facet normal -0.793353 -0.608761 0
    outer loop
      vertex -13.4641 -12 -5.05
      vertex -12.8284 -12.8284 -5.05
      vertex -13.4641 -12 5.05
    endloop
  endfacet
  facet normal -0.793353 -0.608761 0
    outer loop
      vertex -13.4641 -12 5.05
      vertex -12.8284 -12.8284 -5.05
      vertex -12.8284 -12.8284 5.05
    endloop
  endfacet
  facet normal -0.608761 -0.793353 0
    outer loop
      vertex -12.8284 -12.8284 5.05
      vertex -12.8284 -12.8284 -5.05
      vertex -12 -13.4641 -5.05
    endloop
  endfacet
  facet normal -0.608761 -0.793353 0
    outer loop
      vertex -12 -13.4641 5.05
      vertex -12.8284 -12.8284 5.05
      vertex -12 -13.4641 -5.05
    endloop
  endfacet
  facet normal -0.382684 -0.923879 0
    outer loop
      vertex -12 -13.4641 5.05
      vertex -12 -13.4641 -5.05
      vertex -11.0353 -13.8637 -5.05
    endloop
  endfacet
  facet normal -0.382684 -0.923879 0
    outer loop
      vertex -11.0353 -13.8637 5.05
      vertex -12 -13.4641 5.05
      vertex -11.0353 -13.8637 -5.05
    endloop
  endfacet
  facet normal -0.130526 -0.991445 0
    outer loop
      vertex -11.0353 -13.8637 5.05
      vertex -11.0353 -13.8637 -5.05
      vertex -10 -14 -5.05
    endloop
  endfacet
  facet normal -0.130526 -0.991445 0
    outer loop
      vertex -10 -14 5.05
      vertex -11.0353 -13.8637 5.05
      vertex -10 -14 -5.05
    endloop
  endfacet
  facet normal 0 -1 0
    outer loop
      vertex -10 -14 5.05
      vertex -10 -14 -5.05
      vertex 10 -14 -5.05
    endloop
  endfacet
  facet normal 0 -1 0
    outer loop
      vertex 10 -14 5.05
      vertex -10 -14 5.05
      vertex 10 -14 -5.05
    endloop
  endfacet
  facet normal 0.130526 -0.991445 0
    outer loop
      vertex 10 -14 5.05
      vertex 10 -14 -5.05
      vertex 11.0353 -13.8637 -5.05
    endloop
  endfacet
  facet normal 0.130526 -0.991445 0
    outer loop
      vertex 11.0353 -13.8637 5.05
      vertex 10 -14 5.05
      vertex 11.0353 -13.8637 -5.05
    endloop
  endfacet
  facet normal 0.382684 -0.923879 0
    outer loop
      vertex 11.0353 -13.8637 5.05
      vertex 11.0353 -13.8637 -5.05
      vertex 12 -13.4641 -5.05
    endloop
  endfacet
  facet normal 0.382684 -0.923879 0
    outer loop
      vertex 12 -13.4641 5.05
      vertex 11.0353 -13.8637 5.05
      vertex 12 -13.4641 -5.05
    endloop
  endfacet
  facet normal 0.608761 -0.793353 0
    outer loop
      vertex 12 -13.4641 5.05
      vertex 12 -13.4641 -5.05
      vertex 12.8284 -12.8284 -5.05
    endloop
  endfacet
  facet normal 0.608761 -0.793353 0
    outer loop
      vertex 12.8284 -12.8284 5.05
      vertex 12 -13.4641 5.05
      vertex 12.8284 -12.8284 -5.05
    endloop
  endfacet
  facet normal 0.793353 -0.608761 0
    outer loop
      vertex 12.8284 -12.8284 5.05
      vertex 12.8284 -12.8284 -5.05
      vertex 13.4641 -12 -5.05
    endloop
  endfacet
  facet normal 0.793353 -0.608761 0
    outer loop
      vertex 13.4641 -12 5.05
      vertex 12.8284 -12.8284 5.05
      vertex 13.4641 -12 -5.05
    endloop
  endfacet
  facet normal 0.923879 -0.382684 0
    outer loop
      vertex 13.4641 -12 5.05
      vertex 13.4641 -12 -5.05
      vertex 13.8637 -11.0353 -5.05
    endloop
  endfacet
  facet normal 0.923879 -0.382684 0
    outer loop
      vertex 13.8637 -11.0353 5.05
      vertex 13.4641 -12 5.05
      vertex 13.8637 -11.0353 -5.05
    endloop
  endfacet
  facet normal 0.991445 -0.130526 0
    outer loop
      vertex 13.8637 -11.0353 5.05
      vertex 13.8637 -11.0353 -5.05
      vertex 14 -10 -5.05
    endloop
  endfacet
  facet normal 0.991445 -0.130526 0
    outer loop
      vertex 14 -10 5.05
      vertex 13.8637 -11.0353 5.05
      vertex 14 -10 -5.05
    endloop
  endfacet
  facet normal 1 0 0
    outer loop
      vertex 14 -10 5.05
      vertex 14 -10 -5.05
      vertex 14 -5.1 -5.05
    endloop
  endfacet
  facet normal 1 0 0
    outer loop
      vertex 14 -5.1 5.05
      vertex 14 -10 5.05
      vertex 14 -5.1 -5.05
    endloop
  endfacet
  facet normal 0 1 0
    outer loop
      vertex 14 -5.1 5.05
      vertex 14 -5.1 -5.05
      vertex 4 -5.1 5.05
    endloop
  endfacet
  facet normal 0 1 0
    outer loop
      vertex 4 -5.1 5.05
      vertex 14 -5.1 -5.05
      vertex 4 -5.1 -5.05
    endloop
  endfacet
  facet normal 1 0 0
    outer loop
      vertex 4 -3.30001 -5.05
      vertex 4 -3.30001 5.05
      vertex 4 -5.1 5.05
    endloop
  endfacet
  facet normal 1 0 0
    outer loop
      vertex 4 -5.1 -5.05
      vertex 4 -3.30001 -5.05
      vertex 4 -5.1 5.05
    endloop
  endfacet
  facet normal 0 -1 0
    outer loop
      vertex 14 -3.30001 -5.05
      vertex 14 -3.30001 5.05
      vertex 4 -3.30001 5.05
    endloop
  endfacet
  facet normal 0 -1 0
    outer loop
      vertex 4 -3.30001 -5.05
      vertex 14 -3.30001 -5.05
      vertex 4 -3.30001 5.05
    endloop
  endfacet
  facet normal 1 0 0
    outer loop
      vertex 14 -3.30001 5.05
      vertex 14 -3.30001 -5.05
      vertex 14 3.29999 -5.05
    endloop
  endfacet
  facet normal 1 0 0
    outer loop
      vertex 14 3.29999 5.05
      vertex 14 -3.30001 5.05
      vertex 14 3.29999 -5.05
    endloop
  endfacet
  facet normal 0 1 0
    outer loop
      vertex 14 3.29999 5.05
      vertex 14 3.29999 -5.05
      vertex 4 3.29999 5.05
    endloop
  endfacet
  facet normal 0 1 0
    outer loop
      vertex 4 3.29999 5.05
      vertex 14 3.29999 -5.05
      vertex 4 3.29999 -5.05
    endloop
  endfacet
  facet normal 1 0 0
    outer loop
      vertex 4 5.1 -5.05
      vertex 4 5.1 5.05
      vertex 4 3.29999 5.05
    endloop
  endfacet
  facet normal 1 0 0
    outer loop
      vertex 4 3.29999 -5.05
      vertex 4 5.1 -5.05
      vertex 4 3.29999 5.05
    endloop
  endfacet
  facet normal 0 -1 0
    outer loop
      vertex 14 5.1 -5.05
      vertex 14 5.1 5.05
      vertex 4 5.1 5.05
    endloop
  endfacet
  facet normal 0 -1 0
    outer loop
      vertex 4 5.1 -5.05
      vertex 14 5.1 -5.05
      vertex 4 5.1 5.05
    endloop
  endfacet
  facet normal 1 0 0
    outer loop
      vertex 14 5.1 5.05
      vertex 14 5.1 -5.05
      vertex 14 10 -5.05
    endloop
  endfacet
  facet normal 1 0 0
    outer loop
      vertex 14 10 5.05
      vertex 14 5.1 5.05
      vertex 14 10 -5.05
    endloop
  endfacet
  facet normal 0.991445 0.130526 0
    outer loop
      vertex 14 10 -5.05
      vertex 13.8637 11.0353 -5.05
      vertex 13.8637 11.0353 5.05
    endloop
  endfacet
  facet normal 0.991445 0.130526 0
    outer loop
      vertex 14 10 5.05
      vertex 14 10 -5.05
      vertex 13.8637 11.0353 5.05
    endloop
  endfacet
  facet normal 0.923879 0.382684 0
    outer loop
      vertex 13.8637 11.0353 -5.05
      vertex 13.4641 12 -5.05
      vertex 13.4641 12 5.05
    endloop
  endfacet
  facet normal 0.923879 0.382684 0
    outer loop
      vertex 13.8637 11.0353 5.05
      vertex 13.8637 11.0353 -5.05
      vertex 13.4641 12 5.05
    endloop
  endfacet
  facet normal 0.793353 0.608761 0
    outer loop
      vertex 13.4641 12 -5.05
      vertex 12.8284 12.8284 -5.05
      vertex 12.8284 12.8284 5.05
    endloop
  endfacet
  facet normal 0.793353 0.608761 0
    outer loop
      vertex 13.4641 12 5.05
      vertex 13.4641 12 -5.05
      vertex 12.8284 12.8284 5.05
    endloop
  endfacet
  facet normal 0.608761 0.793353 0
    outer loop
      vertex 12 13.4641 -5.05
      vertex 12 13.4641 5.05
      vertex 12.8284 12.8284 -5.05
    endloop
  endfacet
  facet normal 0.608761 0.793353 0
    outer loop
      vertex 12.8284 12.8284 -5.05
      vertex 12 13.4641 5.05
      vertex 12.8284 12.8284 5.05
    endloop
  endfacet
  facet normal 0.382684 0.923879 0
    outer loop
      vertex 11.0353 13.8637 -5.05
      vertex 11.0353 13.8637 5.05
      vertex 12 13.4641 -5.05
    endloop
  endfacet
  facet normal 0.382684 0.923879 0
    outer loop
      vertex 12 13.4641 -5.05
      vertex 11.0353 13.8637 5.05
      vertex 12 13.4641 5.05
    endloop
  endfacet
  facet normal 0.130526 0.991445 0
    outer loop
      vertex 10 14 -5.05
      vertex 10 14 5.05
      vertex 11.0353 13.8637 -5.05
    endloop
  endfacet
  facet normal 0.130526 0.991445 0
    outer loop
      vertex 11.0353 13.8637 -5.05
      vertex 10 14 5.05
      vertex 11.0353 13.8637 5.05
    endloop
  endfacet
  facet normal 0 1 0
    outer loop
      vertex 2.44929e-16 14 4
      vertex -10 14 5.05
      vertex 10 14 5.05
    endloop
  endfacet
  facet normal 0 1 0
    outer loop
      vertex 5.8563 14 -2.82024
      vertex 10 14 5.05
      vertex 10 14 -5.05
    endloop
  endfacet
  facet normal 0 1 0
    outer loop
      vertex 3.8637 14 1.03528
      vertex 10 14 5.05
      vertex 4 14 -7.77156e-16
    endloop
  endfacet
  facet normal 0 1 0
    outer loop
      vertex 6.5 14 -7.77156e-16
      vertex 10 14 5.05
      vertex 6.33703 14 -1.44639
    endloop
  endfacet
  facet normal 0 1 0
    outer loop
      vertex 4.08459 14 -5.05
      vertex 5.0819 14 -4.05268
      vertex 10 14 -5.05
    endloop
  endfacet
  facet normal 0 1 0
    outer loop
      vertex 5.0819 14 -4.05268
      vertex 5.8563 14 -2.82024
      vertex 10 14 -5.05
    endloop
  endfacet
  facet normal 0 1 0
    outer loop
      vertex 4 14 -7.77156e-16
      vertex 10 14 5.05
      vertex 6.5 14 -7.77156e-16
    endloop
  endfacet
  facet normal 0 1 0
    outer loop
      vertex -6.5 14 -7.77156e-16
      vertex -4 14 -2.87297e-16
      vertex -4 14 -7.77156e-16
    endloop
  endfacet
  facet normal 0 1 0
    outer loop
      vertex -1.03528 14 3.8637
      vertex -10 14 5.05
      vertex 2.44929e-16 14 4
    endloop
  endfacet
  facet normal 0 1 0
    outer loop
      vertex 3.8637 14 1.03528
      vertex 3.4641 14 2
      vertex 10 14 5.05
    endloop
  endfacet
  facet normal 0 1 0
    outer loop
      vertex -2.82843 14 2.82843
      vertex -10 14 5.05
      vertex -2 14 3.4641
    endloop
  endfacet
  facet normal 0 1 0
    outer loop
      vertex 3.4641 14 2
      vertex 2.82843 14 2.82843
      vertex 10 14 5.05
    endloop
  endfacet
  facet normal 0 1 0
    outer loop
      vertex -2 14 3.4641
      vertex -10 14 5.05
      vertex -1.03528 14 3.8637
    endloop
  endfacet
  facet normal 0 1 0
    outer loop
      vertex 2.82843 14 2.82843
      vertex 2 14 3.4641
      vertex 10 14 5.05
    endloop
  endfacet
  facet normal 0 1 0
    outer loop
      vertex 2 14 3.4641
      vertex 1.03528 14 3.8637
      vertex 10 14 5.05
    endloop
  endfacet
  facet normal 0 1 0
    outer loop
      vertex 1.03528 14 3.8637
      vertex 2.44929e-16 14 4
      vertex 10 14 5.05
    endloop
  endfacet
  facet normal 0 1 0
    outer loop
      vertex -3.4641 14 2
      vertex -10 14 5.05
      vertex -2.82843 14 2.82843
    endloop
  endfacet
  facet normal 0 1 0
    outer loop
      vertex -3.8637 14 1.03528
      vertex -10 14 5.05
      vertex -3.4641 14 2
    endloop
  endfacet
  facet normal 0 1 0
    outer loop
      vertex -4 14 -2.87297e-16
      vertex -10 14 5.05
      vertex -3.8637 14 1.03528
    endloop
  endfacet
  facet normal 0 1 0
    outer loop
      vertex -6.5 14 -7.77156e-16
      vertex -10 14 5.05
      vertex -4 14 -2.87297e-16
    endloop
  endfacet
  facet normal 0 1 0
    outer loop
      vertex -6.33703 14 -1.44639
      vertex -10 14 5.05
      vertex -6.5 14 -7.77156e-16
    endloop
  endfacet
  facet normal 0 1 0
    outer loop
      vertex -10 14 -5.05
      vertex -10 14 5.05
      vertex -6.33703 14 -1.44639
    endloop
  endfacet
  facet normal 0 1 0
    outer loop
      vertex -10 14 -5.05
      vertex -6.33703 14 -1.44639
      vertex -5.8563 14 -2.82024
    endloop
  endfacet
  facet normal 0 1 0
    outer loop
      vertex -10 14 -5.05
      vertex -5.8563 14 -2.82024
      vertex -5.0819 14 -4.05268
    endloop
  endfacet
  facet normal 0 1 0
    outer loop
      vertex -10 14 -5.05
      vertex -5.0819 14 -4.05268
      vertex -4.08459 14 -5.05
    endloop
  endfacet
  facet normal 0 1 0
    outer loop
      vertex 6.33703 14 -1.44639
      vertex 10 14 5.05
      vertex 5.8563 14 -2.82024
    endloop
  endfacet
  facet normal 0 1 -2.22045e-16
    outer loop
      vertex -3.8637 14 -1.03528
      vertex -4.08459 14 -5.05
      vertex -4 14 -7.77156e-16
    endloop
  endfacet
  facet normal 0 1 -2.22045e-16
    outer loop
      vertex -3.8637 14 -1.03528
      vertex -3.4641 14 -2
      vertex -4.08459 14 -5.05
    endloop
  endfacet
  facet normal 0 1 -2.22045e-16
    outer loop
      vertex -3.4641 14 -2
      vertex -2.82843 14 -2.82843
      vertex -4.08459 14 -5.05
    endloop
  endfacet
  facet normal 0 1 -2.22045e-16
    outer loop
      vertex -2.82843 14 -2.82843
      vertex -2 14 -3.4641
      vertex -4.08459 14 -5.05
    endloop
  endfacet
  facet normal 0 1 -2.22045e-16
    outer loop
      vertex -4.08459 14 -5.05
      vertex -1.03528 14 -3.8637
      vertex 4.08459 14 -5.05
    endloop
  endfacet
  facet normal 0 1 -2.22045e-16
    outer loop
      vertex 4.08459 14 -5.05
      vertex -7.34788e-16 14 -4
      vertex 5.0819 14 -4.05268
    endloop
  endfacet
  facet normal 0 1 -2.22045e-16
    outer loop
      vertex 5.0819 14 -4.05268
      vertex 1.03528 14 -3.8637
      vertex 5.8563 14 -2.82024
    endloop
  endfacet
  facet normal 0 1 -2.22045e-16
    outer loop
      vertex 5.8563 14 -2.82024
      vertex 2 14 -3.4641
      vertex 6.33703 14 -1.44639
    endloop
  endfacet
  facet normal 0 1 -2.22045e-16
    outer loop
      vertex 6.33703 14 -1.44639
      vertex 2.82843 14 -2.82843
      vertex 6.5 14 -7.77156e-16
    endloop
  endfacet
  facet normal 0 1 -2.22045e-16
    outer loop
      vertex 2.82843 14 -2.82843
      vertex 3.4641 14 -2
      vertex 6.5 14 -7.77156e-16
    endloop
  endfacet
  facet normal 0 1 -2.22045e-16
    outer loop
      vertex 6.5 14 -7.77156e-16
      vertex 3.8637 14 -1.03528
      vertex 4 14 -7.77156e-16
    endloop
  endfacet
  facet normal 0 1 -2.22045e-16
    outer loop
      vertex 3.4641 14 -2
      vertex 3.8637 14 -1.03528
      vertex 6.5 14 -7.77156e-16
    endloop
  endfacet
  facet normal 0 1 -2.22045e-16
    outer loop
      vertex 2 14 -3.4641
      vertex 2.82843 14 -2.82843
      vertex 6.33703 14 -1.44639
    endloop
  endfacet
  facet normal 0 1 -2.22045e-16
    outer loop
      vertex 1.03528 14 -3.8637
      vertex 2 14 -3.4641
      vertex 5.8563 14 -2.82024
    endloop
  endfacet
  facet normal 0 1 -2.22045e-16
    outer loop
      vertex -7.34788e-16 14 -4
      vertex 1.03528 14 -3.8637
      vertex 5.0819 14 -4.05268
    endloop
  endfacet
  facet normal 0 1 -2.22045e-16
    outer loop
      vertex -1.03528 14 -3.8637
      vertex -7.34788e-16 14 -4
      vertex 4.08459 14 -5.05
    endloop
  endfacet
  facet normal 0 1 -2.22045e-16
    outer loop
      vertex -2 14 -3.4641
      vertex -1.03528 14 -3.8637
      vertex -4.08459 14 -5.05
    endloop
  endfacet
  facet normal 0 1 -2.22045e-16
    outer loop
      vertex -4.08459 14 -5.05
      vertex -5.0819 14 -4.05268
      vertex -4 14 -7.77156e-16
    endloop
  endfacet
  facet normal 0 1 -2.22045e-16
    outer loop
      vertex -5.0819 14 -4.05268
      vertex -5.8563 14 -2.82024
      vertex -4 14 -7.77156e-16
    endloop
  endfacet
  facet normal 0 1 -2.22045e-16
    outer loop
      vertex -5.8563 14 -2.82024
      vertex -6.33703 14 -1.44639
      vertex -4 14 -7.77156e-16
    endloop
  endfacet
  facet normal 0 1 -2.22045e-16
    outer loop
      vertex -6.33703 14 -1.44639
      vertex -6.5 14 -7.77156e-16
      vertex -4 14 -7.77156e-16
    endloop
  endfacet
  facet normal -0.130526 0.991445 0
    outer loop
      vertex -11.0353 13.8637 -5.05
      vertex -11.0353 13.8637 5.05
      vertex -10 14 -5.05
    endloop
  endfacet
  facet normal -0.130526 0.991445 0
    outer loop
      vertex -10 14 -5.05
      vertex -11.0353 13.8637 5.05
      vertex -10 14 5.05
    endloop
  endfacet
  facet normal -0.382684 0.923879 0
    outer loop
      vertex -12 13.4641 -5.05
      vertex -12 13.4641 5.05
      vertex -11.0353 13.8637 -5.05
    endloop
  endfacet
  facet normal -0.382684 0.923879 0
    outer loop
      vertex -11.0353 13.8637 -5.05
      vertex -12 13.4641 5.05
      vertex -11.0353 13.8637 5.05
    endloop
  endfacet
  facet normal -0.608761 0.793353 0
    outer loop
      vertex -12.8284 12.8284 -5.05
      vertex -12.8284 12.8284 5.05
      vertex -12 13.4641 -5.05
    endloop
  endfacet
  facet normal -0.608761 0.793353 0
    outer loop
      vertex -12 13.4641 -5.05
      vertex -12.8284 12.8284 5.05
      vertex -12 13.4641 5.05
    endloop
  endfacet
  facet normal -0.793353 0.608761 0
    outer loop
      vertex -13.4641 12 -5.05
      vertex -13.4641 12 5.05
      vertex -12.8284 12.8284 -5.05
    endloop
  endfacet
  facet normal -0.793353 0.608761 0
    outer loop
      vertex -12.8284 12.8284 -5.05
      vertex -13.4641 12 5.05
      vertex -12.8284 12.8284 5.05
    endloop
  endfacet
  facet normal -0.923879 0.382684 0
    outer loop
      vertex -13.8637 11.0353 -5.05
      vertex -13.8637 11.0353 5.05
      vertex -13.4641 12 -5.05
    endloop
  endfacet
  facet normal -0.923879 0.382684 0
    outer loop
      vertex -13.4641 12 -5.05
      vertex -13.8637 11.0353 5.05
      vertex -13.4641 12 5.05
    endloop
  endfacet
  facet normal -0.991445 0.130526 0
    outer loop
      vertex -14 10 -5.05
      vertex -14 10 5.05
      vertex -13.8637 11.0353 -5.05
    endloop
  endfacet
  facet normal -0.991445 0.130526 0
    outer loop
      vertex -13.8637 11.0353 -5.05
      vertex -14 10 5.05
      vertex -13.8637 11.0353 5.05
    endloop
  endfacet
  facet normal 1 0 0
    outer loop
      vertex -12.1 4 -5.05
      vertex -12.1 4 5.05
      vertex -12.1 -9 5.05
    endloop
  endfacet
  facet normal 1 0 0
    outer loop
      vertex -12.1 -9 -5.05
      vertex -12.1 4 -5.05
      vertex -12.1 -9 5.05
    endloop
  endfacet
  facet normal 0 -1 0
    outer loop
      vertex -10.3 4 -5.05
      vertex -10.3 4 5.05
      vertex -12.1 4 5.05
    endloop
  endfacet
  facet normal 0 -1 0
    outer loop
      vertex -12.1 4 -5.05
      vertex -10.3 4 -5.05
      vertex -12.1 4 5.05
    endloop
  endfacet
  facet normal -1 0 0
    outer loop
      vertex -10.3 4 5.05
      vertex -10.3 4 -5.05
      vertex -10.3 -7.10001 5.05
    endloop
  endfacet
  facet normal -1 0 0
    outer loop
      vertex -10.3 -7.10001 5.05
      vertex -10.3 4 -5.05
      vertex -10.3 -7.10001 -5.05
    endloop
  endfacet
  facet normal 0 -1 0
    outer loop
      vertex -3.70001 -7.10001 -5.05
      vertex -3.70001 -7.10001 5.05
      vertex -10.3 -7.10001 5.05
    endloop
  endfacet
  facet normal 0 -1 0
    outer loop
      vertex -10.3 -7.10001 -5.05
      vertex -3.70001 -7.10001 -5.05
      vertex -10.3 -7.10001 5.05
    endloop
  endfacet
  facet normal 1 0 0
    outer loop
      vertex -3.70001 4 -5.05
      vertex -3.70001 4 5.05
      vertex -3.70001 -7.10001 5.05
    endloop
  endfacet
  facet normal 1 0 0
    outer loop
      vertex -3.70001 -7.10001 -5.05
      vertex -3.70001 4 -5.05
      vertex -3.70001 -7.10001 5.05
    endloop
  endfacet
  facet normal 0 -1 0
    outer loop
      vertex -1.9 4 -5.05
      vertex -1.9 4 5.05
      vertex -3.70001 4 5.05
    endloop
  endfacet
  facet normal 0 -1 0
    outer loop
      vertex -3.70001 4 -5.05
      vertex -1.9 4 -5.05
      vertex -3.70001 4 5.05
    endloop
  endfacet
  facet normal -1 0 0
    outer loop
      vertex -1.9 4 5.05
      vertex -1.9 4 -5.05
      vertex -1.9 -9 5.05
    endloop
  endfacet
  facet normal -1 0 0
    outer loop
      vertex -1.9 -9 5.05
      vertex -1.9 4 -5.05
      vertex -1.9 -9 -5.05
    endloop
  endfacet
  facet normal 0 1 0
    outer loop
      vertex -1.9 -9 5.05
      vertex -1.9 -9 -5.05
      vertex -12.1 -9 5.05
    endloop
  endfacet
  facet normal 0 1 0
    outer loop
      vertex -12.1 -9 5.05
      vertex -1.9 -9 -5.05
      vertex -12.1 -9 -5.05
    endloop
  endfacet
  facet normal 0 -1 2.22045e-16
    outer loop
      vertex -6.33703 7 1.44639
      vertex -6.5 7 1.57318e-15
      vertex -6.33703 7 -1.44639
    endloop
  endfacet
  facet normal 0 -1 2.22045e-16
    outer loop
      vertex -5.0819 7 -4.05268
      vertex -6.33703 7 1.44639
      vertex -5.8563 7 -2.82024
    endloop
  endfacet
  facet normal 0 -1 2.22045e-16
    outer loop
      vertex -5.8563 7 -2.82024
      vertex -6.33703 7 1.44639
      vertex -6.33703 7 -1.44639
    endloop
  endfacet
  facet normal 0 -1 2.22045e-16
    outer loop
      vertex -4.08459 7 -5.05
      vertex -6.33703 7 1.44639
      vertex -5.0819 7 -4.05268
    endloop
  endfacet
  facet normal 0 -1 2.22045e-16
    outer loop
      vertex -3.8637 7 -1.03528
      vertex -6.33703 7 1.44639
      vertex -4.08459 7 -5.05
    endloop
  endfacet
  facet normal 0 -1 2.22045e-16
    outer loop
      vertex -3.8637 7 1.03528
      vertex -3.4641 7 2
      vertex -6.33703 7 1.44639
    endloop
  endfacet
  facet normal 0 -1 2.22045e-16
    outer loop
      vertex -3.4641 7 2
      vertex -2.82843 7 2.82843
      vertex -6.33703 7 1.44639
    endloop
  endfacet
  facet normal 0 -1 2.22045e-16
    outer loop
      vertex 2.82843 7 2.82843
      vertex 3.4641 7 2
      vertex 5.8563 7 2.82024
    endloop
  endfacet
  facet normal 0 -1 2.22045e-16
    outer loop
      vertex -5.0819 7 4.05268
      vertex -6.33703 7 1.44639
      vertex -4.08459 7 5.05
    endloop
  endfacet
  facet normal 0 -1 2.22045e-16
    outer loop
      vertex -5.8563 7 2.82024
      vertex -6.33703 7 1.44639
      vertex -5.0819 7 4.05268
    endloop
  endfacet
  facet normal 0 -1 2.22045e-16
    outer loop
      vertex -3.4641 7 -2
      vertex -3.8637 7 -1.03528
      vertex -4.08459 7 -5.05
    endloop
  endfacet
  facet normal 0 -1 2.22045e-16
    outer loop
      vertex 2.82843 7 -2.82843
      vertex 2 7 -3.4641
      vertex 5.0819 7 -4.05268
    endloop
  endfacet
  facet normal 0 -1 2.22045e-16
    outer loop
      vertex 3.8637 7 -1.03528
      vertex 3.4641 7 -2
      vertex 5.8563 7 -2.82024
    endloop
  endfacet
  facet normal 0 -1 2.22045e-16
    outer loop
      vertex 3.4641 7 2
      vertex 3.8637 7 1.03528
      vertex 6.33703 7 1.44639
    endloop
  endfacet
  facet normal 0 -1 2.22045e-16
    outer loop
      vertex 2 7 3.4641
      vertex 2.82843 7 2.82843
      vertex 5.0819 7 4.05268
    endloop
  endfacet
  facet normal 0 -1 2.22045e-16
    outer loop
      vertex -4.08459 7 5.05
      vertex -6.33703 7 1.44639
      vertex -2.82843 7 2.82843
    endloop
  endfacet
  facet normal 0 -1 2.22045e-16
    outer loop
      vertex 3.8637 7 1.03528
      vertex 4 7 7.77156e-16
      vertex 6.5 7 7.77156e-16
    endloop
  endfacet
  facet normal 0 -1 2.22045e-16
    outer loop
      vertex -4.08459 7 5.05
      vertex -2.82843 7 2.82843
      vertex -2 7 3.4641
    endloop
  endfacet
  facet normal 0 -1 2.22045e-16
    outer loop
      vertex -4.08459 7 5.05
      vertex -1.03528 7 3.8637
      vertex 4.08459 7 5.05
    endloop
  endfacet
  facet normal 0 -1 2.22045e-16
    outer loop
      vertex -4.08459 7 5.05
      vertex -2 7 3.4641
      vertex -1.03528 7 3.8637
    endloop
  endfacet
  facet normal 0 -1 2.22045e-16
    outer loop
      vertex -1.03528 7 3.8637
      vertex 2.44929e-16 7 4
      vertex 4.08459 7 5.05
    endloop
  endfacet
  facet normal 0 -1 2.22045e-16
    outer loop
      vertex 4.08459 7 5.05
      vertex 1.03528 7 3.8637
      vertex 5.0819 7 4.05268
    endloop
  endfacet
  facet normal 0 -1 2.22045e-16
    outer loop
      vertex 1.03528 7 3.8637
      vertex 2 7 3.4641
      vertex 5.0819 7 4.05268
    endloop
  endfacet
  facet normal 0 -1 2.22045e-16
    outer loop
      vertex 2.44929e-16 7 4
      vertex 1.03528 7 3.8637
      vertex 4.08459 7 5.05
    endloop
  endfacet
  facet normal 0 -1 2.22045e-16
    outer loop
      vertex 5.0819 7 4.05268
      vertex 2.82843 7 2.82843
      vertex 5.8563 7 2.82024
    endloop
  endfacet
  facet normal 0 -1 2.22045e-16
    outer loop
      vertex 5.8563 7 2.82024
      vertex 3.4641 7 2
      vertex 6.33703 7 1.44639
    endloop
  endfacet
  facet normal 0 -1 2.22045e-16
    outer loop
      vertex 6.33703 7 1.44639
      vertex 3.8637 7 1.03528
      vertex 6.5 7 7.77156e-16
    endloop
  endfacet
  facet normal 0 -1 2.22045e-16
    outer loop
      vertex 6.5 7 7.77156e-16
      vertex 4 7 7.77156e-16
      vertex 6.33703 7 -1.44639
    endloop
  endfacet
  facet normal 0 -1 2.22045e-16
    outer loop
      vertex 6.33703 7 -1.44639
      vertex 3.8637 7 -1.03528
      vertex 5.8563 7 -2.82024
    endloop
  endfacet
  facet normal 0 -1 2.22045e-16
    outer loop
      vertex 5.8563 7 -2.82024
      vertex 3.4641 7 -2
      vertex 5.0819 7 -4.05268
    endloop
  endfacet
  facet normal 0 -1 2.22045e-16
    outer loop
      vertex 2 7 -3.4641
      vertex 1.03528 7 -3.8637
      vertex 4.08459 7 -5.05
    endloop
  endfacet
  facet normal 0 -1 2.22045e-16
    outer loop
      vertex 3.4641 7 -2
      vertex 2.82843 7 -2.82843
      vertex 5.0819 7 -4.05268
    endloop
  endfacet
  facet normal 0 -1 2.22045e-16
    outer loop
      vertex 4 7 7.77156e-16
      vertex 3.8637 7 -1.03528
      vertex 6.33703 7 -1.44639
    endloop
  endfacet
  facet normal 0 -1 2.22045e-16
    outer loop
      vertex 5.0819 7 -4.05268
      vertex 2 7 -3.4641
      vertex 4.08459 7 -5.05
    endloop
  endfacet
  facet normal 0 -1 2.22045e-16
    outer loop
      vertex 4.08459 7 -5.05
      vertex 1.03528 7 -3.8637
      vertex -4.08459 7 -5.05
    endloop
  endfacet
  facet normal 0 -1 2.22045e-16
    outer loop
      vertex 1.03528 7 -3.8637
      vertex -7.34788e-16 7 -4
      vertex -4.08459 7 -5.05
    endloop
  endfacet
  facet normal 0 -1 2.22045e-16
    outer loop
      vertex -7.34788e-16 7 -4
      vertex -1.03528 7 -3.8637
      vertex -4.08459 7 -5.05
    endloop
  endfacet
  facet normal 0 -1 2.22045e-16
    outer loop
      vertex -1.03528 7 -3.8637
      vertex -2 7 -3.4641
      vertex -4.08459 7 -5.05
    endloop
  endfacet
  facet normal 0 -1 2.22045e-16
    outer loop
      vertex -2 7 -3.4641
      vertex -2.82843 7 -2.82843
      vertex -4.08459 7 -5.05
    endloop
  endfacet
  facet normal 0 -1 2.22045e-16
    outer loop
      vertex -2.82843 7 -2.82843
      vertex -3.4641 7 -2
      vertex -4.08459 7 -5.05
    endloop
  endfacet
  facet normal 0 -1 2.22045e-16
    outer loop
      vertex -3.8637 7 -1.03528
      vertex -4 7 1.26701e-15
      vertex -6.33703 7 1.44639
    endloop
  endfacet
  facet normal 0 -1 2.22045e-16
    outer loop
      vertex -4 7 1.26701e-15
      vertex -3.8637 7 1.03528
      vertex -6.33703 7 1.44639
    endloop
  endfacet
  facet normal 0.707107 1.57009e-16 0.707107
    outer loop
      vertex -4.08459 6.5 -5.05
      vertex -4.08459 7 -5.05
      vertex -5.0819 7 -4.05268
    endloop
  endfacet
  facet normal 0.707107 1.57009e-16 0.707107
    outer loop
      vertex -5.0819 6.5 -4.05268
      vertex -4.08459 6.5 -5.05
      vertex -5.0819 7 -4.05268
    endloop
  endfacet
  facet normal -0.707107 1.57009e-16 0.707107
    outer loop
      vertex 5.0819 7 -4.05268
      vertex 4.08459 7 -5.05
      vertex 5.0819 6.5 -4.05268
    endloop
  endfacet
  facet normal -0.707107 1.57009e-16 0.707107
    outer loop
      vertex 5.0819 6.5 -4.05268
      vertex 4.08459 7 -5.05
      vertex 4.08459 6.5 -5.05
    endloop
  endfacet
  facet normal 0 1 -2.22045e-16
    outer loop
      vertex -5.8563 6.5 2.82024
      vertex -5.0819 6.5 4.05268
      vertex -6.33703 6.5 1.44639
    endloop
  endfacet
  facet normal 0 1 -2.22045e-16
    outer loop
      vertex -6.33703 6.5 1.44639
      vertex -5.0819 6.5 4.05268
      vertex -4.08459 6.5 5.05
    endloop
  endfacet
  facet normal 0 1 -2.22045e-16
    outer loop
      vertex -6.33703 6.5 1.44639
      vertex -4.08459 6.5 5.05
      vertex 4.08459 6.5 5.05
    endloop
  endfacet
  facet normal 0 1 -2.22045e-16
    outer loop
      vertex -6.33703 6.5 1.44639
      vertex 4.08459 6.5 5.05
      vertex 5.0819 6.5 4.05268
    endloop
  endfacet
  facet normal 0 1 -2.22045e-16
    outer loop
      vertex -6.33703 6.5 1.44639
      vertex 5.0819 6.5 4.05268
      vertex 5.8563 6.5 2.82024
    endloop
  endfacet
  facet normal 0 1 -2.22045e-16
    outer loop
      vertex -6.33703 6.5 1.44639
      vertex 5.8563 6.5 2.82024
      vertex 6.33703 6.5 1.44639
    endloop
  endfacet
  facet normal 0 1 -2.22045e-16
    outer loop
      vertex -6.33703 6.5 1.44639
      vertex 6.33703 6.5 1.44639
      vertex 6.5 6.5 8.88178e-16
    endloop
  endfacet
  facet normal 0 1 -2.22045e-16
    outer loop
      vertex -6.33703 6.5 1.44639
      vertex 6.5 6.5 8.88178e-16
      vertex 6.33703 6.5 -1.44639
    endloop
  endfacet
  facet normal 0 1 -2.22045e-16
    outer loop
      vertex -6.33703 6.5 1.44639
      vertex 6.33703 6.5 -1.44639
      vertex 5.8563 6.5 -2.82024
    endloop
  endfacet
  facet normal 0 1 -2.22045e-16
    outer loop
      vertex -6.33703 6.5 1.44639
      vertex 5.8563 6.5 -2.82024
      vertex 5.0819 6.5 -4.05268
    endloop
  endfacet
  facet normal 0 1 -2.22045e-16
    outer loop
      vertex -6.33703 6.5 1.44639
      vertex 5.0819 6.5 -4.05268
      vertex 4.08459 6.5 -5.05
    endloop
  endfacet
  facet normal 0 1 -2.22045e-16
    outer loop
      vertex -6.33703 6.5 1.44639
      vertex 4.08459 6.5 -5.05
      vertex -4.08459 6.5 -5.05
    endloop
  endfacet
  facet normal 0 1 -2.22045e-16
    outer loop
      vertex -6.33703 6.5 1.44639
      vertex -4.08459 6.5 -5.05
      vertex -5.0819 6.5 -4.05268
    endloop
  endfacet
  facet normal 0 1 -2.22045e-16
    outer loop
      vertex -6.33703 6.5 1.44639
      vertex -5.0819 6.5 -4.05268
      vertex -5.8563 6.5 -2.82024
    endloop
  endfacet
  facet normal 0 1 -2.22045e-16
    outer loop
      vertex -6.33703 6.5 1.44639
      vertex -5.8563 6.5 -2.82024
      vertex -6.33703 6.5 -1.44639
    endloop
  endfacet
  facet normal 0 1 -2.22045e-16
    outer loop
      vertex -6.33703 6.5 1.44639
      vertex -6.33703 6.5 -1.44639
      vertex -6.5 6.5 1.6842e-15
    endloop
  endfacet
  facet normal 0.707107 -1.57009e-16 -0.707107
    outer loop
      vertex -5.0819 7 4.05268
      vertex -4.08459 7 5.05
      vertex -4.08459 6.5 5.05
    endloop
  endfacet
  facet normal 0.707107 -1.57009e-16 -0.707107
    outer loop
      vertex -5.0819 6.5 4.05268
      vertex -5.0819 7 4.05268
      vertex -4.08459 6.5 5.05
    endloop
  endfacet
  facet normal -0.707107 -1.57009e-16 -0.707107
    outer loop
      vertex 5.0819 6.5 4.05268
      vertex 4.08459 6.5 5.05
      vertex 5.0819 7 4.05268
    endloop
  endfacet
  facet normal -0.707107 -1.57009e-16 -0.707107
    outer loop
      vertex 5.0819 7 4.05268
      vertex 4.08459 6.5 5.05
      vertex 4.08459 7 5.05
    endloop
  endfacet
  facet normal 0.991445 2.89826e-17 0.130526
    outer loop
      vertex -3.8637 7 -1.03528
      vertex -3.8637 14 -1.03528
      vertex -4 14 -7.77156e-16
    endloop
  endfacet
  facet normal 0.991445 2.89826e-17 0.130526
    outer loop
      vertex -4 7 1.26701e-15
      vertex -3.8637 7 -1.03528
      vertex -4 14 -2.87297e-16
    endloop
  endfacet
  facet normal 0.991445 2.89826e-17 0.130526
    outer loop
      vertex -4 14 -2.87297e-16
      vertex -3.8637 7 -1.03528
      vertex -4 14 -7.77156e-16
    endloop
  endfacet
  facet normal 0.991445 -2.89826e-17 -0.130526
    outer loop
      vertex -4 14 -2.87297e-16
      vertex -3.8637 14 1.03528
      vertex -3.8637 7 1.03528
    endloop
  endfacet
  facet normal 0.991445 -2.89826e-17 -0.130526
    outer loop
      vertex -4 7 1.26701e-15
      vertex -4 14 -2.87297e-16
      vertex -3.8637 7 1.03528
    endloop
  endfacet
  facet normal 0.92388 -8.49728e-17 -0.382683
    outer loop
      vertex -3.8637 14 1.03528
      vertex -3.4641 14 2
      vertex -3.4641 7 2
    endloop
  endfacet
  facet normal 0.92388 -8.49728e-17 -0.382683
    outer loop
      vertex -3.8637 7 1.03528
      vertex -3.8637 14 1.03528
      vertex -3.4641 7 2
    endloop
  endfacet
  facet normal 0.793353 -1.35172e-16 -0.608761
    outer loop
      vertex -3.4641 14 2
      vertex -2.82843 14 2.82843
      vertex -2.82843 7 2.82843
    endloop
  endfacet
  facet normal 0.793353 -1.35172e-16 -0.608761
    outer loop
      vertex -3.4641 7 2
      vertex -3.4641 14 2
      vertex -2.82843 7 2.82843
    endloop
  endfacet
  facet normal 0.608761 -1.7616e-16 -0.793353
    outer loop
      vertex -2 14 3.4641
      vertex -2 7 3.4641
      vertex -2.82843 14 2.82843
    endloop
  endfacet
  facet normal 0.608761 -1.7616e-16 -0.793353
    outer loop
      vertex -2.82843 14 2.82843
      vertex -2 7 3.4641
      vertex -2.82843 7 2.82843
    endloop
  endfacet
  facet normal 0.382683 -2.05142e-16 -0.92388
    outer loop
      vertex -1.03528 14 3.8637
      vertex -1.03528 7 3.8637
      vertex -2 14 3.4641
    endloop
  endfacet
  facet normal 0.382683 -2.05142e-16 -0.92388
    outer loop
      vertex -2 14 3.4641
      vertex -1.03528 7 3.8637
      vertex -2 7 3.4641
    endloop
  endfacet
  facet normal 0.130526 -2.20145e-16 -0.991445
    outer loop
      vertex 2.44929e-16 14 4
      vertex 2.44929e-16 7 4
      vertex -1.03528 14 3.8637
    endloop
  endfacet
  facet normal 0.130526 -2.20145e-16 -0.991445
    outer loop
      vertex -1.03528 14 3.8637
      vertex 2.44929e-16 7 4
      vertex -1.03528 7 3.8637
    endloop
  endfacet
  facet normal -0.130526 -2.20145e-16 -0.991445
    outer loop
      vertex 1.03528 14 3.8637
      vertex 1.03528 7 3.8637
      vertex 2.44929e-16 14 4
    endloop
  endfacet
  facet normal -0.130526 -2.20145e-16 -0.991445
    outer loop
      vertex 2.44929e-16 14 4
      vertex 1.03528 7 3.8637
      vertex 2.44929e-16 7 4
    endloop
  endfacet
  facet normal -0.382683 -2.05142e-16 -0.92388
    outer loop
      vertex 2 14 3.4641
      vertex 2 7 3.4641
      vertex 1.03528 14 3.8637
    endloop
  endfacet
  facet normal -0.382683 -2.05142e-16 -0.92388
    outer loop
      vertex 1.03528 14 3.8637
      vertex 2 7 3.4641
      vertex 1.03528 7 3.8637
    endloop
  endfacet
  facet normal -0.608761 -1.7616e-16 -0.793353
    outer loop
      vertex 2.82843 14 2.82843
      vertex 2.82843 7 2.82843
      vertex 2 14 3.4641
    endloop
  endfacet
  facet normal -0.608761 -1.7616e-16 -0.793353
    outer loop
      vertex 2 14 3.4641
      vertex 2.82843 7 2.82843
      vertex 2 7 3.4641
    endloop
  endfacet
  facet normal -0.793353 -1.35172e-16 -0.608761
    outer loop
      vertex 3.4641 14 2
      vertex 3.4641 7 2
      vertex 2.82843 14 2.82843
    endloop
  endfacet
  facet normal -0.793353 -1.35172e-16 -0.608761
    outer loop
      vertex 2.82843 14 2.82843
      vertex 3.4641 7 2
      vertex 2.82843 7 2.82843
    endloop
  endfacet
  facet normal -0.92388 -8.49728e-17 -0.382683
    outer loop
      vertex 3.8637 14 1.03528
      vertex 3.8637 7 1.03528
      vertex 3.4641 14 2
    endloop
  endfacet
  facet normal -0.92388 -8.49728e-17 -0.382683
    outer loop
      vertex 3.4641 14 2
      vertex 3.8637 7 1.03528
      vertex 3.4641 7 2
    endloop
  endfacet
  facet normal -0.991445 -2.89826e-17 -0.130526
    outer loop
      vertex 4 14 -7.77156e-16
      vertex 4 7 7.77156e-16
      vertex 3.8637 14 1.03528
    endloop
  endfacet
  facet normal -0.991445 -2.89826e-17 -0.130526
    outer loop
      vertex 3.8637 14 1.03528
      vertex 4 7 7.77156e-16
      vertex 3.8637 7 1.03528
    endloop
  endfacet
  facet normal -0.991445 2.89826e-17 0.130526
    outer loop
      vertex 4 14 -7.77156e-16
      vertex 3.8637 14 -1.03528
      vertex 4 7 7.77156e-16
    endloop
  endfacet
  facet normal -0.991445 2.89826e-17 0.130526
    outer loop
      vertex 4 7 7.77156e-16
      vertex 3.8637 14 -1.03528
      vertex 3.8637 7 -1.03528
    endloop
  endfacet
  facet normal -0.92388 8.49728e-17 0.382683
    outer loop
      vertex 3.8637 14 -1.03528
      vertex 3.4641 14 -2
      vertex 3.8637 7 -1.03528
    endloop
  endfacet
  facet normal -0.92388 8.49728e-17 0.382683
    outer loop
      vertex 3.8637 7 -1.03528
      vertex 3.4641 14 -2
      vertex 3.4641 7 -2
    endloop
  endfacet
  facet normal -0.793353 1.35172e-16 0.608761
    outer loop
      vertex 3.4641 14 -2
      vertex 2.82843 14 -2.82843
      vertex 3.4641 7 -2
    endloop
  endfacet
  facet normal -0.793353 1.35172e-16 0.608761
    outer loop
      vertex 3.4641 7 -2
      vertex 2.82843 14 -2.82843
      vertex 2.82843 7 -2.82843
    endloop
  endfacet
  facet normal -0.608761 1.7616e-16 0.793353
    outer loop
      vertex 2.82843 7 -2.82843
      vertex 2.82843 14 -2.82843
      vertex 2 14 -3.4641
    endloop
  endfacet
  facet normal -0.608761 1.7616e-16 0.793353
    outer loop
      vertex 2 7 -3.4641
      vertex 2.82843 7 -2.82843
      vertex 2 14 -3.4641
    endloop
  endfacet
  facet normal -0.382683 2.05142e-16 0.92388
    outer loop
      vertex 2 7 -3.4641
      vertex 2 14 -3.4641
      vertex 1.03528 14 -3.8637
    endloop
  endfacet
  facet normal -0.382683 2.05142e-16 0.92388
    outer loop
      vertex 1.03528 7 -3.8637
      vertex 2 7 -3.4641
      vertex 1.03528 14 -3.8637
    endloop
  endfacet
  facet normal -0.130526 2.20145e-16 0.991445
    outer loop
      vertex 1.03528 7 -3.8637
      vertex 1.03528 14 -3.8637
      vertex -7.34788e-16 14 -4
    endloop
  endfacet
  facet normal -0.130526 2.20145e-16 0.991445
    outer loop
      vertex -7.34788e-16 7 -4
      vertex 1.03528 7 -3.8637
      vertex -7.34788e-16 14 -4
    endloop
  endfacet
  facet normal 0.130526 2.20145e-16 0.991445
    outer loop
      vertex -7.34788e-16 7 -4
      vertex -7.34788e-16 14 -4
      vertex -1.03528 14 -3.8637
    endloop
  endfacet
  facet normal 0.130526 2.20145e-16 0.991445
    outer loop
      vertex -1.03528 7 -3.8637
      vertex -7.34788e-16 7 -4
      vertex -1.03528 14 -3.8637
    endloop
  endfacet
  facet normal 0.382683 2.05142e-16 0.92388
    outer loop
      vertex -1.03528 7 -3.8637
      vertex -1.03528 14 -3.8637
      vertex -2 14 -3.4641
    endloop
  endfacet
  facet normal 0.382683 2.05142e-16 0.92388
    outer loop
      vertex -2 7 -3.4641
      vertex -1.03528 7 -3.8637
      vertex -2 14 -3.4641
    endloop
  endfacet
  facet normal 0.608761 1.7616e-16 0.793353
    outer loop
      vertex -2 7 -3.4641
      vertex -2 14 -3.4641
      vertex -2.82843 14 -2.82843
    endloop
  endfacet
  facet normal 0.608761 1.7616e-16 0.793353
    outer loop
      vertex -2.82843 7 -2.82843
      vertex -2 7 -3.4641
      vertex -2.82843 14 -2.82843
    endloop
  endfacet
  facet normal 0.793353 1.35172e-16 0.608761
    outer loop
      vertex -2.82843 7 -2.82843
      vertex -2.82843 14 -2.82843
      vertex -3.4641 14 -2
    endloop
  endfacet
  facet normal 0.793353 1.35172e-16 0.608761
    outer loop
      vertex -3.4641 7 -2
      vertex -2.82843 7 -2.82843
      vertex -3.4641 14 -2
    endloop
  endfacet
  facet normal 0.92388 8.49728e-17 0.382683
    outer loop
      vertex -3.4641 7 -2
      vertex -3.4641 14 -2
      vertex -3.8637 14 -1.03528
    endloop
  endfacet
  facet normal 0.92388 8.49728e-17 0.382683
    outer loop
      vertex -3.8637 7 -1.03528
      vertex -3.4641 7 -2
      vertex -3.8637 14 -1.03528
    endloop
  endfacet
  facet normal 0.993712 -2.48611e-17 -0.111964
    outer loop
      vertex -6.5 7 1.57318e-15
      vertex -6.33703 7 1.44639
      vertex -6.33703 6.5 1.44639
    endloop
  endfacet
  facet normal 0.993712 -2.48611e-17 -0.111964
    outer loop
      vertex -6.5 6.5 1.6842e-15
      vertex -6.5 7 1.57318e-15
      vertex -6.33703 6.5 1.44639
    endloop
  endfacet
  facet normal 0.943883 -7.33367e-17 -0.330279
    outer loop
      vertex -6.33703 7 1.44639
      vertex -5.8563 7 2.82024
      vertex -5.8563 6.5 2.82024
    endloop
  endfacet
  facet normal 0.943883 -7.33367e-17 -0.330279
    outer loop
      vertex -6.33703 6.5 1.44639
      vertex -6.33703 7 1.44639
      vertex -5.8563 6.5 2.82024
    endloop
  endfacet
  facet normal 0.846724 -1.18135e-16 -0.532032
    outer loop
      vertex -5.8563 7 2.82024
      vertex -5.0819 7 4.05268
      vertex -5.0819 6.5 4.05268
    endloop
  endfacet
  facet normal 0.846724 -1.18135e-16 -0.532032
    outer loop
      vertex -5.8563 6.5 2.82024
      vertex -5.8563 7 2.82024
      vertex -5.0819 6.5 4.05268
    endloop
  endfacet
  facet normal -0.846724 -1.18135e-16 -0.532032
    outer loop
      vertex 5.8563 7 2.82024
      vertex 5.8563 6.5 2.82024
      vertex 5.0819 7 4.05268
    endloop
  endfacet
  facet normal -0.846724 -1.18135e-16 -0.532032
    outer loop
      vertex 5.0819 7 4.05268
      vertex 5.8563 6.5 2.82024
      vertex 5.0819 6.5 4.05268
    endloop
  endfacet
  facet normal -0.943883 -7.33367e-17 -0.330279
    outer loop
      vertex 6.33703 7 1.44639
      vertex 6.33703 6.5 1.44639
      vertex 5.8563 7 2.82024
    endloop
  endfacet
  facet normal -0.943883 -7.33367e-17 -0.330279
    outer loop
      vertex 5.8563 7 2.82024
      vertex 6.33703 6.5 1.44639
      vertex 5.8563 6.5 2.82024
    endloop
  endfacet
  facet normal -0.993712 -2.48611e-17 -0.111964
    outer loop
      vertex 6.5 7 7.77156e-16
      vertex 6.5 6.5 8.88178e-16
      vertex 6.33703 7 1.44639
    endloop
  endfacet
  facet normal -0.993712 -2.48611e-17 -0.111964
    outer loop
      vertex 6.33703 7 1.44639
      vertex 6.5 6.5 8.88178e-16
      vertex 6.33703 6.5 1.44639
    endloop
  endfacet
  facet normal -0.993712 2.48611e-17 0.111964
    outer loop
      vertex 6.5 7 7.77156e-16
      vertex 6.33703 7 -1.44639
      vertex 6.5 6.5 8.88178e-16
    endloop
  endfacet
  facet normal -0.993712 2.48611e-17 0.111964
    outer loop
      vertex 6.5 6.5 8.88178e-16
      vertex 6.33703 7 -1.44639
      vertex 6.33703 6.5 -1.44639
    endloop
  endfacet
  facet normal -0.943883 7.33367e-17 0.330279
    outer loop
      vertex 6.33703 7 -1.44639
      vertex 5.8563 7 -2.82024
      vertex 6.33703 6.5 -1.44639
    endloop
  endfacet
  facet normal -0.943883 7.33367e-17 0.330279
    outer loop
      vertex 6.33703 6.5 -1.44639
      vertex 5.8563 7 -2.82024
      vertex 5.8563 6.5 -2.82024
    endloop
  endfacet
  facet normal -0.846724 1.18135e-16 0.532032
    outer loop
      vertex 5.8563 7 -2.82024
      vertex 5.0819 7 -4.05268
      vertex 5.8563 6.5 -2.82024
    endloop
  endfacet
  facet normal -0.846724 1.18135e-16 0.532032
    outer loop
      vertex 5.8563 6.5 -2.82024
      vertex 5.0819 7 -4.05268
      vertex 5.0819 6.5 -4.05268
    endloop
  endfacet
  facet normal 0.846724 1.18135e-16 0.532032
    outer loop
      vertex -5.0819 6.5 -4.05268
      vertex -5.0819 7 -4.05268
      vertex -5.8563 7 -2.82024
    endloop
  endfacet
  facet normal 0.846724 1.18135e-16 0.532032
    outer loop
      vertex -5.8563 6.5 -2.82024
      vertex -5.0819 6.5 -4.05268
      vertex -5.8563 7 -2.82024
    endloop
  endfacet
  facet normal 0.943883 7.33367e-17 0.330279
    outer loop
      vertex -5.8563 6.5 -2.82024
      vertex -5.8563 7 -2.82024
      vertex -6.33703 7 -1.44639
    endloop
  endfacet
  facet normal 0.943883 7.33367e-17 0.330279
    outer loop
      vertex -6.33703 6.5 -1.44639
      vertex -5.8563 6.5 -2.82024
      vertex -6.33703 7 -1.44639
    endloop
  endfacet
  facet normal 0.993712 2.48611e-17 0.111964
    outer loop
      vertex -6.33703 6.5 -1.44639
      vertex -6.33703 7 -1.44639
      vertex -6.5 7 1.57318e-15
    endloop
  endfacet
  facet normal 0.993712 2.48611e-17 0.111964
    outer loop
      vertex -6.5 6.5 1.6842e-15
      vertex -6.33703 6.5 -1.44639
      vertex -6.5 7 1.57318e-15
    endloop
  endfacet
endsolid OpenSCAD_Model
