solid OpenSCAD_Model
  facet normal -0.999699 -0.0245412 0
    outer loop
      vertex -15 1.83697e-15 -0.25
      vertex -14.9819 -0.736015 0.25
      vertex -15 1.83697e-15 0.25
    endloop
  endfacet
  facet normal -0.999699 -0.0245412 0
    outer loop
      vertex -15 1.83697e-15 -0.25
      vertex -14.9819 -0.736015 -0.25
      vertex -14.9819 -0.736015 0.25
    endloop
  endfacet
  facet normal 0 0 -1
    outer loop
      vertex -15 1.83697e-15 -0.25
      vertex -10.5 1.28588e-15 -0.25
      vertex -14.9819 -0.736015 -0.25
    endloop
  endfacet
  facet normal 0 0 -1
    outer loop
      vertex -15 1.83697e-15 -0.25
      vertex -14.9819 0.736015 -0.25
      vertex -10.5 1.28588e-15 -0.25
    endloop
  endfacet
  facet normal 0 0 -1
    outer loop
      vertex -14.9819 0.736015 -0.25
      vertex -14.9278 1.47026 -0.25
      vertex -10.5 1.28588e-15 -0.25
    endloop
  endfacet
  facet normal 0 0 -1
    outer loop
      vertex -14.9278 1.47026 -0.25
      vertex -14.8376 2.20096 -0.25
      vertex -10.5 1.28588e-15 -0.25
    endloop
  endfacet
  facet normal 0 0 -1
    outer loop
      vertex -14.8376 2.20096 -0.25
      vertex -14.7118 2.92635 -0.25
      vertex -10.5 1.28588e-15 -0.25
    endloop
  endfacet
  facet normal 0 0 -1
    outer loop
      vertex -14.7118 2.92635 -0.25
      vertex -14.5505 3.6447 -0.25
      vertex -10.5 1.28588e-15 -0.25
    endloop
  endfacet
  facet normal 0 0 -1
    outer loop
      vertex -14.9819 -0.736015 -0.25
      vertex -10.5 1.28588e-15 -0.25
      vertex -14.9278 -1.47026 -0.25
    endloop
  endfacet
  facet normal 0 0 -1
    outer loop
      vertex -14.3541 4.35427 -0.25
      vertex -14.1232 5.05335 -0.25
      vertex -10.5 1.28588e-15 -0.25
    endloop
  endfacet
  facet normal 0 0 -1
    outer loop
      vertex -14.1232 5.05335 -0.25
      vertex -13.8582 5.74025 -0.25
      vertex -10.5 1.28588e-15 -0.25
    endloop
  endfacet
  facet normal 0 0 -1
    outer loop
      vertex -13.8582 5.74025 -0.25
      vertex -13.5598 6.41333 -0.25
      vertex -10.5 1.28588e-15 -0.25
    endloop
  endfacet
  facet normal 0 0 -1
    outer loop
      vertex -13.5598 6.41333 -0.25
      vertex -13.2288 7.07095 -0.25
      vertex -10.5 1.28588e-15 -0.25
    endloop
  endfacet
  facet normal 0 0 -1
    outer loop
      vertex -13.2288 7.07095 -0.25
      vertex -12.8659 7.71154 -0.25
      vertex -10.5 1.28588e-15 -0.25
    endloop
  endfacet
  facet normal 0 0 -1
    outer loop
      vertex -12.8659 7.71154 -0.25
      vertex -5.25 9.09327 -0.25
      vertex -10.5 1.28588e-15 -0.25
    endloop
  endfacet
  facet normal 0 -0 -1
    outer loop
      vertex -12.472 8.33355 -0.25
      vertex -5.25 9.09327 -0.25
      vertex -12.8659 7.71154 -0.25
    endloop
  endfacet
  facet normal 0 -0 -1
    outer loop
      vertex -12.0481 8.93549 -0.25
      vertex -5.25 9.09327 -0.25
      vertex -12.472 8.33355 -0.25
    endloop
  endfacet
  facet normal 0 -0 -1
    outer loop
      vertex -11.5952 9.5159 -0.25
      vertex -5.25 9.09327 -0.25
      vertex -12.0481 8.93549 -0.25
    endloop
  endfacet
  facet normal 0 -0 -1
    outer loop
      vertex -11.1143 10.0734 -0.25
      vertex -5.25 9.09327 -0.25
      vertex -11.5952 9.5159 -0.25
    endloop
  endfacet
  facet normal 0 -0 -1
    outer loop
      vertex -10.6066 10.6066 -0.25
      vertex -5.25 9.09327 -0.25
      vertex -11.1143 10.0734 -0.25
    endloop
  endfacet
  facet normal 0 -0 -1
    outer loop
      vertex -10.0734 11.1143 -0.25
      vertex -5.25 9.09327 -0.25
      vertex -10.6066 10.6066 -0.25
    endloop
  endfacet
  facet normal 0 -0 -1
    outer loop
      vertex -9.5159 11.5952 -0.25
      vertex -5.25 9.09327 -0.25
      vertex -10.0734 11.1143 -0.25
    endloop
  endfacet
  facet normal 0 -0 -1
    outer loop
      vertex -8.93549 12.0481 -0.25
      vertex -5.25 9.09327 -0.25
      vertex -9.5159 11.5952 -0.25
    endloop
  endfacet
  facet normal 0 -0 -1
    outer loop
      vertex -8.33355 12.472 -0.25
      vertex -5.25 9.09327 -0.25
      vertex -8.93549 12.0481 -0.25
    endloop
  endfacet
  facet normal 0 -0 -1
    outer loop
      vertex -7.07095 13.2288 -0.25
      vertex -5.25 9.09327 -0.25
      vertex -7.71154 12.8659 -0.25
    endloop
  endfacet
  facet normal 0 -0 -1
    outer loop
      vertex -6.41333 13.5598 -0.25
      vertex -5.25 9.09327 -0.25
      vertex -7.07095 13.2288 -0.25
    endloop
  endfacet
  facet normal 0 -0 -1
    outer loop
      vertex -5.74025 13.8582 -0.25
      vertex -5.25 9.09327 -0.25
      vertex -6.41333 13.5598 -0.25
    endloop
  endfacet
  facet normal 0 0 -1
    outer loop
      vertex -5.05335 14.1232 -0.25
      vertex -5.25 9.09327 -0.25
      vertex -5.74025 13.8582 -0.25
    endloop
  endfacet
  facet normal 0 0 -1
    outer loop
      vertex -4.35427 14.3541 -0.25
      vertex -5.25 9.09327 -0.25
      vertex -5.05335 14.1232 -0.25
    endloop
  endfacet
  facet normal 0 0 -1
    outer loop
      vertex -3.6447 14.5505 -0.25
      vertex -5.25 9.09327 -0.25
      vertex -4.35427 14.3541 -0.25
    endloop
  endfacet
  facet normal 0 0 -1
    outer loop
      vertex -2.92635 14.7118 -0.25
      vertex -5.25 9.09327 -0.25
      vertex -3.6447 14.5505 -0.25
    endloop
  endfacet
  facet normal 0 0 -1
    outer loop
      vertex -2.20096 14.8376 -0.25
      vertex -5.25 9.09327 -0.25
      vertex -2.92635 14.7118 -0.25
    endloop
  endfacet
  facet normal 0 0 -1
    outer loop
      vertex -1.47026 14.9278 -0.25
      vertex -5.25 9.09327 -0.25
      vertex -2.20096 14.8376 -0.25
    endloop
  endfacet
  facet normal 0 0 -1
    outer loop
      vertex -0.736015 14.9819 -0.25
      vertex -5.25 9.09327 -0.25
      vertex -1.47026 14.9278 -0.25
    endloop
  endfacet
  facet normal 0 0 -1
    outer loop
      vertex -5.25 9.09327 -0.25
      vertex -0.736015 14.9819 -0.25
      vertex 9.18485e-16 15 -0.25
    endloop
  endfacet
  facet normal 0 0 -1
    outer loop
      vertex 5.25 9.09327 -0.25
      vertex 9.18485e-16 15 -0.25
      vertex 0.736015 14.9819 -0.25
    endloop
  endfacet
  facet normal 0 0 -1
    outer loop
      vertex 5.25 9.09327 -0.25
      vertex 0.736015 14.9819 -0.25
      vertex 1.47026 14.9278 -0.25
    endloop
  endfacet
  facet normal -0 -0 -1
    outer loop
      vertex 2.92635 14.7118 -0.25
      vertex 5.25 9.09327 -0.25
      vertex 2.20096 14.8376 -0.25
    endloop
  endfacet
  facet normal -0 -0 -1
    outer loop
      vertex 3.6447 14.5505 -0.25
      vertex 5.25 9.09327 -0.25
      vertex 2.92635 14.7118 -0.25
    endloop
  endfacet
  facet normal -0 -0 -1
    outer loop
      vertex 4.35427 14.3541 -0.25
      vertex 5.25 9.09327 -0.25
      vertex 3.6447 14.5505 -0.25
    endloop
  endfacet
  facet normal -0 -0 -1
    outer loop
      vertex 5.05335 14.1232 -0.25
      vertex 5.25 9.09327 -0.25
      vertex 4.35427 14.3541 -0.25
    endloop
  endfacet
  facet normal -0 0 -1
    outer loop
      vertex 5.74025 13.8582 -0.25
      vertex 5.25 9.09327 -0.25
      vertex 5.05335 14.1232 -0.25
    endloop
  endfacet
  facet normal -0 0 -1
    outer loop
      vertex 6.41333 13.5598 -0.25
      vertex 5.25 9.09327 -0.25
      vertex 5.74025 13.8582 -0.25
    endloop
  endfacet
  facet normal -0 0 -1
    outer loop
      vertex 7.07095 13.2288 -0.25
      vertex 5.25 9.09327 -0.25
      vertex 6.41333 13.5598 -0.25
    endloop
  endfacet
  facet normal 0 0 -1
    outer loop
      vertex 5.25 9.09327 -0.25
      vertex 7.07095 13.2288 -0.25
      vertex 7.71154 12.8659 -0.25
    endloop
  endfacet
  facet normal 0 0 -1
    outer loop
      vertex 5.25 9.09327 -0.25
      vertex 7.71154 12.8659 -0.25
      vertex 8.33355 12.472 -0.25
    endloop
  endfacet
  facet normal 0 0 -1
    outer loop
      vertex 5.25 9.09327 -0.25
      vertex 8.33355 12.472 -0.25
      vertex 8.93549 12.0481 -0.25
    endloop
  endfacet
  facet normal 0 0 -1
    outer loop
      vertex 5.25 9.09327 -0.25
      vertex 8.93549 12.0481 -0.25
      vertex 9.5159 11.5952 -0.25
    endloop
  endfacet
  facet normal 0 0 -1
    outer loop
      vertex 5.25 9.09327 -0.25
      vertex 9.5159 11.5952 -0.25
      vertex 10.0734 11.1143 -0.25
    endloop
  endfacet
  facet normal 0 0 -1
    outer loop
      vertex 5.25 9.09327 -0.25
      vertex 10.0734 11.1143 -0.25
      vertex 10.6066 10.6066 -0.25
    endloop
  endfacet
  facet normal 0 0 -1
    outer loop
      vertex 5.25 9.09327 -0.25
      vertex 10.6066 10.6066 -0.25
      vertex 11.1143 10.0734 -0.25
    endloop
  endfacet
  facet normal 0 0 -1
    outer loop
      vertex 5.25 9.09327 -0.25
      vertex 11.1143 10.0734 -0.25
      vertex 11.5952 9.5159 -0.25
    endloop
  endfacet
  facet normal 0 0 -1
    outer loop
      vertex 5.25 9.09327 -0.25
      vertex 11.5952 9.5159 -0.25
      vertex 12.0481 8.93549 -0.25
    endloop
  endfacet
  facet normal -0 -0 -1
    outer loop
      vertex 12.0481 8.93549 -0.25
      vertex 12.472 8.33355 -0.25
      vertex 5.25 9.09327 -0.25
    endloop
  endfacet
  facet normal -0 -0 -1
    outer loop
      vertex 12.472 8.33355 -0.25
      vertex 12.8659 7.71154 -0.25
      vertex 5.25 9.09327 -0.25
    endloop
  endfacet
  facet normal 0 -0 -1
    outer loop
      vertex 12.8659 7.71154 -0.25
      vertex 13.2288 7.07095 -0.25
      vertex 10.5 0 -0.25
    endloop
  endfacet
  facet normal 0 0 -1
    outer loop
      vertex -5.25 -9.09327 -0.25
      vertex -12.472 -8.33355 -0.25
      vertex -12.8659 -7.71154 -0.25
    endloop
  endfacet
  facet normal 0 0 -1
    outer loop
      vertex 10.5 0 -0.25
      vertex 13.8582 5.74025 -0.25
      vertex 14.1232 5.05335 -0.25
    endloop
  endfacet
  facet normal 0 0 -1
    outer loop
      vertex 10.5 0 -0.25
      vertex 14.1232 5.05335 -0.25
      vertex 14.3541 4.35427 -0.25
    endloop
  endfacet
  facet normal 0 0 -1
    outer loop
      vertex 10.5 0 -0.25
      vertex 14.3541 4.35427 -0.25
      vertex 14.5505 3.6447 -0.25
    endloop
  endfacet
  facet normal 0 0 -1
    outer loop
      vertex 10.5 0 -0.25
      vertex 14.5505 3.6447 -0.25
      vertex 14.7118 2.92635 -0.25
    endloop
  endfacet
  facet normal 0 0 -1
    outer loop
      vertex 10.5 0 -0.25
      vertex 14.7118 2.92635 -0.25
      vertex 14.8376 2.20096 -0.25
    endloop
  endfacet
  facet normal 0 0 -1
    outer loop
      vertex 10.5 0 -0.25
      vertex 14.8376 2.20096 -0.25
      vertex 14.9278 1.47026 -0.25
    endloop
  endfacet
  facet normal 0 0 -1
    outer loop
      vertex 10.5 0 -0.25
      vertex 14.9278 1.47026 -0.25
      vertex 14.9819 0.736015 -0.25
    endloop
  endfacet
  facet normal 0 0 -1
    outer loop
      vertex 10.5 0 -0.25
      vertex 14.9819 0.736015 -0.25
      vertex 15 0 -0.25
    endloop
  endfacet
  facet normal 0 0 -1
    outer loop
      vertex 10.5 0 -0.25
      vertex 15 0 -0.25
      vertex 14.9819 -0.736015 -0.25
    endloop
  endfacet
  facet normal 0 0 -1
    outer loop
      vertex 10.5 0 -0.25
      vertex 14.9819 -0.736015 -0.25
      vertex 14.9278 -1.47026 -0.25
    endloop
  endfacet
  facet normal 0 0 -1
    outer loop
      vertex 10.5 0 -0.25
      vertex 14.9278 -1.47026 -0.25
      vertex 14.8376 -2.20096 -0.25
    endloop
  endfacet
  facet normal 0 0 -1
    outer loop
      vertex 10.5 0 -0.25
      vertex 14.8376 -2.20096 -0.25
      vertex 14.7118 -2.92635 -0.25
    endloop
  endfacet
  facet normal 0 0 -1
    outer loop
      vertex 10.5 0 -0.25
      vertex 14.7118 -2.92635 -0.25
      vertex 14.5505 -3.6447 -0.25
    endloop
  endfacet
  facet normal 0 0 -1
    outer loop
      vertex 10.5 0 -0.25
      vertex 14.5505 -3.6447 -0.25
      vertex 14.3541 -4.35427 -0.25
    endloop
  endfacet
  facet normal 0 0 -1
    outer loop
      vertex 10.5 0 -0.25
      vertex 14.3541 -4.35427 -0.25
      vertex 14.1232 -5.05335 -0.25
    endloop
  endfacet
  facet normal 0 0 -1
    outer loop
      vertex 10.5 0 -0.25
      vertex 14.1232 -5.05335 -0.25
      vertex 13.8582 -5.74025 -0.25
    endloop
  endfacet
  facet normal 0 0 -1
    outer loop
      vertex 10.5 0 -0.25
      vertex 13.8582 -5.74025 -0.25
      vertex 13.5598 -6.41333 -0.25
    endloop
  endfacet
  facet normal 0 0 -1
    outer loop
      vertex 10.5 0 -0.25
      vertex 13.5598 -6.41333 -0.25
      vertex 13.2288 -7.07095 -0.25
    endloop
  endfacet
  facet normal 0 0 -1
    outer loop
      vertex 10.5 0 -0.25
      vertex 13.2288 -7.07095 -0.25
      vertex 12.8659 -7.71154 -0.25
    endloop
  endfacet
  facet normal 0 0 -1
    outer loop
      vertex 5.25 -9.09327 -0.25
      vertex 12.8659 -7.71154 -0.25
      vertex 12.472 -8.33355 -0.25
    endloop
  endfacet
  facet normal 0 0 -1
    outer loop
      vertex 5.25 -9.09327 -0.25
      vertex 12.472 -8.33355 -0.25
      vertex 12.0481 -8.93549 -0.25
    endloop
  endfacet
  facet normal 0 0 -1
    outer loop
      vertex 11.1143 -10.0734 -0.25
      vertex 5.25 -9.09327 -0.25
      vertex 11.5952 -9.5159 -0.25
    endloop
  endfacet
  facet normal 0 0 -1
    outer loop
      vertex 10.6066 -10.6066 -0.25
      vertex 5.25 -9.09327 -0.25
      vertex 11.1143 -10.0734 -0.25
    endloop
  endfacet
  facet normal 0 0 -1
    outer loop
      vertex 10.0734 -11.1143 -0.25
      vertex 5.25 -9.09327 -0.25
      vertex 10.6066 -10.6066 -0.25
    endloop
  endfacet
  facet normal 0 0 -1
    outer loop
      vertex 9.5159 -11.5952 -0.25
      vertex 5.25 -9.09327 -0.25
      vertex 10.0734 -11.1143 -0.25
    endloop
  endfacet
  facet normal 0 0 -1
    outer loop
      vertex 8.93549 -12.0481 -0.25
      vertex 5.25 -9.09327 -0.25
      vertex 9.5159 -11.5952 -0.25
    endloop
  endfacet
  facet normal 0 0 -1
    outer loop
      vertex 8.33355 -12.472 -0.25
      vertex 5.25 -9.09327 -0.25
      vertex 8.93549 -12.0481 -0.25
    endloop
  endfacet
  facet normal 0 0 -1
    outer loop
      vertex 7.71154 -12.8659 -0.25
      vertex 5.25 -9.09327 -0.25
      vertex 8.33355 -12.472 -0.25
    endloop
  endfacet
  facet normal 0 0 -1
    outer loop
      vertex 7.07095 -13.2288 -0.25
      vertex 5.25 -9.09327 -0.25
      vertex 7.71154 -12.8659 -0.25
    endloop
  endfacet
  facet normal 0 0 -1
    outer loop
      vertex 6.41333 -13.5598 -0.25
      vertex 5.25 -9.09327 -0.25
      vertex 7.07095 -13.2288 -0.25
    endloop
  endfacet
  facet normal 0 0 -1
    outer loop
      vertex 5.74025 -13.8582 -0.25
      vertex 5.25 -9.09327 -0.25
      vertex 6.41333 -13.5598 -0.25
    endloop
  endfacet
  facet normal 0 0 -1
    outer loop
      vertex 5.05335 -14.1232 -0.25
      vertex 5.25 -9.09327 -0.25
      vertex 5.74025 -13.8582 -0.25
    endloop
  endfacet
  facet normal 0 0 -1
    outer loop
      vertex 4.35427 -14.3541 -0.25
      vertex 5.25 -9.09327 -0.25
      vertex 5.05335 -14.1232 -0.25
    endloop
  endfacet
  facet normal 0 0 -1
    outer loop
      vertex 3.6447 -14.5505 -0.25
      vertex 5.25 -9.09327 -0.25
      vertex 4.35427 -14.3541 -0.25
    endloop
  endfacet
  facet normal 0 0 -1
    outer loop
      vertex 2.92635 -14.7118 -0.25
      vertex 5.25 -9.09327 -0.25
      vertex 3.6447 -14.5505 -0.25
    endloop
  endfacet
  facet normal 0 0 -1
    outer loop
      vertex 2.20096 -14.8376 -0.25
      vertex 5.25 -9.09327 -0.25
      vertex 2.92635 -14.7118 -0.25
    endloop
  endfacet
  facet normal 0 0 -1
    outer loop
      vertex 1.47026 -14.9278 -0.25
      vertex 5.25 -9.09327 -0.25
      vertex 2.20096 -14.8376 -0.25
    endloop
  endfacet
  facet normal 0 0 -1
    outer loop
      vertex 0.736015 -14.9819 -0.25
      vertex 5.25 -9.09327 -0.25
      vertex 1.47026 -14.9278 -0.25
    endloop
  endfacet
  facet normal 0 0 -1
    outer loop
      vertex -2.75546e-15 -15 -0.25
      vertex 5.25 -9.09327 -0.25
      vertex 0.736015 -14.9819 -0.25
    endloop
  endfacet
  facet normal 0 0 -1
    outer loop
      vertex -0.736015 -14.9819 -0.25
      vertex -5.25 -9.09327 -0.25
      vertex -2.75546e-15 -15 -0.25
    endloop
  endfacet
  facet normal 0 0 -1
    outer loop
      vertex -5.25 -9.09327 -0.25
      vertex -12.8659 -7.71154 -0.25
      vertex -10.5 1.28588e-15 -0.25
    endloop
  endfacet
  facet normal 0 0 -1
    outer loop
      vertex -2.20096 -14.8376 -0.25
      vertex -2.92635 -14.7118 -0.25
      vertex -5.25 -9.09327 -0.25
    endloop
  endfacet
  facet normal 0 0 -1
    outer loop
      vertex -2.92635 -14.7118 -0.25
      vertex -3.6447 -14.5505 -0.25
      vertex -5.25 -9.09327 -0.25
    endloop
  endfacet
  facet normal 0 0 -1
    outer loop
      vertex -3.6447 -14.5505 -0.25
      vertex -4.35427 -14.3541 -0.25
      vertex -5.25 -9.09327 -0.25
    endloop
  endfacet
  facet normal 0 0 -1
    outer loop
      vertex -4.35427 -14.3541 -0.25
      vertex -5.05335 -14.1232 -0.25
      vertex -5.25 -9.09327 -0.25
    endloop
  endfacet
  facet normal 0 0 -1
    outer loop
      vertex -5.05335 -14.1232 -0.25
      vertex -5.74025 -13.8582 -0.25
      vertex -5.25 -9.09327 -0.25
    endloop
  endfacet
  facet normal 0 0 -1
    outer loop
      vertex -5.74025 -13.8582 -0.25
      vertex -6.41333 -13.5598 -0.25
      vertex -5.25 -9.09327 -0.25
    endloop
  endfacet
  facet normal 0 0 -1
    outer loop
      vertex -6.41333 -13.5598 -0.25
      vertex -7.07095 -13.2288 -0.25
      vertex -5.25 -9.09327 -0.25
    endloop
  endfacet
  facet normal 0 0 -1
    outer loop
      vertex -7.07095 -13.2288 -0.25
      vertex -7.71154 -12.8659 -0.25
      vertex -5.25 -9.09327 -0.25
    endloop
  endfacet
  facet normal 0 0 -1
    outer loop
      vertex -7.71154 -12.8659 -0.25
      vertex -8.33355 -12.472 -0.25
      vertex -5.25 -9.09327 -0.25
    endloop
  endfacet
  facet normal 0 0 -1
    outer loop
      vertex -8.33355 -12.472 -0.25
      vertex -8.93549 -12.0481 -0.25
      vertex -5.25 -9.09327 -0.25
    endloop
  endfacet
  facet normal 0 0 -1
    outer loop
      vertex -8.93549 -12.0481 -0.25
      vertex -9.5159 -11.5952 -0.25
      vertex -5.25 -9.09327 -0.25
    endloop
  endfacet
  facet normal 0 0 -1
    outer loop
      vertex -9.5159 -11.5952 -0.25
      vertex -10.0734 -11.1143 -0.25
      vertex -5.25 -9.09327 -0.25
    endloop
  endfacet
  facet normal 0 0 -1
    outer loop
      vertex -10.0734 -11.1143 -0.25
      vertex -10.6066 -10.6066 -0.25
      vertex -5.25 -9.09327 -0.25
    endloop
  endfacet
  facet normal 0 0 -1
    outer loop
      vertex -10.6066 -10.6066 -0.25
      vertex -11.1143 -10.0734 -0.25
      vertex -5.25 -9.09327 -0.25
    endloop
  endfacet
  facet normal 0 0 -1
    outer loop
      vertex -11.1143 -10.0734 -0.25
      vertex -11.5952 -9.5159 -0.25
      vertex -5.25 -9.09327 -0.25
    endloop
  endfacet
  facet normal 0 0 -1
    outer loop
      vertex -11.5952 -9.5159 -0.25
      vertex -12.0481 -8.93549 -0.25
      vertex -5.25 -9.09327 -0.25
    endloop
  endfacet
  facet normal 0 0 -1
    outer loop
      vertex -12.0481 -8.93549 -0.25
      vertex -12.472 -8.33355 -0.25
      vertex -5.25 -9.09327 -0.25
    endloop
  endfacet
  facet normal 0 0 -1
    outer loop
      vertex -10.5 1.28588e-15 -0.25
      vertex -14.1232 -5.05335 -0.25
      vertex -14.3541 -4.35427 -0.25
    endloop
  endfacet
  facet normal 0 0 -1
    outer loop
      vertex -12.8659 -7.71154 -0.25
      vertex -13.2288 -7.07095 -0.25
      vertex -10.5 1.28588e-15 -0.25
    endloop
  endfacet
  facet normal 0 0 -1
    outer loop
      vertex -13.2288 -7.07095 -0.25
      vertex -13.5598 -6.41333 -0.25
      vertex -10.5 1.28588e-15 -0.25
    endloop
  endfacet
  facet normal 0 0 -1
    outer loop
      vertex -13.5598 -6.41333 -0.25
      vertex -13.8582 -5.74025 -0.25
      vertex -10.5 1.28588e-15 -0.25
    endloop
  endfacet
  facet normal 0 0 -1
    outer loop
      vertex -13.8582 -5.74025 -0.25
      vertex -14.1232 -5.05335 -0.25
      vertex -10.5 1.28588e-15 -0.25
    endloop
  endfacet
  facet normal 0 0 -1
    outer loop
      vertex -10.5 1.28588e-15 -0.25
      vertex -14.5505 -3.6447 -0.25
      vertex -14.7118 -2.92635 -0.25
    endloop
  endfacet
  facet normal 0 0 -1
    outer loop
      vertex -14.3541 -4.35427 -0.25
      vertex -14.5505 -3.6447 -0.25
      vertex -10.5 1.28588e-15 -0.25
    endloop
  endfacet
  facet normal 0 0 -1
    outer loop
      vertex -10.5 1.28588e-15 -0.25
      vertex -14.7118 -2.92635 -0.25
      vertex -14.8376 -2.20096 -0.25
    endloop
  endfacet
  facet normal 0 0 -1
    outer loop
      vertex -10.5 1.28588e-15 -0.25
      vertex -14.8376 -2.20096 -0.25
      vertex -14.9278 -1.47026 -0.25
    endloop
  endfacet
  facet normal 0 0 -1
    outer loop
      vertex 10.5 0 -0.25
      vertex 13.5598 6.41333 -0.25
      vertex 13.8582 5.74025 -0.25
    endloop
  endfacet
  facet normal 0 -0 -1
    outer loop
      vertex -14.3541 4.35427 -0.25
      vertex -10.5 1.28588e-15 -0.25
      vertex -14.5505 3.6447 -0.25
    endloop
  endfacet
  facet normal 0 0 -1
    outer loop
      vertex -1.47026 -14.9278 -0.25
      vertex -2.20096 -14.8376 -0.25
      vertex -5.25 -9.09327 -0.25
    endloop
  endfacet
  facet normal 0 0 -1
    outer loop
      vertex -1.47026 -14.9278 -0.25
      vertex -5.25 -9.09327 -0.25
      vertex -0.736015 -14.9819 -0.25
    endloop
  endfacet
  facet normal 0 0 -1
    outer loop
      vertex -2.75546e-15 -15 -0.25
      vertex -5.25 -9.09327 -0.25
      vertex 5.25 -9.09327 -0.25
    endloop
  endfacet
  facet normal 0 0 -1
    outer loop
      vertex 11.5952 -9.5159 -0.25
      vertex 5.25 -9.09327 -0.25
      vertex 12.0481 -8.93549 -0.25
    endloop
  endfacet
  facet normal 0 -0 -1
    outer loop
      vertex 13.2288 7.07095 -0.25
      vertex 13.5598 6.41333 -0.25
      vertex 10.5 0 -0.25
    endloop
  endfacet
  facet normal 0 0 -1
    outer loop
      vertex 5.25 -9.09327 -0.25
      vertex 10.5 0 -0.25
      vertex 12.8659 -7.71154 -0.25
    endloop
  endfacet
  facet normal -0 0 -1
    outer loop
      vertex 12.8659 7.71154 -0.25
      vertex 10.5 0 -0.25
      vertex 5.25 9.09327 -0.25
    endloop
  endfacet
  facet normal -0 -0 -1
    outer loop
      vertex 2.20096 14.8376 -0.25
      vertex 5.25 9.09327 -0.25
      vertex 1.47026 14.9278 -0.25
    endloop
  endfacet
  facet normal 0 -0 -1
    outer loop
      vertex 9.18485e-16 15 -0.25
      vertex 5.25 9.09327 -0.25
      vertex -5.25 9.09327 -0.25
    endloop
  endfacet
  facet normal 0 -0 -1
    outer loop
      vertex -7.71154 12.8659 -0.25
      vertex -5.25 9.09327 -0.25
      vertex -8.33355 12.472 -0.25
    endloop
  endfacet
  facet normal 0.0245412 0.999699 -0
    outer loop
      vertex 9.18485e-16 15 -0.25
      vertex 9.18485e-16 15 0.25
      vertex 0.736015 14.9819 -0.25
    endloop
  endfacet
  facet normal 0.0245412 0.999699 -0
    outer loop
      vertex 0.736015 14.9819 -0.25
      vertex 9.18485e-16 15 0.25
      vertex 0.736015 14.9819 0.25
    endloop
  endfacet
  facet normal 0.999699 0.0245412 0
    outer loop
      vertex 15 0 0.25
      vertex 15 0 -0.25
      vertex 14.9819 0.736015 -0.25
    endloop
  endfacet
  facet normal 0.999699 0.0245412 0
    outer loop
      vertex 14.9819 0.736015 0.25
      vertex 15 0 0.25
      vertex 14.9819 0.736015 -0.25
    endloop
  endfacet
  facet normal 0.0735646 -0.99729 0
    outer loop
      vertex 1.47026 -14.9278 -0.25
      vertex 0.736015 -14.9819 0.25
      vertex 0.736015 -14.9819 -0.25
    endloop
  endfacet
  facet normal 0.0735646 -0.99729 0
    outer loop
      vertex 1.47026 -14.9278 -0.25
      vertex 1.47026 -14.9278 0.25
      vertex 0.736015 -14.9819 0.25
    endloop
  endfacet
  facet normal 0.724247 -0.689541 0
    outer loop
      vertex 11.1143 -10.0734 -0.25
      vertex 10.6066 -10.6066 0.25
      vertex 10.6066 -10.6066 -0.25
    endloop
  endfacet
  facet normal 0.724247 -0.689541 0
    outer loop
      vertex 11.1143 -10.0734 -0.25
      vertex 11.1143 -10.0734 0.25
      vertex 10.6066 -10.6066 0.25
    endloop
  endfacet
  facet normal 0.724247 0.689541 0
    outer loop
      vertex 11.1143 10.0734 0.25
      vertex 11.1143 10.0734 -0.25
      vertex 10.6066 10.6066 -0.25
    endloop
  endfacet
  facet normal 0.724247 0.689541 0
    outer loop
      vertex 10.6066 10.6066 0.25
      vertex 11.1143 10.0734 0.25
      vertex 10.6066 10.6066 -0.25
    endloop
  endfacet
  facet normal 0.932993 0.359895 0
    outer loop
      vertex 14.1232 5.05335 0.25
      vertex 14.1232 5.05335 -0.25
      vertex 13.8582 5.74025 -0.25
    endloop
  endfacet
  facet normal 0.932993 0.359895 0
    outer loop
      vertex 13.8582 5.74025 0.25
      vertex 14.1232 5.05335 0.25
      vertex 13.8582 5.74025 -0.25
    endloop
  endfacet
  facet normal 0.405241 0.91421 -0
    outer loop
      vertex 5.74025 13.8582 -0.25
      vertex 5.74025 13.8582 0.25
      vertex 6.41333 13.5598 -0.25
    endloop
  endfacet
  facet normal 0.405241 0.91421 -0
    outer loop
      vertex 6.41333 13.5598 -0.25
      vertex 5.74025 13.8582 0.25
      vertex 6.41333 13.5598 0.25
    endloop
  endfacet
  facet normal 0.575808 0.817585 -0
    outer loop
      vertex 8.33355 12.472 -0.25
      vertex 8.33355 12.472 0.25
      vertex 8.93549 12.0481 -0.25
    endloop
  endfacet
  facet normal 0.575808 0.817585 -0
    outer loop
      vertex 8.93549 12.0481 -0.25
      vertex 8.33355 12.472 0.25
      vertex 8.93549 12.0481 0.25
    endloop
  endfacet
  facet normal -0.949528 0.313682 0
    outer loop
      vertex -14.3541 4.35427 -0.25
      vertex -14.3541 4.35427 0.25
      vertex -14.1232 5.05335 -0.25
    endloop
  endfacet
  facet normal -0.949528 0.313682 0
    outer loop
      vertex -14.1232 5.05335 -0.25
      vertex -14.3541 4.35427 0.25
      vertex -14.1232 5.05335 0.25
    endloop
  endfacet
  facet normal -0.99248 0.122411 0
    outer loop
      vertex -14.9278 1.47026 -0.25
      vertex -14.9278 1.47026 0.25
      vertex -14.8376 2.20096 -0.25
    endloop
  endfacet
  facet normal -0.99248 0.122411 0
    outer loop
      vertex -14.8376 2.20096 -0.25
      vertex -14.9278 1.47026 0.25
      vertex -14.8376 2.20096 0.25
    endloop
  endfacet
  facet normal 0.975702 0.219101 0
    outer loop
      vertex 14.7118 2.92635 0.25
      vertex 14.7118 2.92635 -0.25
      vertex 14.5505 3.6447 -0.25
    endloop
  endfacet
  facet normal 0.975702 0.219101 0
    outer loop
      vertex 14.5505 3.6447 0.25
      vertex 14.7118 2.92635 0.25
      vertex 14.5505 3.6447 -0.25
    endloop
  endfacet
  facet normal 0.844854 0.534998 0
    outer loop
      vertex 12.8659 7.71154 0.25
      vertex 12.8659 7.71154 -0.25
      vertex 12.472 8.33355 -0.25
    endloop
  endfacet
  facet normal 0.844854 0.534998 0
    outer loop
      vertex 12.472 8.33355 0.25
      vertex 12.8659 7.71154 0.25
      vertex 12.472 8.33355 -0.25
    endloop
  endfacet
  facet normal 0.893224 0.449611 0
    outer loop
      vertex 13.5598 6.41333 0.25
      vertex 13.5598 6.41333 -0.25
      vertex 13.2288 7.07095 -0.25
    endloop
  endfacet
  facet normal 0.893224 0.449611 0
    outer loop
      vertex 13.2288 7.07095 0.25
      vertex 13.5598 6.41333 0.25
      vertex 13.2288 7.07095 -0.25
    endloop
  endfacet
  facet normal 0.219101 0.975702 -0
    outer loop
      vertex 2.92635 14.7118 -0.25
      vertex 2.92635 14.7118 0.25
      vertex 3.6447 14.5505 -0.25
    endloop
  endfacet
  facet normal 0.219101 0.975702 -0
    outer loop
      vertex 3.6447 14.5505 -0.25
      vertex 2.92635 14.7118 0.25
      vertex 3.6447 14.5505 0.25
    endloop
  endfacet
  facet normal 0.653173 0.757209 -0
    outer loop
      vertex 9.5159 11.5952 -0.25
      vertex 9.5159 11.5952 0.25
      vertex 10.0734 11.1143 -0.25
    endloop
  endfacet
  facet normal 0.653173 0.757209 -0
    outer loop
      vertex 10.0734 11.1143 -0.25
      vertex 9.5159 11.5952 0.25
      vertex 10.0734 11.1143 0.25
    endloop
  endfacet
  facet normal -0.122411 0.99248 0
    outer loop
      vertex -2.20096 14.8376 -0.25
      vertex -2.20096 14.8376 0.25
      vertex -1.47026 14.9278 -0.25
    endloop
  endfacet
  facet normal -0.122411 0.99248 0
    outer loop
      vertex -1.47026 14.9278 -0.25
      vertex -2.20096 14.8376 0.25
      vertex -1.47026 14.9278 0.25
    endloop
  endfacet
  facet normal -0.405241 0.91421 0
    outer loop
      vertex -6.41333 13.5598 -0.25
      vertex -6.41333 13.5598 0.25
      vertex -5.74025 13.8582 -0.25
    endloop
  endfacet
  facet normal -0.405241 0.91421 0
    outer loop
      vertex -5.74025 13.8582 -0.25
      vertex -6.41333 13.5598 0.25
      vertex -5.74025 13.8582 0.25
    endloop
  endfacet
  facet normal -0.359895 0.932993 0
    outer loop
      vertex -5.74025 13.8582 -0.25
      vertex -5.74025 13.8582 0.25
      vertex -5.05335 14.1232 -0.25
    endloop
  endfacet
  facet normal -0.359895 0.932993 0
    outer loop
      vertex -5.05335 14.1232 -0.25
      vertex -5.74025 13.8582 0.25
      vertex -5.05335 14.1232 0.25
    endloop
  endfacet
  facet normal -0.170962 0.985278 0
    outer loop
      vertex -2.92635 14.7118 -0.25
      vertex -2.92635 14.7118 0.25
      vertex -2.20096 14.8376 -0.25
    endloop
  endfacet
  facet normal -0.170962 0.985278 0
    outer loop
      vertex -2.20096 14.8376 -0.25
      vertex -2.92635 14.7118 0.25
      vertex -2.20096 14.8376 0.25
    endloop
  endfacet
  facet normal -0.359895 -0.932993 0
    outer loop
      vertex -5.05335 -14.1232 -0.25
      vertex -5.74025 -13.8582 0.25
      vertex -5.74025 -13.8582 -0.25
    endloop
  endfacet
  facet normal -0.359895 -0.932993 0
    outer loop
      vertex -5.05335 -14.1232 -0.25
      vertex -5.05335 -14.1232 0.25
      vertex -5.74025 -13.8582 0.25
    endloop
  endfacet
  facet normal -0.724247 -0.689541 0
    outer loop
      vertex -11.1143 -10.0734 -0.25
      vertex -10.6066 -10.6066 0.25
      vertex -11.1143 -10.0734 0.25
    endloop
  endfacet
  facet normal -0.724247 -0.689541 0
    outer loop
      vertex -11.1143 -10.0734 -0.25
      vertex -10.6066 -10.6066 -0.25
      vertex -10.6066 -10.6066 0.25
    endloop
  endfacet
  facet normal -0.932993 -0.359895 0
    outer loop
      vertex -14.1232 -5.05335 -0.25
      vertex -13.8582 -5.74025 0.25
      vertex -14.1232 -5.05335 0.25
    endloop
  endfacet
  facet normal -0.932993 -0.359895 0
    outer loop
      vertex -14.1232 -5.05335 -0.25
      vertex -13.8582 -5.74025 -0.25
      vertex -13.8582 -5.74025 0.25
    endloop
  endfacet
  facet normal -0.985278 0.170962 0
    outer loop
      vertex -14.8376 2.20096 -0.25
      vertex -14.8376 2.20096 0.25
      vertex -14.7118 2.92635 -0.25
    endloop
  endfacet
  facet normal -0.985278 0.170962 0
    outer loop
      vertex -14.7118 2.92635 -0.25
      vertex -14.8376 2.20096 0.25
      vertex -14.7118 2.92635 0.25
    endloop
  endfacet
  facet normal -0.999699 0.0245412 0
    outer loop
      vertex -15 1.83697e-15 -0.25
      vertex -15 1.83697e-15 0.25
      vertex -14.9819 0.736015 -0.25
    endloop
  endfacet
  facet normal -0.999699 0.0245412 0
    outer loop
      vertex -14.9819 0.736015 -0.25
      vertex -15 1.83697e-15 0.25
      vertex -14.9819 0.736015 0.25
    endloop
  endfacet
  facet normal 0.757209 -0.653173 0
    outer loop
      vertex 11.5952 -9.5159 -0.25
      vertex 11.1143 -10.0734 0.25
      vertex 11.1143 -10.0734 -0.25
    endloop
  endfacet
  facet normal 0.757209 -0.653173 0
    outer loop
      vertex 11.5952 -9.5159 -0.25
      vertex 11.5952 -9.5159 0.25
      vertex 11.1143 -10.0734 0.25
    endloop
  endfacet
  facet normal 0.817585 -0.575808 0
    outer loop
      vertex 12.472 -8.33355 -0.25
      vertex 12.0481 -8.93549 0.25
      vertex 12.0481 -8.93549 -0.25
    endloop
  endfacet
  facet normal 0.817585 -0.575808 0
    outer loop
      vertex 12.472 -8.33355 -0.25
      vertex 12.472 -8.33355 0.25
      vertex 12.0481 -8.93549 0.25
    endloop
  endfacet
  facet normal 0.91421 -0.405241 0
    outer loop
      vertex 13.8582 -5.74025 -0.25
      vertex 13.5598 -6.41333 0.25
      vertex 13.5598 -6.41333 -0.25
    endloop
  endfacet
  facet normal 0.91421 -0.405241 0
    outer loop
      vertex 13.8582 -5.74025 -0.25
      vertex 13.8582 -5.74025 0.25
      vertex 13.5598 -6.41333 0.25
    endloop
  endfacet
  facet normal 0.870087 -0.492898 0
    outer loop
      vertex 13.2288 -7.07095 -0.25
      vertex 12.8659 -7.71154 0.25
      vertex 12.8659 -7.71154 -0.25
    endloop
  endfacet
  facet normal 0.870087 -0.492898 0
    outer loop
      vertex 13.2288 -7.07095 -0.25
      vertex 13.2288 -7.07095 0.25
      vertex 12.8659 -7.71154 0.25
    endloop
  endfacet
  facet normal 0.949528 -0.313682 0
    outer loop
      vertex 14.3541 -4.35427 -0.25
      vertex 14.1232 -5.05335 0.25
      vertex 14.1232 -5.05335 -0.25
    endloop
  endfacet
  facet normal 0.949528 -0.313682 0
    outer loop
      vertex 14.3541 -4.35427 -0.25
      vertex 14.3541 -4.35427 0.25
      vertex 14.1232 -5.05335 0.25
    endloop
  endfacet
  facet normal 0.975702 -0.219101 0
    outer loop
      vertex 14.7118 -2.92635 -0.25
      vertex 14.5505 -3.6447 0.25
      vertex 14.5505 -3.6447 -0.25
    endloop
  endfacet
  facet normal 0.975702 -0.219101 0
    outer loop
      vertex 14.7118 -2.92635 -0.25
      vertex 14.7118 -2.92635 0.25
      vertex 14.5505 -3.6447 0.25
    endloop
  endfacet
  facet normal 0.99248 -0.122411 0
    outer loop
      vertex 14.9278 -1.47026 -0.25
      vertex 14.8376 -2.20096 0.25
      vertex 14.8376 -2.20096 -0.25
    endloop
  endfacet
  facet normal 0.99248 -0.122411 0
    outer loop
      vertex 14.9278 -1.47026 -0.25
      vertex 14.9278 -1.47026 0.25
      vertex 14.8376 -2.20096 0.25
    endloop
  endfacet
  facet normal 0.999699 -0.0245412 0
    outer loop
      vertex 15 0 -0.25
      vertex 14.9819 -0.736015 0.25
      vertex 14.9819 -0.736015 -0.25
    endloop
  endfacet
  facet normal 0.999699 -0.0245412 0
    outer loop
      vertex 15 0 -0.25
      vertex 15 0 0.25
      vertex 14.9819 -0.736015 0.25
    endloop
  endfacet
  facet normal 0.170962 -0.985278 0
    outer loop
      vertex 2.92635 -14.7118 -0.25
      vertex 2.20096 -14.8376 0.25
      vertex 2.20096 -14.8376 -0.25
    endloop
  endfacet
  facet normal 0.170962 -0.985278 0
    outer loop
      vertex 2.92635 -14.7118 -0.25
      vertex 2.92635 -14.7118 0.25
      vertex 2.20096 -14.8376 0.25
    endloop
  endfacet
  facet normal 0.359895 -0.932993 0
    outer loop
      vertex 5.74025 -13.8582 -0.25
      vertex 5.05335 -14.1232 0.25
      vertex 5.05335 -14.1232 -0.25
    endloop
  endfacet
  facet normal 0.359895 -0.932993 0
    outer loop
      vertex 5.74025 -13.8582 -0.25
      vertex 5.74025 -13.8582 0.25
      vertex 5.05335 -14.1232 0.25
    endloop
  endfacet
  facet normal 0.266713 -0.963776 0
    outer loop
      vertex 4.35427 -14.3541 -0.25
      vertex 3.6447 -14.5505 0.25
      vertex 3.6447 -14.5505 -0.25
    endloop
  endfacet
  facet normal 0.266713 -0.963776 0
    outer loop
      vertex 4.35427 -14.3541 -0.25
      vertex 4.35427 -14.3541 0.25
      vertex 3.6447 -14.5505 0.25
    endloop
  endfacet
  facet normal 0.449611 -0.893224 0
    outer loop
      vertex 7.07095 -13.2288 -0.25
      vertex 6.41333 -13.5598 0.25
      vertex 6.41333 -13.5598 -0.25
    endloop
  endfacet
  facet normal 0.449611 -0.893224 0
    outer loop
      vertex 7.07095 -13.2288 -0.25
      vertex 7.07095 -13.2288 0.25
      vertex 6.41333 -13.5598 0.25
    endloop
  endfacet
  facet normal 0.534998 -0.844854 0
    outer loop
      vertex 8.33355 -12.472 -0.25
      vertex 7.71154 -12.8659 0.25
      vertex 7.71154 -12.8659 -0.25
    endloop
  endfacet
  facet normal 0.534998 -0.844854 0
    outer loop
      vertex 8.33355 -12.472 -0.25
      vertex 8.33355 -12.472 0.25
      vertex 7.71154 -12.8659 0.25
    endloop
  endfacet
  facet normal 0.615232 -0.788346 0
    outer loop
      vertex 9.5159 -11.5952 -0.25
      vertex 8.93549 -12.0481 0.25
      vertex 8.93549 -12.0481 -0.25
    endloop
  endfacet
  facet normal 0.615232 -0.788346 0
    outer loop
      vertex 9.5159 -11.5952 -0.25
      vertex 9.5159 -11.5952 0.25
      vertex 8.93549 -12.0481 0.25
    endloop
  endfacet
  facet normal 0.689541 -0.724247 0
    outer loop
      vertex 10.6066 -10.6066 -0.25
      vertex 10.0734 -11.1143 0.25
      vertex 10.0734 -11.1143 -0.25
    endloop
  endfacet
  facet normal 0.689541 -0.724247 0
    outer loop
      vertex 10.6066 -10.6066 -0.25
      vertex 10.6066 -10.6066 0.25
      vertex 10.0734 -11.1143 0.25
    endloop
  endfacet
  facet normal 0.99248 0.122411 0
    outer loop
      vertex 14.9278 1.47026 0.25
      vertex 14.9278 1.47026 -0.25
      vertex 14.8376 2.20096 -0.25
    endloop
  endfacet
  facet normal 0.99248 0.122411 0
    outer loop
      vertex 14.8376 2.20096 0.25
      vertex 14.9278 1.47026 0.25
      vertex 14.8376 2.20096 -0.25
    endloop
  endfacet
  facet normal 0.99729 0.0735646 0
    outer loop
      vertex 14.9819 0.736015 0.25
      vertex 14.9819 0.736015 -0.25
      vertex 14.9278 1.47026 -0.25
    endloop
  endfacet
  facet normal 0.99729 0.0735646 0
    outer loop
      vertex 14.9278 1.47026 0.25
      vertex 14.9819 0.736015 0.25
      vertex 14.9278 1.47026 -0.25
    endloop
  endfacet
  facet normal 0.985278 0.170962 0
    outer loop
      vertex 14.8376 2.20096 0.25
      vertex 14.8376 2.20096 -0.25
      vertex 14.7118 2.92635 -0.25
    endloop
  endfacet
  facet normal 0.985278 0.170962 0
    outer loop
      vertex 14.7118 2.92635 0.25
      vertex 14.8376 2.20096 0.25
      vertex 14.7118 2.92635 -0.25
    endloop
  endfacet
  facet normal 0.949528 0.313682 0
    outer loop
      vertex 14.3541 4.35427 0.25
      vertex 14.3541 4.35427 -0.25
      vertex 14.1232 5.05335 -0.25
    endloop
  endfacet
  facet normal 0.949528 0.313682 0
    outer loop
      vertex 14.1232 5.05335 0.25
      vertex 14.3541 4.35427 0.25
      vertex 14.1232 5.05335 -0.25
    endloop
  endfacet
  facet normal 0.963776 0.266713 0
    outer loop
      vertex 14.5505 3.6447 0.25
      vertex 14.5505 3.6447 -0.25
      vertex 14.3541 4.35427 -0.25
    endloop
  endfacet
  facet normal 0.963776 0.266713 0
    outer loop
      vertex 14.3541 4.35427 0.25
      vertex 14.5505 3.6447 0.25
      vertex 14.3541 4.35427 -0.25
    endloop
  endfacet
  facet normal 0.788346 0.615232 0
    outer loop
      vertex 12.0481 8.93549 0.25
      vertex 12.0481 8.93549 -0.25
      vertex 11.5952 9.5159 -0.25
    endloop
  endfacet
  facet normal 0.788346 0.615232 0
    outer loop
      vertex 11.5952 9.5159 0.25
      vertex 12.0481 8.93549 0.25
      vertex 11.5952 9.5159 -0.25
    endloop
  endfacet
  facet normal 0.817585 0.575808 0
    outer loop
      vertex 12.472 8.33355 0.25
      vertex 12.472 8.33355 -0.25
      vertex 12.0481 8.93549 -0.25
    endloop
  endfacet
  facet normal 0.817585 0.575808 0
    outer loop
      vertex 12.0481 8.93549 0.25
      vertex 12.472 8.33355 0.25
      vertex 12.0481 8.93549 -0.25
    endloop
  endfacet
  facet normal 0.757209 0.653173 0
    outer loop
      vertex 11.5952 9.5159 0.25
      vertex 11.5952 9.5159 -0.25
      vertex 11.1143 10.0734 -0.25
    endloop
  endfacet
  facet normal 0.757209 0.653173 0
    outer loop
      vertex 11.1143 10.0734 0.25
      vertex 11.5952 9.5159 0.25
      vertex 11.1143 10.0734 -0.25
    endloop
  endfacet
  facet normal 0.870087 0.492898 0
    outer loop
      vertex 13.2288 7.07095 0.25
      vertex 13.2288 7.07095 -0.25
      vertex 12.8659 7.71154 -0.25
    endloop
  endfacet
  facet normal 0.870087 0.492898 0
    outer loop
      vertex 12.8659 7.71154 0.25
      vertex 13.2288 7.07095 0.25
      vertex 12.8659 7.71154 -0.25
    endloop
  endfacet
  facet normal 0.91421 0.405241 0
    outer loop
      vertex 13.8582 5.74025 0.25
      vertex 13.8582 5.74025 -0.25
      vertex 13.5598 6.41333 -0.25
    endloop
  endfacet
  facet normal 0.91421 0.405241 0
    outer loop
      vertex 13.5598 6.41333 0.25
      vertex 13.8582 5.74025 0.25
      vertex 13.5598 6.41333 -0.25
    endloop
  endfacet
  facet normal 0.122411 0.99248 -0
    outer loop
      vertex 1.47026 14.9278 -0.25
      vertex 1.47026 14.9278 0.25
      vertex 2.20096 14.8376 -0.25
    endloop
  endfacet
  facet normal 0.122411 0.99248 -0
    outer loop
      vertex 2.20096 14.8376 -0.25
      vertex 1.47026 14.9278 0.25
      vertex 2.20096 14.8376 0.25
    endloop
  endfacet
  facet normal 0.313682 0.949528 -0
    outer loop
      vertex 4.35427 14.3541 -0.25
      vertex 4.35427 14.3541 0.25
      vertex 5.05335 14.1232 -0.25
    endloop
  endfacet
  facet normal 0.313682 0.949528 -0
    outer loop
      vertex 5.05335 14.1232 -0.25
      vertex 4.35427 14.3541 0.25
      vertex 5.05335 14.1232 0.25
    endloop
  endfacet
  facet normal 0.359895 0.932993 -0
    outer loop
      vertex 5.05335 14.1232 -0.25
      vertex 5.05335 14.1232 0.25
      vertex 5.74025 13.8582 -0.25
    endloop
  endfacet
  facet normal 0.359895 0.932993 -0
    outer loop
      vertex 5.74025 13.8582 -0.25
      vertex 5.05335 14.1232 0.25
      vertex 5.74025 13.8582 0.25
    endloop
  endfacet
  facet normal 0.266713 0.963776 -0
    outer loop
      vertex 3.6447 14.5505 -0.25
      vertex 3.6447 14.5505 0.25
      vertex 4.35427 14.3541 -0.25
    endloop
  endfacet
  facet normal 0.266713 0.963776 -0
    outer loop
      vertex 4.35427 14.3541 -0.25
      vertex 3.6447 14.5505 0.25
      vertex 4.35427 14.3541 0.25
    endloop
  endfacet
  facet normal 0.170962 0.985278 -0
    outer loop
      vertex 2.20096 14.8376 -0.25
      vertex 2.20096 14.8376 0.25
      vertex 2.92635 14.7118 -0.25
    endloop
  endfacet
  facet normal 0.170962 0.985278 -0
    outer loop
      vertex 2.92635 14.7118 -0.25
      vertex 2.20096 14.8376 0.25
      vertex 2.92635 14.7118 0.25
    endloop
  endfacet
  facet normal 0.0735646 0.99729 -0
    outer loop
      vertex 0.736015 14.9819 -0.25
      vertex 0.736015 14.9819 0.25
      vertex 1.47026 14.9278 -0.25
    endloop
  endfacet
  facet normal 0.0735646 0.99729 -0
    outer loop
      vertex 1.47026 14.9278 -0.25
      vertex 0.736015 14.9819 0.25
      vertex 1.47026 14.9278 0.25
    endloop
  endfacet
  facet normal 0.492898 0.870087 -0
    outer loop
      vertex 7.07095 13.2288 -0.25
      vertex 7.07095 13.2288 0.25
      vertex 7.71154 12.8659 -0.25
    endloop
  endfacet
  facet normal 0.492898 0.870087 -0
    outer loop
      vertex 7.71154 12.8659 -0.25
      vertex 7.07095 13.2288 0.25
      vertex 7.71154 12.8659 0.25
    endloop
  endfacet
  facet normal 0.534998 0.844854 -0
    outer loop
      vertex 7.71154 12.8659 -0.25
      vertex 7.71154 12.8659 0.25
      vertex 8.33355 12.472 -0.25
    endloop
  endfacet
  facet normal 0.534998 0.844854 -0
    outer loop
      vertex 8.33355 12.472 -0.25
      vertex 7.71154 12.8659 0.25
      vertex 8.33355 12.472 0.25
    endloop
  endfacet
  facet normal 0.449611 0.893224 -0
    outer loop
      vertex 6.41333 13.5598 -0.25
      vertex 6.41333 13.5598 0.25
      vertex 7.07095 13.2288 -0.25
    endloop
  endfacet
  facet normal 0.449611 0.893224 -0
    outer loop
      vertex 7.07095 13.2288 -0.25
      vertex 6.41333 13.5598 0.25
      vertex 7.07095 13.2288 0.25
    endloop
  endfacet
  facet normal 0.615232 0.788346 -0
    outer loop
      vertex 8.93549 12.0481 -0.25
      vertex 8.93549 12.0481 0.25
      vertex 9.5159 11.5952 -0.25
    endloop
  endfacet
  facet normal 0.615232 0.788346 -0
    outer loop
      vertex 9.5159 11.5952 -0.25
      vertex 8.93549 12.0481 0.25
      vertex 9.5159 11.5952 0.25
    endloop
  endfacet
  facet normal 0.689541 0.724247 -0
    outer loop
      vertex 10.0734 11.1143 -0.25
      vertex 10.0734 11.1143 0.25
      vertex 10.6066 10.6066 -0.25
    endloop
  endfacet
  facet normal 0.689541 0.724247 -0
    outer loop
      vertex 10.6066 10.6066 -0.25
      vertex 10.0734 11.1143 0.25
      vertex 10.6066 10.6066 0.25
    endloop
  endfacet
  facet normal -0.534998 0.844854 0
    outer loop
      vertex -8.33355 12.472 -0.25
      vertex -8.33355 12.472 0.25
      vertex -7.71154 12.8659 -0.25
    endloop
  endfacet
  facet normal -0.534998 0.844854 0
    outer loop
      vertex -7.71154 12.8659 -0.25
      vertex -8.33355 12.472 0.25
      vertex -7.71154 12.8659 0.25
    endloop
  endfacet
  facet normal -0.844854 0.534998 0
    outer loop
      vertex -12.8659 7.71154 -0.25
      vertex -12.8659 7.71154 0.25
      vertex -12.472 8.33355 -0.25
    endloop
  endfacet
  facet normal -0.844854 0.534998 0
    outer loop
      vertex -12.472 8.33355 -0.25
      vertex -12.8659 7.71154 0.25
      vertex -12.472 8.33355 0.25
    endloop
  endfacet
  facet normal -0.91421 0.405241 0
    outer loop
      vertex -13.8582 5.74025 -0.25
      vertex -13.8582 5.74025 0.25
      vertex -13.5598 6.41333 -0.25
    endloop
  endfacet
  facet normal -0.91421 0.405241 0
    outer loop
      vertex -13.5598 6.41333 -0.25
      vertex -13.8582 5.74025 0.25
      vertex -13.5598 6.41333 0.25
    endloop
  endfacet
  facet normal -0.266713 -0.963776 0
    outer loop
      vertex -3.6447 -14.5505 -0.25
      vertex -4.35427 -14.3541 0.25
      vertex -4.35427 -14.3541 -0.25
    endloop
  endfacet
  facet normal -0.266713 -0.963776 0
    outer loop
      vertex -3.6447 -14.5505 -0.25
      vertex -3.6447 -14.5505 0.25
      vertex -4.35427 -14.3541 0.25
    endloop
  endfacet
  facet normal -0.0245412 -0.999699 0
    outer loop
      vertex -2.75546e-15 -15 -0.25
      vertex -0.736015 -14.9819 0.25
      vertex -0.736015 -14.9819 -0.25
    endloop
  endfacet
  facet normal -0.0245412 -0.999699 0
    outer loop
      vertex -2.75546e-15 -15 -0.25
      vertex -2.75546e-15 -15 0.25
      vertex -0.736015 -14.9819 0.25
    endloop
  endfacet
  facet normal -0.122411 -0.99248 0
    outer loop
      vertex -1.47026 -14.9278 -0.25
      vertex -2.20096 -14.8376 0.25
      vertex -2.20096 -14.8376 -0.25
    endloop
  endfacet
  facet normal -0.122411 -0.99248 0
    outer loop
      vertex -1.47026 -14.9278 -0.25
      vertex -1.47026 -14.9278 0.25
      vertex -2.20096 -14.8376 0.25
    endloop
  endfacet
  facet normal 0.0245412 -0.999699 0
    outer loop
      vertex 0.736015 -14.9819 -0.25
      vertex -2.75546e-15 -15 0.25
      vertex -2.75546e-15 -15 -0.25
    endloop
  endfacet
  facet normal 0.0245412 -0.999699 0
    outer loop
      vertex 0.736015 -14.9819 -0.25
      vertex 0.736015 -14.9819 0.25
      vertex -2.75546e-15 -15 0.25
    endloop
  endfacet
  facet normal -0.817585 -0.575808 0
    outer loop
      vertex -12.472 -8.33355 -0.25
      vertex -12.0481 -8.93549 0.25
      vertex -12.472 -8.33355 0.25
    endloop
  endfacet
  facet normal -0.817585 -0.575808 0
    outer loop
      vertex -12.472 -8.33355 -0.25
      vertex -12.0481 -8.93549 -0.25
      vertex -12.0481 -8.93549 0.25
    endloop
  endfacet
  facet normal -0.689541 -0.724247 0
    outer loop
      vertex -10.0734 -11.1143 -0.25
      vertex -10.6066 -10.6066 0.25
      vertex -10.6066 -10.6066 -0.25
    endloop
  endfacet
  facet normal -0.689541 -0.724247 0
    outer loop
      vertex -10.0734 -11.1143 -0.25
      vertex -10.0734 -11.1143 0.25
      vertex -10.6066 -10.6066 0.25
    endloop
  endfacet
  facet normal -0.91421 -0.405241 0
    outer loop
      vertex -13.8582 -5.74025 -0.25
      vertex -13.5598 -6.41333 0.25
      vertex -13.8582 -5.74025 0.25
    endloop
  endfacet
  facet normal -0.91421 -0.405241 0
    outer loop
      vertex -13.8582 -5.74025 -0.25
      vertex -13.5598 -6.41333 -0.25
      vertex -13.5598 -6.41333 0.25
    endloop
  endfacet
  facet normal -0.975702 -0.219101 0
    outer loop
      vertex -14.7118 -2.92635 -0.25
      vertex -14.5505 -3.6447 0.25
      vertex -14.7118 -2.92635 0.25
    endloop
  endfacet
  facet normal -0.975702 -0.219101 0
    outer loop
      vertex -14.7118 -2.92635 -0.25
      vertex -14.5505 -3.6447 -0.25
      vertex -14.5505 -3.6447 0.25
    endloop
  endfacet
  facet normal -0.985278 -0.170962 0
    outer loop
      vertex -14.8376 -2.20096 -0.25
      vertex -14.7118 -2.92635 0.25
      vertex -14.8376 -2.20096 0.25
    endloop
  endfacet
  facet normal -0.985278 -0.170962 0
    outer loop
      vertex -14.8376 -2.20096 -0.25
      vertex -14.7118 -2.92635 -0.25
      vertex -14.7118 -2.92635 0.25
    endloop
  endfacet
  facet normal -0.99248 -0.122411 0
    outer loop
      vertex -14.9278 -1.47026 -0.25
      vertex -14.8376 -2.20096 0.25
      vertex -14.9278 -1.47026 0.25
    endloop
  endfacet
  facet normal -0.99248 -0.122411 0
    outer loop
      vertex -14.9278 -1.47026 -0.25
      vertex -14.8376 -2.20096 -0.25
      vertex -14.8376 -2.20096 0.25
    endloop
  endfacet
  facet normal -0.99729 -0.0735646 0
    outer loop
      vertex -14.9819 -0.736015 -0.25
      vertex -14.9278 -1.47026 0.25
      vertex -14.9819 -0.736015 0.25
    endloop
  endfacet
  facet normal -0.99729 -0.0735646 0
    outer loop
      vertex -14.9819 -0.736015 -0.25
      vertex -14.9278 -1.47026 -0.25
      vertex -14.9278 -1.47026 0.25
    endloop
  endfacet
  facet normal 0 0 1
    outer loop
      vertex -10.5 1.28588e-15 0.25
      vertex -14.9819 0.736015 0.25
      vertex -15 1.83697e-15 0.25
    endloop
  endfacet
  facet normal 0 0 1
    outer loop
      vertex -10.5 1.28588e-15 0.25
      vertex -14.9278 1.47026 0.25
      vertex -14.9819 0.736015 0.25
    endloop
  endfacet
  facet normal 0 -0 1
    outer loop
      vertex -14.9278 -1.47026 0.25
      vertex -10.5 1.28588e-15 0.25
      vertex -14.9819 -0.736015 0.25
    endloop
  endfacet
  facet normal 0 -0 1
    outer loop
      vertex -14.8376 -2.20096 0.25
      vertex -10.5 1.28588e-15 0.25
      vertex -14.9278 -1.47026 0.25
    endloop
  endfacet
  facet normal 0 -0 1
    outer loop
      vertex -14.7118 -2.92635 0.25
      vertex -10.5 1.28588e-15 0.25
      vertex -14.8376 -2.20096 0.25
    endloop
  endfacet
  facet normal 0 -0 1
    outer loop
      vertex -14.5505 -3.6447 0.25
      vertex -10.5 1.28588e-15 0.25
      vertex -14.7118 -2.92635 0.25
    endloop
  endfacet
  facet normal 0 0 1
    outer loop
      vertex -10.5 1.28588e-15 0.25
      vertex -15 1.83697e-15 0.25
      vertex -14.9819 -0.736015 0.25
    endloop
  endfacet
  facet normal 0 -0 1
    outer loop
      vertex -14.1232 -5.05335 0.25
      vertex -10.5 1.28588e-15 0.25
      vertex -14.3541 -4.35427 0.25
    endloop
  endfacet
  facet normal 0 -0 1
    outer loop
      vertex -13.8582 -5.74025 0.25
      vertex -10.5 1.28588e-15 0.25
      vertex -14.1232 -5.05335 0.25
    endloop
  endfacet
  facet normal 0 -0 1
    outer loop
      vertex -13.5598 -6.41333 0.25
      vertex -10.5 1.28588e-15 0.25
      vertex -13.8582 -5.74025 0.25
    endloop
  endfacet
  facet normal 0 -0 1
    outer loop
      vertex -13.2288 -7.07095 0.25
      vertex -10.5 1.28588e-15 0.25
      vertex -13.5598 -6.41333 0.25
    endloop
  endfacet
  facet normal 0 0 1
    outer loop
      vertex -10.5 1.28588e-15 0.25
      vertex -14.5505 -3.6447 0.25
      vertex -14.3541 -4.35427 0.25
    endloop
  endfacet
  facet normal -0 -0 1
    outer loop
      vertex -12.472 -8.33355 0.25
      vertex -5.25 -9.09327 0.25
      vertex -12.8659 -7.71154 0.25
    endloop
  endfacet
  facet normal -0 -0 1
    outer loop
      vertex -12.0481 -8.93549 0.25
      vertex -5.25 -9.09327 0.25
      vertex -12.472 -8.33355 0.25
    endloop
  endfacet
  facet normal 0 -0 1
    outer loop
      vertex -11.5952 -9.5159 0.25
      vertex -5.25 -9.09327 0.25
      vertex -12.0481 -8.93549 0.25
    endloop
  endfacet
  facet normal 0 -0 1
    outer loop
      vertex -11.1143 -10.0734 0.25
      vertex -5.25 -9.09327 0.25
      vertex -11.5952 -9.5159 0.25
    endloop
  endfacet
  facet normal 0 -0 1
    outer loop
      vertex -10.6066 -10.6066 0.25
      vertex -5.25 -9.09327 0.25
      vertex -11.1143 -10.0734 0.25
    endloop
  endfacet
  facet normal 0 -0 1
    outer loop
      vertex -10.0734 -11.1143 0.25
      vertex -5.25 -9.09327 0.25
      vertex -10.6066 -10.6066 0.25
    endloop
  endfacet
  facet normal 0 -0 1
    outer loop
      vertex -9.5159 -11.5952 0.25
      vertex -5.25 -9.09327 0.25
      vertex -10.0734 -11.1143 0.25
    endloop
  endfacet
  facet normal 0 -0 1
    outer loop
      vertex -8.93549 -12.0481 0.25
      vertex -5.25 -9.09327 0.25
      vertex -9.5159 -11.5952 0.25
    endloop
  endfacet
  facet normal 0 -0 1
    outer loop
      vertex -8.33355 -12.472 0.25
      vertex -5.25 -9.09327 0.25
      vertex -8.93549 -12.0481 0.25
    endloop
  endfacet
  facet normal 0 -0 1
    outer loop
      vertex -7.71154 -12.8659 0.25
      vertex -5.25 -9.09327 0.25
      vertex -8.33355 -12.472 0.25
    endloop
  endfacet
  facet normal 0 -0 1
    outer loop
      vertex -7.07095 -13.2288 0.25
      vertex -5.25 -9.09327 0.25
      vertex -7.71154 -12.8659 0.25
    endloop
  endfacet
  facet normal 0 -0 1
    outer loop
      vertex -6.41333 -13.5598 0.25
      vertex -5.25 -9.09327 0.25
      vertex -7.07095 -13.2288 0.25
    endloop
  endfacet
  facet normal 0 -0 1
    outer loop
      vertex -5.74025 -13.8582 0.25
      vertex -5.25 -9.09327 0.25
      vertex -6.41333 -13.5598 0.25
    endloop
  endfacet
  facet normal 0 0 1
    outer loop
      vertex -5.05335 -14.1232 0.25
      vertex -5.25 -9.09327 0.25
      vertex -5.74025 -13.8582 0.25
    endloop
  endfacet
  facet normal 0 0 1
    outer loop
      vertex -4.35427 -14.3541 0.25
      vertex -5.25 -9.09327 0.25
      vertex -5.05335 -14.1232 0.25
    endloop
  endfacet
  facet normal 0 0 1
    outer loop
      vertex -3.6447 -14.5505 0.25
      vertex -5.25 -9.09327 0.25
      vertex -4.35427 -14.3541 0.25
    endloop
  endfacet
  facet normal 0 0 1
    outer loop
      vertex -2.92635 -14.7118 0.25
      vertex -5.25 -9.09327 0.25
      vertex -3.6447 -14.5505 0.25
    endloop
  endfacet
  facet normal 0 0 1
    outer loop
      vertex -2.20096 -14.8376 0.25
      vertex -5.25 -9.09327 0.25
      vertex -2.92635 -14.7118 0.25
    endloop
  endfacet
  facet normal 0 0 1
    outer loop
      vertex -1.47026 -14.9278 0.25
      vertex -5.25 -9.09327 0.25
      vertex -2.20096 -14.8376 0.25
    endloop
  endfacet
  facet normal 0 0 1
    outer loop
      vertex -0.736015 -14.9819 0.25
      vertex -5.25 -9.09327 0.25
      vertex -1.47026 -14.9278 0.25
    endloop
  endfacet
  facet normal 0 0 1
    outer loop
      vertex -2.75546e-15 -15 0.25
      vertex -5.25 -9.09327 0.25
      vertex -0.736015 -14.9819 0.25
    endloop
  endfacet
  facet normal 0 0 1
    outer loop
      vertex 5.25 -9.09327 0.25
      vertex -5.25 -9.09327 0.25
      vertex -2.75546e-15 -15 0.25
    endloop
  endfacet
  facet normal 0 0 1
    outer loop
      vertex 5.25 -9.09327 0.25
      vertex -2.75546e-15 -15 0.25
      vertex 0.736015 -14.9819 0.25
    endloop
  endfacet
  facet normal 0 0 1
    outer loop
      vertex 5.25 -9.09327 0.25
      vertex 0.736015 -14.9819 0.25
      vertex 1.47026 -14.9278 0.25
    endloop
  endfacet
  facet normal 0 0 1
    outer loop
      vertex 5.25 -9.09327 0.25
      vertex 1.47026 -14.9278 0.25
      vertex 2.20096 -14.8376 0.25
    endloop
  endfacet
  facet normal 0 0 1
    outer loop
      vertex 5.25 -9.09327 0.25
      vertex 2.20096 -14.8376 0.25
      vertex 2.92635 -14.7118 0.25
    endloop
  endfacet
  facet normal 0 0 1
    outer loop
      vertex 10.5 0 0.25
      vertex 14.8376 2.20096 0.25
      vertex 14.7118 2.92635 0.25
    endloop
  endfacet
  facet normal 0 0 1
    outer loop
      vertex 5.25 -9.09327 0.25
      vertex 3.6447 -14.5505 0.25
      vertex 4.35427 -14.3541 0.25
    endloop
  endfacet
  facet normal 0 0 1
    outer loop
      vertex 5.25 -9.09327 0.25
      vertex 4.35427 -14.3541 0.25
      vertex 5.05335 -14.1232 0.25
    endloop
  endfacet
  facet normal 0 0 1
    outer loop
      vertex 5.25 -9.09327 0.25
      vertex 5.05335 -14.1232 0.25
      vertex 5.74025 -13.8582 0.25
    endloop
  endfacet
  facet normal 0 0 1
    outer loop
      vertex 5.25 -9.09327 0.25
      vertex 5.74025 -13.8582 0.25
      vertex 6.41333 -13.5598 0.25
    endloop
  endfacet
  facet normal 0 0 1
    outer loop
      vertex 5.25 -9.09327 0.25
      vertex 6.41333 -13.5598 0.25
      vertex 7.07095 -13.2288 0.25
    endloop
  endfacet
  facet normal 0 0 1
    outer loop
      vertex 5.25 -9.09327 0.25
      vertex 7.71154 -12.8659 0.25
      vertex 8.33355 -12.472 0.25
    endloop
  endfacet
  facet normal 0 0 1
    outer loop
      vertex 5.25 -9.09327 0.25
      vertex 8.33355 -12.472 0.25
      vertex 8.93549 -12.0481 0.25
    endloop
  endfacet
  facet normal 0 0 1
    outer loop
      vertex 5.25 -9.09327 0.25
      vertex 8.93549 -12.0481 0.25
      vertex 9.5159 -11.5952 0.25
    endloop
  endfacet
  facet normal 0 0 1
    outer loop
      vertex 5.25 -9.09327 0.25
      vertex 9.5159 -11.5952 0.25
      vertex 10.0734 -11.1143 0.25
    endloop
  endfacet
  facet normal 0 0 1
    outer loop
      vertex 5.25 -9.09327 0.25
      vertex 10.0734 -11.1143 0.25
      vertex 10.6066 -10.6066 0.25
    endloop
  endfacet
  facet normal 0 0 1
    outer loop
      vertex 5.25 -9.09327 0.25
      vertex 10.6066 -10.6066 0.25
      vertex 11.1143 -10.0734 0.25
    endloop
  endfacet
  facet normal 0 0 1
    outer loop
      vertex 5.25 -9.09327 0.25
      vertex 11.1143 -10.0734 0.25
      vertex 11.5952 -9.5159 0.25
    endloop
  endfacet
  facet normal -0 0 1
    outer loop
      vertex 5.25 -9.09327 0.25
      vertex 11.5952 -9.5159 0.25
      vertex 12.0481 -8.93549 0.25
    endloop
  endfacet
  facet normal 0 0 1
    outer loop
      vertex 5.25 -9.09327 0.25
      vertex 12.0481 -8.93549 0.25
      vertex 12.472 -8.33355 0.25
    endloop
  endfacet
  facet normal 0 -0 1
    outer loop
      vertex 12.472 -8.33355 0.25
      vertex 12.8659 -7.71154 0.25
      vertex 5.25 -9.09327 0.25
    endloop
  endfacet
  facet normal 0 -0 1
    outer loop
      vertex 12.8659 -7.71154 0.25
      vertex 13.2288 -7.07095 0.25
      vertex 10.5 0 0.25
    endloop
  endfacet
  facet normal 0 -0 1
    outer loop
      vertex 13.2288 -7.07095 0.25
      vertex 13.5598 -6.41333 0.25
      vertex 10.5 0 0.25
    endloop
  endfacet
  facet normal 0 0 1
    outer loop
      vertex 10.5 0 0.25
      vertex 13.8582 -5.74025 0.25
      vertex 14.1232 -5.05335 0.25
    endloop
  endfacet
  facet normal 0 0 1
    outer loop
      vertex 10.5 0 0.25
      vertex 14.1232 -5.05335 0.25
      vertex 14.3541 -4.35427 0.25
    endloop
  endfacet
  facet normal 0 0 1
    outer loop
      vertex 10.5 0 0.25
      vertex 14.3541 -4.35427 0.25
      vertex 14.5505 -3.6447 0.25
    endloop
  endfacet
  facet normal 0 0 1
    outer loop
      vertex 10.5 0 0.25
      vertex 14.5505 -3.6447 0.25
      vertex 14.7118 -2.92635 0.25
    endloop
  endfacet
  facet normal 0 0 1
    outer loop
      vertex 10.5 0 0.25
      vertex 14.7118 -2.92635 0.25
      vertex 14.8376 -2.20096 0.25
    endloop
  endfacet
  facet normal 0 0 1
    outer loop
      vertex 10.5 0 0.25
      vertex 14.8376 -2.20096 0.25
      vertex 14.9278 -1.47026 0.25
    endloop
  endfacet
  facet normal 0 0 1
    outer loop
      vertex 10.5 0 0.25
      vertex 14.9278 -1.47026 0.25
      vertex 14.9819 -0.736015 0.25
    endloop
  endfacet
  facet normal 0 -0 1
    outer loop
      vertex 14.9819 -0.736015 0.25
      vertex 15 0 0.25
      vertex 10.5 0 0.25
    endloop
  endfacet
  facet normal 0 0 1
    outer loop
      vertex 15 0 0.25
      vertex 14.9819 0.736015 0.25
      vertex 10.5 0 0.25
    endloop
  endfacet
  facet normal 0 0 1
    outer loop
      vertex 14.9819 0.736015 0.25
      vertex 14.9278 1.47026 0.25
      vertex 10.5 0 0.25
    endloop
  endfacet
  facet normal 0 0 1
    outer loop
      vertex 14.9278 1.47026 0.25
      vertex 14.8376 2.20096 0.25
      vertex 10.5 0 0.25
    endloop
  endfacet
  facet normal 0 0 1
    outer loop
      vertex -14.1232 5.05335 0.25
      vertex -14.3541 4.35427 0.25
      vertex -10.5 1.28588e-15 0.25
    endloop
  endfacet
  facet normal 0 0 1
    outer loop
      vertex 14.7118 2.92635 0.25
      vertex 14.5505 3.6447 0.25
      vertex 10.5 0 0.25
    endloop
  endfacet
  facet normal 0 0 1
    outer loop
      vertex 14.5505 3.6447 0.25
      vertex 14.3541 4.35427 0.25
      vertex 10.5 0 0.25
    endloop
  endfacet
  facet normal 0 0 1
    outer loop
      vertex 14.3541 4.35427 0.25
      vertex 14.1232 5.05335 0.25
      vertex 10.5 0 0.25
    endloop
  endfacet
  facet normal 0 0 1
    outer loop
      vertex 14.1232 5.05335 0.25
      vertex 13.8582 5.74025 0.25
      vertex 10.5 0 0.25
    endloop
  endfacet
  facet normal 0 0 1
    outer loop
      vertex 13.8582 5.74025 0.25
      vertex 13.5598 6.41333 0.25
      vertex 10.5 0 0.25
    endloop
  endfacet
  facet normal 0 0 1
    outer loop
      vertex 13.2288 7.07095 0.25
      vertex 10.5 0 0.25
      vertex 13.5598 6.41333 0.25
    endloop
  endfacet
  facet normal 0 0 1
    outer loop
      vertex 12.8659 7.71154 0.25
      vertex 10.5 0 0.25
      vertex 13.2288 7.07095 0.25
    endloop
  endfacet
  facet normal 0 0 1
    outer loop
      vertex 12.472 8.33355 0.25
      vertex 5.25 9.09327 0.25
      vertex 12.8659 7.71154 0.25
    endloop
  endfacet
  facet normal 0 0 1
    outer loop
      vertex 12.0481 8.93549 0.25
      vertex 11.5952 9.5159 0.25
      vertex 5.25 9.09327 0.25
    endloop
  endfacet
  facet normal 0 0 1
    outer loop
      vertex 11.5952 9.5159 0.25
      vertex 11.1143 10.0734 0.25
      vertex 5.25 9.09327 0.25
    endloop
  endfacet
  facet normal 0 0 1
    outer loop
      vertex 11.1143 10.0734 0.25
      vertex 10.6066 10.6066 0.25
      vertex 5.25 9.09327 0.25
    endloop
  endfacet
  facet normal 0 0 1
    outer loop
      vertex 10.6066 10.6066 0.25
      vertex 10.0734 11.1143 0.25
      vertex 5.25 9.09327 0.25
    endloop
  endfacet
  facet normal 0 0 1
    outer loop
      vertex 10.0734 11.1143 0.25
      vertex 9.5159 11.5952 0.25
      vertex 5.25 9.09327 0.25
    endloop
  endfacet
  facet normal 0 0 1
    outer loop
      vertex 9.5159 11.5952 0.25
      vertex 8.93549 12.0481 0.25
      vertex 5.25 9.09327 0.25
    endloop
  endfacet
  facet normal 0 0 1
    outer loop
      vertex 8.93549 12.0481 0.25
      vertex 8.33355 12.472 0.25
      vertex 5.25 9.09327 0.25
    endloop
  endfacet
  facet normal 0 0 1
    outer loop
      vertex 8.33355 12.472 0.25
      vertex 7.71154 12.8659 0.25
      vertex 5.25 9.09327 0.25
    endloop
  endfacet
  facet normal 0 0 1
    outer loop
      vertex 7.71154 12.8659 0.25
      vertex 7.07095 13.2288 0.25
      vertex 5.25 9.09327 0.25
    endloop
  endfacet
  facet normal 0 0 1
    outer loop
      vertex 7.07095 13.2288 0.25
      vertex 6.41333 13.5598 0.25
      vertex 5.25 9.09327 0.25
    endloop
  endfacet
  facet normal 0 0 1
    outer loop
      vertex 6.41333 13.5598 0.25
      vertex 5.74025 13.8582 0.25
      vertex 5.25 9.09327 0.25
    endloop
  endfacet
  facet normal 0 0 1
    outer loop
      vertex 5.74025 13.8582 0.25
      vertex 5.05335 14.1232 0.25
      vertex 5.25 9.09327 0.25
    endloop
  endfacet
  facet normal 0 0 1
    outer loop
      vertex 5.05335 14.1232 0.25
      vertex 4.35427 14.3541 0.25
      vertex 5.25 9.09327 0.25
    endloop
  endfacet
  facet normal 0 0 1
    outer loop
      vertex 4.35427 14.3541 0.25
      vertex 3.6447 14.5505 0.25
      vertex 5.25 9.09327 0.25
    endloop
  endfacet
  facet normal 0 0 1
    outer loop
      vertex 3.6447 14.5505 0.25
      vertex 2.92635 14.7118 0.25
      vertex 5.25 9.09327 0.25
    endloop
  endfacet
  facet normal 0 0 1
    outer loop
      vertex 2.92635 14.7118 0.25
      vertex 2.20096 14.8376 0.25
      vertex 5.25 9.09327 0.25
    endloop
  endfacet
  facet normal 0 0 1
    outer loop
      vertex 2.20096 14.8376 0.25
      vertex 1.47026 14.9278 0.25
      vertex 5.25 9.09327 0.25
    endloop
  endfacet
  facet normal 0 0 1
    outer loop
      vertex 1.47026 14.9278 0.25
      vertex 0.736015 14.9819 0.25
      vertex 5.25 9.09327 0.25
    endloop
  endfacet
  facet normal 0 0 1
    outer loop
      vertex 0.736015 14.9819 0.25
      vertex 9.18485e-16 15 0.25
      vertex 5.25 9.09327 0.25
    endloop
  endfacet
  facet normal 0 0 1
    outer loop
      vertex 9.18485e-16 15 0.25
      vertex -0.736015 14.9819 0.25
      vertex -5.25 9.09327 0.25
    endloop
  endfacet
  facet normal 0 0 1
    outer loop
      vertex -0.736015 14.9819 0.25
      vertex -1.47026 14.9278 0.25
      vertex -5.25 9.09327 0.25
    endloop
  endfacet
  facet normal 0 0 1
    outer loop
      vertex -5.25 9.09327 0.25
      vertex -2.20096 14.8376 0.25
      vertex -2.92635 14.7118 0.25
    endloop
  endfacet
  facet normal 0 0 1
    outer loop
      vertex -5.25 9.09327 0.25
      vertex -2.92635 14.7118 0.25
      vertex -3.6447 14.5505 0.25
    endloop
  endfacet
  facet normal 0 0 1
    outer loop
      vertex -5.25 9.09327 0.25
      vertex -3.6447 14.5505 0.25
      vertex -4.35427 14.3541 0.25
    endloop
  endfacet
  facet normal 0 0 1
    outer loop
      vertex -5.25 9.09327 0.25
      vertex -4.35427 14.3541 0.25
      vertex -5.05335 14.1232 0.25
    endloop
  endfacet
  facet normal 0 -0 1
    outer loop
      vertex -5.25 9.09327 0.25
      vertex -5.05335 14.1232 0.25
      vertex -5.74025 13.8582 0.25
    endloop
  endfacet
  facet normal 0 0 1
    outer loop
      vertex -5.25 9.09327 0.25
      vertex -5.74025 13.8582 0.25
      vertex -6.41333 13.5598 0.25
    endloop
  endfacet
  facet normal 0 0 1
    outer loop
      vertex -5.25 9.09327 0.25
      vertex -6.41333 13.5598 0.25
      vertex -7.07095 13.2288 0.25
    endloop
  endfacet
  facet normal 0 0 1
    outer loop
      vertex -5.25 9.09327 0.25
      vertex -7.07095 13.2288 0.25
      vertex -7.71154 12.8659 0.25
    endloop
  endfacet
  facet normal 0 0 1
    outer loop
      vertex -5.25 9.09327 0.25
      vertex -7.71154 12.8659 0.25
      vertex -8.33355 12.472 0.25
    endloop
  endfacet
  facet normal 0 0 1
    outer loop
      vertex -5.25 9.09327 0.25
      vertex -8.33355 12.472 0.25
      vertex -8.93549 12.0481 0.25
    endloop
  endfacet
  facet normal 0 0 1
    outer loop
      vertex -5.25 9.09327 0.25
      vertex -8.93549 12.0481 0.25
      vertex -9.5159 11.5952 0.25
    endloop
  endfacet
  facet normal 0 0 1
    outer loop
      vertex -5.25 9.09327 0.25
      vertex -9.5159 11.5952 0.25
      vertex -10.0734 11.1143 0.25
    endloop
  endfacet
  facet normal 0 0 1
    outer loop
      vertex -5.25 9.09327 0.25
      vertex -10.0734 11.1143 0.25
      vertex -10.6066 10.6066 0.25
    endloop
  endfacet
  facet normal 0 0 1
    outer loop
      vertex -5.25 9.09327 0.25
      vertex -10.6066 10.6066 0.25
      vertex -11.1143 10.0734 0.25
    endloop
  endfacet
  facet normal 0 0 1
    outer loop
      vertex -5.25 9.09327 0.25
      vertex -11.1143 10.0734 0.25
      vertex -11.5952 9.5159 0.25
    endloop
  endfacet
  facet normal 0 0 1
    outer loop
      vertex -5.25 9.09327 0.25
      vertex -11.5952 9.5159 0.25
      vertex -12.0481 8.93549 0.25
    endloop
  endfacet
  facet normal 0 0 1
    outer loop
      vertex -5.25 9.09327 0.25
      vertex -12.0481 8.93549 0.25
      vertex -12.472 8.33355 0.25
    endloop
  endfacet
  facet normal 0 0 1
    outer loop
      vertex -5.25 9.09327 0.25
      vertex -12.472 8.33355 0.25
      vertex -12.8659 7.71154 0.25
    endloop
  endfacet
  facet normal 0 0 1
    outer loop
      vertex -10.5 1.28588e-15 0.25
      vertex -12.8659 7.71154 0.25
      vertex -13.2288 7.07095 0.25
    endloop
  endfacet
  facet normal -0 0 1
    outer loop
      vertex -12.8659 -7.71154 0.25
      vertex -5.25 -9.09327 0.25
      vertex -10.5 1.28588e-15 0.25
    endloop
  endfacet
  facet normal -0 0 1
    outer loop
      vertex -14.1232 5.05335 0.25
      vertex -10.5 1.28588e-15 0.25
      vertex -13.8582 5.74025 0.25
    endloop
  endfacet
  facet normal 0 0 1
    outer loop
      vertex -14.8376 2.20096 0.25
      vertex -14.9278 1.47026 0.25
      vertex -10.5 1.28588e-15 0.25
    endloop
  endfacet
  facet normal -0 0 1
    outer loop
      vertex -14.5505 3.6447 0.25
      vertex -10.5 1.28588e-15 0.25
      vertex -14.3541 4.35427 0.25
    endloop
  endfacet
  facet normal -0 0 1
    outer loop
      vertex -14.7118 2.92635 0.25
      vertex -10.5 1.28588e-15 0.25
      vertex -14.5505 3.6447 0.25
    endloop
  endfacet
  facet normal -0 0 1
    outer loop
      vertex -14.8376 2.20096 0.25
      vertex -10.5 1.28588e-15 0.25
      vertex -14.7118 2.92635 0.25
    endloop
  endfacet
  facet normal 0 0 1
    outer loop
      vertex 5.25 -9.09327 0.25
      vertex 2.92635 -14.7118 0.25
      vertex 3.6447 -14.5505 0.25
    endloop
  endfacet
  facet normal 0 0 1
    outer loop
      vertex -10.5 1.28588e-15 0.25
      vertex -13.2288 -7.07095 0.25
      vertex -12.8659 -7.71154 0.25
    endloop
  endfacet
  facet normal -0 0 1
    outer loop
      vertex -13.8582 5.74025 0.25
      vertex -10.5 1.28588e-15 0.25
      vertex -13.5598 6.41333 0.25
    endloop
  endfacet
  facet normal 0 0 1
    outer loop
      vertex -10.5 1.28588e-15 0.25
      vertex -13.2288 7.07095 0.25
      vertex -13.5598 6.41333 0.25
    endloop
  endfacet
  facet normal 0 -0 1
    outer loop
      vertex -10.5 1.28588e-15 0.25
      vertex -5.25 9.09327 0.25
      vertex -12.8659 7.71154 0.25
    endloop
  endfacet
  facet normal 0 0 1
    outer loop
      vertex -5.25 9.09327 0.25
      vertex -1.47026 14.9278 0.25
      vertex -2.20096 14.8376 0.25
    endloop
  endfacet
  facet normal 0 0 1
    outer loop
      vertex 12.0481 8.93549 0.25
      vertex 5.25 9.09327 0.25
      vertex 12.472 8.33355 0.25
    endloop
  endfacet
  facet normal 0 0 1
    outer loop
      vertex 5.25 9.09327 0.25
      vertex 9.18485e-16 15 0.25
      vertex -5.25 9.09327 0.25
    endloop
  endfacet
  facet normal 0 0 1
    outer loop
      vertex 5.25 9.09327 0.25
      vertex 10.5 0 0.25
      vertex 12.8659 7.71154 0.25
    endloop
  endfacet
  facet normal 0 0 1
    outer loop
      vertex 10.5 0 0.25
      vertex 13.5598 -6.41333 0.25
      vertex 13.8582 -5.74025 0.25
    endloop
  endfacet
  facet normal 0 0 1
    outer loop
      vertex 10.5 0 0.25
      vertex 5.25 -9.09327 0.25
      vertex 12.8659 -7.71154 0.25
    endloop
  endfacet
  facet normal 0 0 1
    outer loop
      vertex 5.25 -9.09327 0.25
      vertex 7.07095 -13.2288 0.25
      vertex 7.71154 -12.8659 0.25
    endloop
  endfacet
  facet normal 0.788346 -0.615232 0
    outer loop
      vertex 12.0481 -8.93549 -0.25
      vertex 11.5952 -9.5159 0.25
      vertex 11.5952 -9.5159 -0.25
    endloop
  endfacet
  facet normal 0.788346 -0.615232 0
    outer loop
      vertex 12.0481 -8.93549 -0.25
      vertex 12.0481 -8.93549 0.25
      vertex 11.5952 -9.5159 0.25
    endloop
  endfacet
  facet normal 0.844854 -0.534998 0
    outer loop
      vertex 12.8659 -7.71154 -0.25
      vertex 12.472 -8.33355 0.25
      vertex 12.472 -8.33355 -0.25
    endloop
  endfacet
  facet normal 0.844854 -0.534998 0
    outer loop
      vertex 12.8659 -7.71154 -0.25
      vertex 12.8659 -7.71154 0.25
      vertex 12.472 -8.33355 0.25
    endloop
  endfacet
  facet normal 0.932993 -0.359895 0
    outer loop
      vertex 14.1232 -5.05335 -0.25
      vertex 13.8582 -5.74025 0.25
      vertex 13.8582 -5.74025 -0.25
    endloop
  endfacet
  facet normal 0.932993 -0.359895 0
    outer loop
      vertex 14.1232 -5.05335 -0.25
      vertex 14.1232 -5.05335 0.25
      vertex 13.8582 -5.74025 0.25
    endloop
  endfacet
  facet normal 0.893224 -0.449611 0
    outer loop
      vertex 13.5598 -6.41333 -0.25
      vertex 13.2288 -7.07095 0.25
      vertex 13.2288 -7.07095 -0.25
    endloop
  endfacet
  facet normal 0.893224 -0.449611 0
    outer loop
      vertex 13.5598 -6.41333 -0.25
      vertex 13.5598 -6.41333 0.25
      vertex 13.2288 -7.07095 0.25
    endloop
  endfacet
  facet normal 0.963776 -0.266713 0
    outer loop
      vertex 14.5505 -3.6447 -0.25
      vertex 14.3541 -4.35427 0.25
      vertex 14.3541 -4.35427 -0.25
    endloop
  endfacet
  facet normal 0.963776 -0.266713 0
    outer loop
      vertex 14.5505 -3.6447 -0.25
      vertex 14.5505 -3.6447 0.25
      vertex 14.3541 -4.35427 0.25
    endloop
  endfacet
  facet normal 0.985278 -0.170962 0
    outer loop
      vertex 14.8376 -2.20096 -0.25
      vertex 14.7118 -2.92635 0.25
      vertex 14.7118 -2.92635 -0.25
    endloop
  endfacet
  facet normal 0.985278 -0.170962 0
    outer loop
      vertex 14.8376 -2.20096 -0.25
      vertex 14.8376 -2.20096 0.25
      vertex 14.7118 -2.92635 0.25
    endloop
  endfacet
  facet normal 0.99729 -0.0735646 0
    outer loop
      vertex 14.9819 -0.736015 -0.25
      vertex 14.9278 -1.47026 0.25
      vertex 14.9278 -1.47026 -0.25
    endloop
  endfacet
  facet normal 0.99729 -0.0735646 0
    outer loop
      vertex 14.9819 -0.736015 -0.25
      vertex 14.9819 -0.736015 0.25
      vertex 14.9278 -1.47026 0.25
    endloop
  endfacet
  facet normal 0.122411 -0.99248 0
    outer loop
      vertex 2.20096 -14.8376 -0.25
      vertex 1.47026 -14.9278 0.25
      vertex 1.47026 -14.9278 -0.25
    endloop
  endfacet
  facet normal 0.122411 -0.99248 0
    outer loop
      vertex 2.20096 -14.8376 -0.25
      vertex 2.20096 -14.8376 0.25
      vertex 1.47026 -14.9278 0.25
    endloop
  endfacet
  facet normal 0.219101 -0.975702 0
    outer loop
      vertex 3.6447 -14.5505 -0.25
      vertex 2.92635 -14.7118 0.25
      vertex 2.92635 -14.7118 -0.25
    endloop
  endfacet
  facet normal 0.219101 -0.975702 0
    outer loop
      vertex 3.6447 -14.5505 -0.25
      vertex 3.6447 -14.5505 0.25
      vertex 2.92635 -14.7118 0.25
    endloop
  endfacet
  facet normal 0.405241 -0.91421 0
    outer loop
      vertex 6.41333 -13.5598 -0.25
      vertex 5.74025 -13.8582 0.25
      vertex 5.74025 -13.8582 -0.25
    endloop
  endfacet
  facet normal 0.405241 -0.91421 0
    outer loop
      vertex 6.41333 -13.5598 -0.25
      vertex 6.41333 -13.5598 0.25
      vertex 5.74025 -13.8582 0.25
    endloop
  endfacet
  facet normal 0.313682 -0.949528 0
    outer loop
      vertex 5.05335 -14.1232 -0.25
      vertex 4.35427 -14.3541 0.25
      vertex 4.35427 -14.3541 -0.25
    endloop
  endfacet
  facet normal 0.313682 -0.949528 0
    outer loop
      vertex 5.05335 -14.1232 -0.25
      vertex 5.05335 -14.1232 0.25
      vertex 4.35427 -14.3541 0.25
    endloop
  endfacet
  facet normal 0.492898 -0.870087 0
    outer loop
      vertex 7.71154 -12.8659 -0.25
      vertex 7.07095 -13.2288 0.25
      vertex 7.07095 -13.2288 -0.25
    endloop
  endfacet
  facet normal 0.492898 -0.870087 0
    outer loop
      vertex 7.71154 -12.8659 -0.25
      vertex 7.71154 -12.8659 0.25
      vertex 7.07095 -13.2288 0.25
    endloop
  endfacet
  facet normal 0.575808 -0.817585 0
    outer loop
      vertex 8.93549 -12.0481 -0.25
      vertex 8.33355 -12.472 0.25
      vertex 8.33355 -12.472 -0.25
    endloop
  endfacet
  facet normal 0.575808 -0.817585 0
    outer loop
      vertex 8.93549 -12.0481 -0.25
      vertex 8.93549 -12.0481 0.25
      vertex 8.33355 -12.472 0.25
    endloop
  endfacet
  facet normal 0.653173 -0.757209 0
    outer loop
      vertex 10.0734 -11.1143 -0.25
      vertex 9.5159 -11.5952 0.25
      vertex 9.5159 -11.5952 -0.25
    endloop
  endfacet
  facet normal 0.653173 -0.757209 0
    outer loop
      vertex 10.0734 -11.1143 -0.25
      vertex 10.0734 -11.1143 0.25
      vertex 9.5159 -11.5952 0.25
    endloop
  endfacet
  facet normal -0.615232 0.788346 0
    outer loop
      vertex -9.5159 11.5952 -0.25
      vertex -9.5159 11.5952 0.25
      vertex -8.93549 12.0481 -0.25
    endloop
  endfacet
  facet normal -0.615232 0.788346 0
    outer loop
      vertex -8.93549 12.0481 -0.25
      vertex -9.5159 11.5952 0.25
      vertex -8.93549 12.0481 0.25
    endloop
  endfacet
  facet normal -0.449611 0.893224 0
    outer loop
      vertex -7.07095 13.2288 -0.25
      vertex -7.07095 13.2288 0.25
      vertex -6.41333 13.5598 -0.25
    endloop
  endfacet
  facet normal -0.449611 0.893224 0
    outer loop
      vertex -6.41333 13.5598 -0.25
      vertex -7.07095 13.2288 0.25
      vertex -6.41333 13.5598 0.25
    endloop
  endfacet
  facet normal -0.313682 0.949528 0
    outer loop
      vertex -5.05335 14.1232 -0.25
      vertex -5.05335 14.1232 0.25
      vertex -4.35427 14.3541 -0.25
    endloop
  endfacet
  facet normal -0.313682 0.949528 0
    outer loop
      vertex -4.35427 14.3541 -0.25
      vertex -5.05335 14.1232 0.25
      vertex -4.35427 14.3541 0.25
    endloop
  endfacet
  facet normal -0.266713 0.963776 0
    outer loop
      vertex -4.35427 14.3541 -0.25
      vertex -4.35427 14.3541 0.25
      vertex -3.6447 14.5505 -0.25
    endloop
  endfacet
  facet normal -0.266713 0.963776 0
    outer loop
      vertex -3.6447 14.5505 -0.25
      vertex -4.35427 14.3541 0.25
      vertex -3.6447 14.5505 0.25
    endloop
  endfacet
  facet normal -0.219101 0.975702 0
    outer loop
      vertex -3.6447 14.5505 -0.25
      vertex -3.6447 14.5505 0.25
      vertex -2.92635 14.7118 -0.25
    endloop
  endfacet
  facet normal -0.219101 0.975702 0
    outer loop
      vertex -2.92635 14.7118 -0.25
      vertex -3.6447 14.5505 0.25
      vertex -2.92635 14.7118 0.25
    endloop
  endfacet
  facet normal -0.870087 0.492898 0
    outer loop
      vertex -13.2288 7.07095 -0.25
      vertex -13.2288 7.07095 0.25
      vertex -12.8659 7.71154 -0.25
    endloop
  endfacet
  facet normal -0.870087 0.492898 0
    outer loop
      vertex -12.8659 7.71154 -0.25
      vertex -13.2288 7.07095 0.25
      vertex -12.8659 7.71154 0.25
    endloop
  endfacet
  facet normal -0.817585 0.575808 0
    outer loop
      vertex -12.472 8.33355 -0.25
      vertex -12.472 8.33355 0.25
      vertex -12.0481 8.93549 -0.25
    endloop
  endfacet
  facet normal -0.817585 0.575808 0
    outer loop
      vertex -12.0481 8.93549 -0.25
      vertex -12.472 8.33355 0.25
      vertex -12.0481 8.93549 0.25
    endloop
  endfacet
  facet normal -0.893224 0.449611 0
    outer loop
      vertex -13.5598 6.41333 -0.25
      vertex -13.5598 6.41333 0.25
      vertex -13.2288 7.07095 -0.25
    endloop
  endfacet
  facet normal -0.893224 0.449611 0
    outer loop
      vertex -13.2288 7.07095 -0.25
      vertex -13.5598 6.41333 0.25
      vertex -13.2288 7.07095 0.25
    endloop
  endfacet
  facet normal -0.963776 0.266713 0
    outer loop
      vertex -14.5505 3.6447 -0.25
      vertex -14.5505 3.6447 0.25
      vertex -14.3541 4.35427 -0.25
    endloop
  endfacet
  facet normal -0.963776 0.266713 0
    outer loop
      vertex -14.3541 4.35427 -0.25
      vertex -14.5505 3.6447 0.25
      vertex -14.3541 4.35427 0.25
    endloop
  endfacet
  facet normal -0.932993 0.359895 0
    outer loop
      vertex -14.1232 5.05335 -0.25
      vertex -14.1232 5.05335 0.25
      vertex -13.8582 5.74025 -0.25
    endloop
  endfacet
  facet normal -0.932993 0.359895 0
    outer loop
      vertex -13.8582 5.74025 -0.25
      vertex -14.1232 5.05335 0.25
      vertex -13.8582 5.74025 0.25
    endloop
  endfacet
  facet normal -0.219101 -0.975702 0
    outer loop
      vertex -2.92635 -14.7118 -0.25
      vertex -3.6447 -14.5505 0.25
      vertex -3.6447 -14.5505 -0.25
    endloop
  endfacet
  facet normal -0.219101 -0.975702 0
    outer loop
      vertex -2.92635 -14.7118 -0.25
      vertex -2.92635 -14.7118 0.25
      vertex -3.6447 -14.5505 0.25
    endloop
  endfacet
  facet normal -0.170962 -0.985278 0
    outer loop
      vertex -2.20096 -14.8376 -0.25
      vertex -2.92635 -14.7118 0.25
      vertex -2.92635 -14.7118 -0.25
    endloop
  endfacet
  facet normal -0.170962 -0.985278 0
    outer loop
      vertex -2.20096 -14.8376 -0.25
      vertex -2.20096 -14.8376 0.25
      vertex -2.92635 -14.7118 0.25
    endloop
  endfacet
  facet normal -0.0735646 -0.99729 0
    outer loop
      vertex -0.736015 -14.9819 -0.25
      vertex -1.47026 -14.9278 0.25
      vertex -1.47026 -14.9278 -0.25
    endloop
  endfacet
  facet normal -0.0735646 -0.99729 0
    outer loop
      vertex -0.736015 -14.9819 -0.25
      vertex -0.736015 -14.9819 0.25
      vertex -1.47026 -14.9278 0.25
    endloop
  endfacet
  facet normal -0.844854 -0.534998 0
    outer loop
      vertex -12.8659 -7.71154 -0.25
      vertex -12.472 -8.33355 0.25
      vertex -12.8659 -7.71154 0.25
    endloop
  endfacet
  facet normal -0.844854 -0.534998 0
    outer loop
      vertex -12.8659 -7.71154 -0.25
      vertex -12.472 -8.33355 -0.25
      vertex -12.472 -8.33355 0.25
    endloop
  endfacet
  facet normal -0.870087 -0.492898 0
    outer loop
      vertex -13.2288 -7.07095 -0.25
      vertex -12.8659 -7.71154 0.25
      vertex -13.2288 -7.07095 0.25
    endloop
  endfacet
  facet normal -0.870087 -0.492898 0
    outer loop
      vertex -13.2288 -7.07095 -0.25
      vertex -12.8659 -7.71154 -0.25
      vertex -12.8659 -7.71154 0.25
    endloop
  endfacet
  facet normal -0.893224 -0.449611 0
    outer loop
      vertex -13.5598 -6.41333 -0.25
      vertex -13.2288 -7.07095 0.25
      vertex -13.5598 -6.41333 0.25
    endloop
  endfacet
  facet normal -0.893224 -0.449611 0
    outer loop
      vertex -13.5598 -6.41333 -0.25
      vertex -13.2288 -7.07095 -0.25
      vertex -13.2288 -7.07095 0.25
    endloop
  endfacet
  facet normal -0.757209 -0.653173 0
    outer loop
      vertex -11.5952 -9.5159 -0.25
      vertex -11.1143 -10.0734 0.25
      vertex -11.5952 -9.5159 0.25
    endloop
  endfacet
  facet normal -0.757209 -0.653173 0
    outer loop
      vertex -11.5952 -9.5159 -0.25
      vertex -11.1143 -10.0734 -0.25
      vertex -11.1143 -10.0734 0.25
    endloop
  endfacet
  facet normal -0.788346 -0.615232 0
    outer loop
      vertex -12.0481 -8.93549 -0.25
      vertex -11.5952 -9.5159 0.25
      vertex -12.0481 -8.93549 0.25
    endloop
  endfacet
  facet normal -0.788346 -0.615232 0
    outer loop
      vertex -12.0481 -8.93549 -0.25
      vertex -11.5952 -9.5159 -0.25
      vertex -11.5952 -9.5159 0.25
    endloop
  endfacet
  facet normal -0.949528 -0.313682 0
    outer loop
      vertex -14.3541 -4.35427 -0.25
      vertex -14.1232 -5.05335 0.25
      vertex -14.3541 -4.35427 0.25
    endloop
  endfacet
  facet normal -0.949528 -0.313682 0
    outer loop
      vertex -14.3541 -4.35427 -0.25
      vertex -14.1232 -5.05335 -0.25
      vertex -14.1232 -5.05335 0.25
    endloop
  endfacet
  facet normal -0.963776 -0.266713 0
    outer loop
      vertex -14.5505 -3.6447 -0.25
      vertex -14.3541 -4.35427 0.25
      vertex -14.5505 -3.6447 0.25
    endloop
  endfacet
  facet normal -0.963776 -0.266713 0
    outer loop
      vertex -14.5505 -3.6447 -0.25
      vertex -14.3541 -4.35427 -0.25
      vertex -14.3541 -4.35427 0.25
    endloop
  endfacet
  facet normal -0.99729 0.0735646 0
    outer loop
      vertex -14.9819 0.736015 -0.25
      vertex -14.9819 0.736015 0.25
      vertex -14.9278 1.47026 -0.25
    endloop
  endfacet
  facet normal -0.99729 0.0735646 0
    outer loop
      vertex -14.9278 1.47026 -0.25
      vertex -14.9819 0.736015 0.25
      vertex -14.9278 1.47026 0.25
    endloop
  endfacet
  facet normal -0.492898 0.870087 0
    outer loop
      vertex -7.71154 12.8659 -0.25
      vertex -7.71154 12.8659 0.25
      vertex -7.07095 13.2288 -0.25
    endloop
  endfacet
  facet normal -0.492898 0.870087 0
    outer loop
      vertex -7.07095 13.2288 -0.25
      vertex -7.71154 12.8659 0.25
      vertex -7.07095 13.2288 0.25
    endloop
  endfacet
  facet normal -0.653173 0.757209 0
    outer loop
      vertex -10.0734 11.1143 -0.25
      vertex -10.0734 11.1143 0.25
      vertex -9.5159 11.5952 -0.25
    endloop
  endfacet
  facet normal -0.653173 0.757209 0
    outer loop
      vertex -9.5159 11.5952 -0.25
      vertex -10.0734 11.1143 0.25
      vertex -9.5159 11.5952 0.25
    endloop
  endfacet
  facet normal -0.575808 0.817585 0
    outer loop
      vertex -8.93549 12.0481 -0.25
      vertex -8.93549 12.0481 0.25
      vertex -8.33355 12.472 -0.25
    endloop
  endfacet
  facet normal -0.575808 0.817585 0
    outer loop
      vertex -8.33355 12.472 -0.25
      vertex -8.93549 12.0481 0.25
      vertex -8.33355 12.472 0.25
    endloop
  endfacet
  facet normal -0.0735646 0.99729 0
    outer loop
      vertex -1.47026 14.9278 -0.25
      vertex -1.47026 14.9278 0.25
      vertex -0.736015 14.9819 -0.25
    endloop
  endfacet
  facet normal -0.0735646 0.99729 0
    outer loop
      vertex -0.736015 14.9819 -0.25
      vertex -1.47026 14.9278 0.25
      vertex -0.736015 14.9819 0.25
    endloop
  endfacet
  facet normal -0.0245412 0.999699 0
    outer loop
      vertex -0.736015 14.9819 -0.25
      vertex -0.736015 14.9819 0.25
      vertex 9.18485e-16 15 -0.25
    endloop
  endfacet
  facet normal -0.0245412 0.999699 0
    outer loop
      vertex 9.18485e-16 15 -0.25
      vertex -0.736015 14.9819 0.25
      vertex 9.18485e-16 15 0.25
    endloop
  endfacet
  facet normal -0.788346 0.615232 0
    outer loop
      vertex -12.0481 8.93549 -0.25
      vertex -12.0481 8.93549 0.25
      vertex -11.5952 9.5159 -0.25
    endloop
  endfacet
  facet normal -0.788346 0.615232 0
    outer loop
      vertex -11.5952 9.5159 -0.25
      vertex -12.0481 8.93549 0.25
      vertex -11.5952 9.5159 0.25
    endloop
  endfacet
  facet normal -0.757209 0.653173 0
    outer loop
      vertex -11.5952 9.5159 -0.25
      vertex -11.5952 9.5159 0.25
      vertex -11.1143 10.0734 -0.25
    endloop
  endfacet
  facet normal -0.757209 0.653173 0
    outer loop
      vertex -11.1143 10.0734 -0.25
      vertex -11.5952 9.5159 0.25
      vertex -11.1143 10.0734 0.25
    endloop
  endfacet
  facet normal -0.724247 0.689541 0
    outer loop
      vertex -11.1143 10.0734 -0.25
      vertex -11.1143 10.0734 0.25
      vertex -10.6066 10.6066 -0.25
    endloop
  endfacet
  facet normal -0.724247 0.689541 0
    outer loop
      vertex -10.6066 10.6066 -0.25
      vertex -11.1143 10.0734 0.25
      vertex -10.6066 10.6066 0.25
    endloop
  endfacet
  facet normal -0.689541 0.724247 0
    outer loop
      vertex -10.6066 10.6066 -0.25
      vertex -10.6066 10.6066 0.25
      vertex -10.0734 11.1143 -0.25
    endloop
  endfacet
  facet normal -0.689541 0.724247 0
    outer loop
      vertex -10.0734 11.1143 -0.25
      vertex -10.6066 10.6066 0.25
      vertex -10.0734 11.1143 0.25
    endloop
  endfacet
  facet normal -0.975702 0.219101 0
    outer loop
      vertex -14.7118 2.92635 -0.25
      vertex -14.7118 2.92635 0.25
      vertex -14.5505 3.6447 -0.25
    endloop
  endfacet
  facet normal -0.975702 0.219101 0
    outer loop
      vertex -14.5505 3.6447 -0.25
      vertex -14.7118 2.92635 0.25
      vertex -14.5505 3.6447 0.25
    endloop
  endfacet
  facet normal -0.534998 -0.844854 0
    outer loop
      vertex -7.71154 -12.8659 -0.25
      vertex -8.33355 -12.472 0.25
      vertex -8.33355 -12.472 -0.25
    endloop
  endfacet
  facet normal -0.534998 -0.844854 0
    outer loop
      vertex -7.71154 -12.8659 -0.25
      vertex -7.71154 -12.8659 0.25
      vertex -8.33355 -12.472 0.25
    endloop
  endfacet
  facet normal -0.575808 -0.817585 0
    outer loop
      vertex -8.33355 -12.472 -0.25
      vertex -8.93549 -12.0481 0.25
      vertex -8.93549 -12.0481 -0.25
    endloop
  endfacet
  facet normal -0.575808 -0.817585 0
    outer loop
      vertex -8.33355 -12.472 -0.25
      vertex -8.33355 -12.472 0.25
      vertex -8.93549 -12.0481 0.25
    endloop
  endfacet
  facet normal -0.615232 -0.788346 0
    outer loop
      vertex -8.93549 -12.0481 -0.25
      vertex -9.5159 -11.5952 0.25
      vertex -9.5159 -11.5952 -0.25
    endloop
  endfacet
  facet normal -0.615232 -0.788346 0
    outer loop
      vertex -8.93549 -12.0481 -0.25
      vertex -8.93549 -12.0481 0.25
      vertex -9.5159 -11.5952 0.25
    endloop
  endfacet
  facet normal -0.653173 -0.757209 0
    outer loop
      vertex -9.5159 -11.5952 -0.25
      vertex -10.0734 -11.1143 0.25
      vertex -10.0734 -11.1143 -0.25
    endloop
  endfacet
  facet normal -0.653173 -0.757209 0
    outer loop
      vertex -9.5159 -11.5952 -0.25
      vertex -9.5159 -11.5952 0.25
      vertex -10.0734 -11.1143 0.25
    endloop
  endfacet
  facet normal -0.405241 -0.91421 0
    outer loop
      vertex -5.74025 -13.8582 -0.25
      vertex -6.41333 -13.5598 0.25
      vertex -6.41333 -13.5598 -0.25
    endloop
  endfacet
  facet normal -0.405241 -0.91421 0
    outer loop
      vertex -5.74025 -13.8582 -0.25
      vertex -5.74025 -13.8582 0.25
      vertex -6.41333 -13.5598 0.25
    endloop
  endfacet
  facet normal -0.313682 -0.949528 0
    outer loop
      vertex -4.35427 -14.3541 -0.25
      vertex -5.05335 -14.1232 0.25
      vertex -5.05335 -14.1232 -0.25
    endloop
  endfacet
  facet normal -0.313682 -0.949528 0
    outer loop
      vertex -4.35427 -14.3541 -0.25
      vertex -4.35427 -14.3541 0.25
      vertex -5.05335 -14.1232 0.25
    endloop
  endfacet
  facet normal -0.449611 -0.893224 0
    outer loop
      vertex -6.41333 -13.5598 -0.25
      vertex -7.07095 -13.2288 0.25
      vertex -7.07095 -13.2288 -0.25
    endloop
  endfacet
  facet normal -0.449611 -0.893224 0
    outer loop
      vertex -6.41333 -13.5598 -0.25
      vertex -6.41333 -13.5598 0.25
      vertex -7.07095 -13.2288 0.25
    endloop
  endfacet
  facet normal -0.492898 -0.870087 0
    outer loop
      vertex -7.07095 -13.2288 -0.25
      vertex -7.71154 -12.8659 0.25
      vertex -7.71154 -12.8659 -0.25
    endloop
  endfacet
  facet normal -0.492898 -0.870087 0
    outer loop
      vertex -7.07095 -13.2288 -0.25
      vertex -7.07095 -13.2288 0.25
      vertex -7.71154 -12.8659 0.25
    endloop
  endfacet
  facet normal 0.866025 0.5 -0
    outer loop
      vertex -10.5 1.28588e-15 -0.25
      vertex -10.5 1.28588e-15 0.25
      vertex -5.25 -9.09327 0.25
    endloop
  endfacet
  facet normal 0.866025 0.5 -0
    outer loop
      vertex -5.25 -9.09327 -0.25
      vertex -10.5 1.28588e-15 -0.25
      vertex -5.25 -9.09327 0.25
    endloop
  endfacet
  facet normal 3.38354e-16 1 0
    outer loop
      vertex 5.25 -9.09327 0.25
      vertex 5.25 -9.09327 -0.25
      vertex -5.25 -9.09327 0.25
    endloop
  endfacet
  facet normal 3.38354e-16 1 0
    outer loop
      vertex -5.25 -9.09327 0.25
      vertex 5.25 -9.09327 -0.25
      vertex -5.25 -9.09327 -0.25
    endloop
  endfacet
  facet normal -0.866025 0.5 0
    outer loop
      vertex 10.5 0 0.25
      vertex 10.5 0 -0.25
      vertex 5.25 -9.09327 0.25
    endloop
  endfacet
  facet normal -0.866025 0.5 0
    outer loop
      vertex 5.25 -9.09327 0.25
      vertex 10.5 0 -0.25
      vertex 5.25 -9.09327 -0.25
    endloop
  endfacet
  facet normal -0.866025 -0.5 -0
    outer loop
      vertex 10.5 0 0.25
      vertex 5.25 9.09327 -0.25
      vertex 10.5 0 -0.25
    endloop
  endfacet
  facet normal -0.866025 -0.5 0
    outer loop
      vertex 10.5 0 0.25
      vertex 5.25 9.09327 0.25
      vertex 5.25 9.09327 -0.25
    endloop
  endfacet
  facet normal 0 -1 0
    outer loop
      vertex -5.25 9.09327 0.25
      vertex 5.25 9.09327 -0.25
      vertex 5.25 9.09327 0.25
    endloop
  endfacet
  facet normal 0 -1 0
    outer loop
      vertex -5.25 9.09327 0.25
      vertex -5.25 9.09327 -0.25
      vertex 5.25 9.09327 -0.25
    endloop
  endfacet
  facet normal 0.866025 -0.5 0
    outer loop
      vertex -10.5 1.28588e-15 0.25
      vertex -5.25 9.09327 -0.25
      vertex -5.25 9.09327 0.25
    endloop
  endfacet
  facet normal 0.866025 -0.5 0
    outer loop
      vertex -10.5 1.28588e-15 0.25
      vertex -10.5 1.28588e-15 -0.25
      vertex -5.25 9.09327 -0.25
    endloop
  endfacet
endsolid OpenSCAD_Model
